<svg width="180" xmlns="http://www.w3.org/2000/svg" viewBox="15.30000114440918 268.1999816894531 623.6000366210938 116.60003662109375"><path fill="#367c2b" d="M175.6 343.1s5.6 2 11.9 2c6.7 0 10.9-.9 13.2-3.3 1.9-2 2.7-5.2 2.6-10v-32h9.9v33.4c-.1 14.8-7.3 21.1-23.9 21.1-8.1 0-13.7-1.3-13.7-1.3v-9.9zm43.4-10.9c0 10.2 6.6 22.1 25.3 22.1 18.7 0 25.3-11.9 25.3-22.1 0-14.2-9.5-22.8-25.3-22.8s-25.3 8.5-25.3 22.8m25.4 13.3c-5.8 0-15.5-1.8-15.5-13.8 0-8.6 5.6-13.5 15.5-13.5 9.8 0 15.5 4.9 15.5 13.5-.1 12-9.8 13.8-15.5 13.8m66.7-35.1v17h-25.7v-17h-9.9v42.8h9.9v-17h25.7v17h9.9v-42.8h-9.9zm156.8 34.1v-8.3h22.8v-8.8h-22.8v-8.3h29.4v-8.8H458v42.8h39.3v-8.8h-29.4zm45.9 0v-8.3h22.8v-8.8h-22.8v-8.3h29.4v-8.8h-39.3v42.8h39.3v-8.8h-29.4zm95.7 0v-8.3h22.8v-8.8h-22.8v-8.3h29.4v-8.8h-39.3v42.8h39.3v-8.8h-29.4zm-200.6-35.9v35.8h13.9c7.6 0 20.3-2.3 20.3-18.1 0-11.3-7.4-17.7-20.3-17.7h-13.9zm13.9-8.9c18.9 0 30.2 10.2 30.2 27.1 0 12.2-7.9 26.4-30.2 26.4H399v-53.5h23.8m172.3 53.5h-11.9l-11.9-15.7h-11.6v15.7h-9.9v-42.8h27.9c9.6 0 15.3 5.1 15.3 13.8 0 5.2-2.9 10.9-10.3 12.8l12.4 16.2zm-16.8-24.4c2 0 5.5-.7 5.5-4.9 0-3-2-4.8-5.5-4.8h-18v9.6l18 .1zm-203.9 24.4v-42.8h-9.9v28.9l-25.7-28.9H329v42.8h9.9V324l25.7 29.2h9.8zM134.5 280.8c-16.4-8.1-35.3-12.6-55-12.6-19.8 0-38.6 4.6-55.1 12.7-5.8 14.1-9.1 29.5-9.1 45.6s3.2 31.5 9 45.6c16.5 8.1 35.4 12.7 55.1 12.7 19.7 0 38.6-4.5 55-12.6 5.9-14.1 9.1-29.6 9.1-45.7.1-16.1-3.1-31.6-9-45.7"></path><path d="M130.6 284.2C115.3 277 97.7 273 79.5 273c-18.3 0-35.8 4.1-51.2 11.3-5.2 13.1-8 27.3-8 42.2 0 14.8 2.8 29 8 42.1C43.6 376 61.2 380 79.5 380c18.2 0 35.8-4.1 51.2-11.3 5.2-13.1 8-27.3 8-42.2-.1-14.9-2.9-29.1-8.1-42.3M62 313.3c-2.6 5.3-4.5 11.2-5.2 17.9l-1.6.1c-5.5.5-11.3.9-16.8 3.1l.4 2.2c9 11.2 22.7 18 22.9 18.1l.3-.3-3-4.7c-.7-.5-2.6-1-2.6-1-6.2-2.1-10.5-10.1-11.2-11.5 5.1 0 9.5 1.5 13.9 2.9 2.9.9 5.5 1.8 8.3 2.3 4.9.8 10-.1 14.6-.7 3.7-.4 7.4-.4 11-.2.4.5 4.2 5.1 7.9 7 4.5 2.4 17.8 6.3 18.4 6.6.3.3 5.4 5.4 8.5 11.3-14.8 6.8-31.5 10.4-48.3 10.4-16.8 0-33.5-3.6-48.4-10.5-4.9-12.7-7.4-26.1-7.4-39.8 0-13.7 2.5-27.1 7.4-39.8 14.9-6.9 31.6-10.5 48.4-10.5 16.8 0 33.5 3.6 48.3 10.5 4.9 12.7 7.4 26.2 7.4 39.8 0 12.6-2.1 24.8-6.2 36.5-4.7-8.2-6.6-10.7-6.6-10.7-.1 0-6.7-3.5-8.3-4.9-1.3-1.1-1.9-3.4-2.6-6.1-1-3.7-2.3-8.3-5.8-12l4-1.6C108.6 320 99.5 315 99.4 315l-.5.2c3.5 4.4 4.5 8.1 4.5 10.3 0 1.1-.2 1.9-.3 2.2-1-.4-7.8-2.5-23-2-2.2.1-5.5 0-7.4-1.9-1.1-1-1.6-2.6-1.6-4.5 0-5.3 2.2-12.4 2.6-13.4l4 .5c4.7-2.6 6.6-4.9 6.9-5.3l-.2-.2c-4.1.5-9.3 1.6-9.3 1.6.4-.9 1.4-4 1.4-7.4 0-3.7-1.2-7.9-6-10.3l-.5.2s2.8 3 2.8 7c0 1.1-.2 2.3-.8 3.6-1.6-.6-2.2-.7-4-.8-.9-3.2-3.7-5.9-7.5-7.2l-.5.3s4 2.9 4.3 7.1c-2 .2-2.9.4-5.4 1.1-1-1.7-3.4-3-6.4-3.3l-.5.2s3.5 1.2 4.3 3.9c-2.2 1-4.4 2.5-6 3.8l.2.6c9.1-3.5 17.6-4.6 19.8-2 .4.4.6.9.6 1.5 0 .8-.3 1.6-.9 2.6-4.5 1-11.2 2.9-16.8 5l.7 2.3s5.6 1.1 7.7 1.6c0 .1.8.2.4 1" fill="#fdda01"></path></svg>
