<svg xmlns="http://www.w3.org/2000/svg" width="120" height="173.333" viewBox="0 0 200 130"><path fill="#262626" d="M92 12.5C80.2 24.4 79.6 25.1 81.3 26.7c1.6 1.7 2.4 1.1 14.3-10.8 11.9-12 12.4-12.6 10.7-14.2-1.8-1.6-2.5-1-14.3 10.8zM104.5 19C93.2 30.4 92.6 31.1 94.3 32.7c1.6 1.7 2.4 1.1 14.2-10.7 9.6-9.5 12.2-12.7 11.3-13.7-.6-.7-1.6-1.3-2.2-1.3-.6 0-6.5 5.4-13.1 12zM92.6 21C82.5 31.1 80.9 33.2 82 34.5c.7.8 1.8 1.5 2.4 1.5.6 0 6.5-5.4 13-11.9 10.3-10.3 11.8-12.2 10.7-13.5-.8-.9-1.9-1.6-2.5-1.6-.7 0-6.5 5.4-13 12zM38.2 51.2c-2.8 2.8-.7 7.8 3.3 7.8 2.7 0 4.5-1.8 4.5-4.7 0-3.5-5.3-5.6-7.8-3.1zM116.6 52.2c-1.3 1.9-1.4 2.5-.2 4.3 2.5 3.8 8.6 2.7 8.6-1.6 0-2.3-2.6-4.9-5-4.9-1 0-2.6 1-3.4 2.2zM158.8 51.1c-3.6 2.1-1.6 7.9 2.7 7.9 4.4 0 6.3-6 2.6-8-2.4-1.2-3.1-1.2-5.3.1zM0 76.5v18.7l9.8-.4c8-.3 10.4-.8 13.5-2.7 10.3-6.4 11.1-24.2 1.4-31.5-2.4-1.8-4.5-2.2-13.8-2.4L0 57.8v18.7zm19.5-8c2 1.9 2.5 3.4 2.5 7.4 0 6.6-2.8 10-8.8 10.8l-4.2.6V66h4c3 0 4.7.7 6.5 2.5zM58 63.7c-5.1 2.6-8 7.5-8 13.5 0 10.5 5.6 16.3 14.8 15.4 5.7-.5 6.8.7 3.2 3.9-2.1 1.9-5.9 2.4-10.2 1.2-2.4-.6-2.9-.3-4.4 2.4-1.9 3.8-1.4 4.3 5.9 5.9 8.3 1.7 13.3-.6 16.8-7.6 1.9-3.9 2.1-6.3 2.3-19.7l.1-15.2-3.4-.3c-2-.2-3.7.2-4.2.9-.5.9-1.1 1-2.1.2-2.6-2.1-7.2-2.4-10.8-.6zm11.4 8.5c2.1 2.9 2 9.2 0 11.2-4 4-10.6.4-10.6-5.9 0-6.6 7.2-10.2 10.6-5.3zM98.3 62.7c-1.2.2-2.7 1.1-3.3 1.9-1.6 1.8-3 1.8-3-.1 0-1.1-1.1-1.5-4-1.5h-4v32h8v-9.3C92 75.4 93.4 72 97.5 72c3.6 0 4.5 2.8 4.5 13.4V95h8V83.1c0-6.5-.5-13.2-1.1-15-1-2.8-5.5-6.3-7.6-6-.4.1-1.8.4-3 .6zM138.3 62.7c-1.2.2-3.3 1.5-4.7 2.8-2 1.9-2.6 3.4-2.6 6.8 0 4.9 1.4 6.7 7.3 9.2 8.8 3.7 4.5 8-4.9 5-1.7-.5-2.3-.1-3.4 2.5-1.6 3.9-.8 4.7 5.7 5.9 6.1 1.2 11.1.1 14-3.1 5.3-5.8 3.7-11.5-4.4-15.3-3.9-1.9-5.3-3.1-5.1-4.3.3-1.3 1.4-1.7 5.1-1.7 4.7 0 6.6-1.3 6.7-4.2 0-2.4-8.5-4.7-13.7-3.6zM178 63.2c-5.4 1.5-7.1 3.5-5.7 6.5.8 1.9 1.6 2.3 3.1 1.7 4.6-1.5 9.8-1 11.2 1.2 1.4 2.1 1.4 2.1-4.6 2-5.7-.1-6.4.1-9.1 3.2-4.6 5.1-3.6 13.4 1.8 16.3 3.1 1.7 9.7 1.6 11.8-.1 1.2-1 2.3-.9 5.4.3 3 1.3 4.1 1.3 4.9.4 1.8-2.4 2.2-4.9.8-6.2-.7-.8-1.5-4.6-1.9-8.8-.3-4.1-1.3-8.9-2.1-10.6-2.9-5.5-9-7.8-15.6-5.9zm8.1 17.8c3 1.6 2.5 5.8-.8 7.1-3.8 1.4-7.3-.3-7.3-3.5 0-3.8 4.1-5.7 8.1-3.6zM37 79v16h8V63h-8v16zM116 79v16h8V63h-8v16zM157 79v16h9V63h-9v16zM20.5 121c-1.5 1.6-1.7 2.6-.9 4.7 1 3 4.4 4.6 6.5 3.1 1.1-.8 1.1-.9-.3-.4-.9.3-2.7-.3-4-1.3-1.9-1.6-2.1-2.2-1.1-4.4.8-1.6 2.2-2.7 4-3 2.8-.4 2.8-.4.2-.6-1.5 0-3.4.8-4.4 1.9zM30.1 124.2c.1 2.9.4 4.3.6 3 .6-2.8 2.6-2.8 4.7.1l1.7 2.2-1.1-2.3c-.9-1.7-.8-2.7 0-3.8 1.9-2.2.4-4.4-3-4.4-3 0-3 0-2.9 5.2zm5.4-2.2c0 .8-1 1.6-2.2 1.8-1.8.3-2.3-.2-2.3-1.8s.5-2.1 2.3-1.8c1.2.2 2.2 1 2.2 1.8zM40 124v5l3.3-.1c3-.2 3-.2.5-.6-3.5-.5-3.9-4-.5-4.6l2.2-.4-2.2-.2c-3.3-.2-2.9-2.9.5-3.4 2.5-.4 2.5-.4-.5-.6L40 119v5zM49 124c0 4.9.1 5 3 5 2.3 0 3.3-.6 4.2-2.5 1.7-3.8-.3-7.5-4.2-7.5-2.9 0-3 .1-3 5zm6.4-1.8c1.4 2.3-.3 5.2-3.3 5.6-1.9.3-2.1-.1-2.1-3.8 0-3.7.2-4.1 2.1-3.8 1.2.2 2.7 1.1 3.3 2zM59.3 124c0 3 .2 4.3.4 2.8.2-1.6.2-4 0-5.5-.2-1.6-.4-.3-.4 2.7zM64.2 119.7c1.2.3 1.8 1.8 2.1 5.1l.3 4.7.2-4.7c.2-4 .5-4.7 2.5-5.1 1.2-.2.2-.4-2.3-.4-2.5-.1-3.7.1-2.8.4zM78.3 124c0 3 .2 4.3.4 2.8.2-1.6.2-4 0-5.5-.2-1.6-.4-.3-.4 2.7zM82.1 124.2c.2 5.2.2 5.2.8 1.3l.6-3.9 1.3 2.8c.7 1.6 1.5 2.6 1.8 2.4.5-.5-3.4-7.8-4.2-7.8-.2 0-.3 2.4-.3 5.2zM87.9 123.5c-.5 5-.4 6.3.7 5.3.3-.3.4-2.8.2-5.4l-.3-4.9-.6 5zM92.7 119.7c1.8.4 2.3 1.2 2.6 5.1l.3 4.7.2-4.7c.2-3.5.6-4.8 2-5.1.9-.3-.3-.5-2.8-.4-2.5 0-3.5.2-2.3.4zM102 124c0 4.8.1 5 2.8 4.9 2.3-.2 2.4-.2.5-.6-2.7-.5-3.1-3.9-.5-4.6 1.6-.4 1.6-.5 0-.6-2.9-.2-2.1-2.9 1-3.4 2.5-.4 2.5-.4-.5-.6l-3.3-.1v5zM111.2 123.7c-.2 4.9 0 5.3 2.1 5.2 1.6-.1 1.7-.3.5-.6s-1.8-1.8-2.1-5.1l-.3-4.7-.2 5.2zM118.2 123.7c-.2 4.9 0 5.3 2.1 5.2 1.6-.1 1.7-.3.5-.6s-1.8-1.8-2.1-5.1l-.3-4.7-.2 5.2zM125.3 124c0 3 .2 4.3.4 2.8.2-1.6.2-4 0-5.5-.2-1.6-.4-.3-.4 2.7zM130.6 120.6c-2.5 2.5-1.8 6.7 1.4 8.4 2.1 1.1 5 .4 5-1.2 0-.7-.5-.6-1.3 0-1 .9-1.9.7-3.5-.4-3.9-2.7-2.4-6.7 2.8-7.7l2.5-.4-2.7-.2c-1.5 0-3.4.6-4.2 1.5zM140 124v5l3.3-.1c3-.2 3-.2.5-.6-3.5-.5-3.9-4-.5-4.6l2.2-.4-2.2-.2c-3.3-.2-2.9-2.9.5-3.4 2.5-.4 2.5-.4-.5-.6l-3.3-.1v5zM149.1 124.2c.2 5.2.2 5.2.8 1.3.6-3.9.7-3.9 1.9-1.7.8 1.3 1.6 2.2 1.8 1.9.6-.6-2.9-6.7-3.8-6.7-.5 0-.7 2.4-.7 5.2zM154.8 123.2c-.3 2.4-.1 4.7.3 5.3.5.5.9-1.4.9-4.3 0-6.3-.6-6.8-1.2-1zM160.6 120.6c-2.2 2.1-2 5 .4 7.4 2.3 2.3 2.9 2.4 5 .9 1.3-.9 1.3-1-.1-.6-2.2.7-5.9-2-5.9-4.2 0-2.3 1.7-3.8 5-4.4l2.5-.4-2.7-.2c-1.5 0-3.4.6-4.2 1.5zM170 124v5l3.3-.1c3-.2 3-.2.5-.6-3.5-.5-3.9-4-.5-4.6l2.2-.4-2.2-.2c-3.3-.2-2.9-2.9.5-3.4 2.5-.4 2.5-.4-.5-.6l-3.3-.1v5z"/></svg>
