<svg width="110" xmlns="http://www.w3.org/2000/svg" viewBox="0 0 388.8 150"><path d="M86.16 104.21V0H61.54v43.65c-2-3.11-8-8.37-22-8.37C16.41 35.28 0 53.5 0 77.79c0 25.11 17.4 42.83 40.37 42.83 9.85 0 18.05-4.1 21.83-9.68a55.21 55.21 0 00.66 7.88h24c-.21-1.82-.7-7.22-.7-14.61zM43.49 98.3c-9.68 0-18.38-6.89-18.38-20.35 0-13.62 8.7-20.18 18.38-20.18S61.87 64.33 61.87 78c0 13.41-8.7 20.3-18.38 20.3zM144.09 61.87a33.61 33.61 0 00-7.87-.82c-10 0-19 5.91-19 22.16v35.61h-25V37.25h24.13v11c4.27-9.19 14.6-11.82 21.17-11.82a24.71 24.71 0 016.56.82z" fill="#036"/><path d="M179.22 34.79c-24.29 0-43.33 17.89-43.33 43.16s19 43.33 43.33 43.33c24.45 0 43.32-18 43.32-43.33s-18.87-43.16-43.32-43.16zm0 63.51c-9.36 0-18.38-6.73-18.38-20.35 0-13.78 9-20.18 18.38-20.18 9.52 0 18.38 6.4 18.38 20.18s-8.86 20.35-18.38 20.35z" fill="#036"/><path d="M270.3 35.28c-11.65 0-20.51 5.09-24 10.34v-8.37h-24.08V150h24.94v-37.58c3.78 4.59 11.66 8.2 22.16 8.2 22.81 0 38.89-17.88 38.89-42.83 0-24.45-14.27-42.51-37.91-42.51zm-5.08 63c-9.69 0-18.38-6.89-18.38-20.35 0-13.62 8.69-20.18 18.38-20.18s18.54 6.58 18.54 20.25-8.7 20.3-18.54 20.3z" fill="#036"/><path d="M388.14 104.21V0h-24.62v43.65c-2-3.11-8-8.37-22-8.37-23.13 0-39.52 18.22-39.52 42.51 0 25.11 17.4 42.83 40.37 42.83 9.85 0 18-4.1 21.83-9.68a57.23 57.23 0 00.65 7.88h24c-.22-1.82-.71-7.22-.71-14.61zm-42.67-5.91c-9.68 0-18.38-6.89-18.38-20.35 0-13.62 8.7-20.18 18.38-20.18s18.38 6.56 18.38 20.23c0 13.41-8.7 20.3-18.38 20.3z" fill="#036"/><path fill="#009eff" d="M165.71 136.32L179.39 150l13.68-13.68h-27.36z"/></svg>
