<svg width="150" height="50" xmlns="http://www.w3.org/2000/svg" viewBox="-1 -1 752 302"><path fill="none" d="M-1-1h752v302H-1z"></path><path clip-rule="evenodd" d="M315.6 124c-7.3 0-14.5 2.7-21 7.9V94.2h-18.4v103.5h18.4v-50c4.8-5 10.1-7.6 15.4-7.6 7.5 0 12.7 5.5 12.7 13.1v44.5h18.6v-47.8c0-15.3-10.7-25.9-25.7-25.9zm67.1 0c-20.6 0-35.6 15.4-35.6 37.2 0 22.5 15.3 38.3 37 38.3 8.1 0 16.3-1.9 24.5-5.6v-15.4c-7.5 4.3-14.8 6.8-21.5 6.8-12.1 0-20.7-7.5-21.9-18.4H414c.3-2.4.3-4.8.3-6.8.1-21.3-12.7-36.1-31.6-36.1zm-17.4 30.8c.9-9.9 7.8-16.6 16.7-16.6 8.2 0 14.1 6.8 14.7 16.6h-31.4zm55.2 42.9h18.4V94.2h-18.4v103.5zm29.9 0h18.4V94.2h-18.4v103.5zm62.2-73.7c-21.7 0-37.2 15.6-37.2 37.7 0 22 15.4 37.7 37.2 37.7 21.7 0 37-15.7 37-37.7 0-22.2-15.2-37.7-37-37.7zm0 60c-10.8 0-18.3-9.1-18.3-22.3 0-13.2 7.5-22.3 18.3-22.3 10.7 0 18.1 9.1 18.1 22.3.1 13.3-7.4 22.3-18.1 22.3zm67-78.6h-18.4v20.3h-12.4v14.8h12.4v35.7c0 13.5 9.9 23.2 24 23.2 4.9 0 9.9-1 15.1-3v-15.3c-3.7 1.9-7.2 2.9-10.2 2.9-6.3 0-10.5-4.3-10.5-10.2v-33.3h20.7v-14.8h-20.7v-20.3zm55.1 18.6c-8.5 0-17.3 1.9-26.1 5.9v15.3c8.2-4.6 16.4-6.9 23.9-6.9 8.1 0 13.5 4.6 13.5 11.4v3.3c-3.2-.1-6-.3-8.9-.3-20.6 0-34.7 10.4-34.7 25.3 0 12.7 9.5 21.5 22.9 21.5 7.3 0 14.4-2.6 20.7-7.5v5.8h17.6v-47.2c.1-15.7-11.3-26.6-28.9-26.6zm11.4 54.1c-4.5 4.5-9.6 7.1-14.7 7.1-6.3 0-10.8-4-10.8-9.8 0-6.9 7.1-11.8 17.4-11.8 2.9 0 5.5.1 8.1.4v14.1zm67.4-17l24.2-35.4H717L702.6 148l-14.4-22.3h-20.7l24 35.4-25.2 36.6h21.3l15-23.5 15 23.5h21.3l-25.4-36.6z" fill-rule="evenodd" fill="#2d3d4f" class="logo_svg__logo-text"></path><path clip-rule="evenodd" d="M7 59v159s0 27 37.4 47c.9.5 1.8.9 2.6 1.4V59H7z" fill-rule="evenodd" fill="#e53b8f"></path><path clip-rule="evenodd" d="M47 44v222.4c16 8.5 29.7 15.7 40 21V44H47z" fill-rule="evenodd" fill="#fbce54"></path><path clip-rule="evenodd" d="M87 29v258.4c13.3 6.8 21 10.6 21 10.6s8.4-4.5 19-10.2V29H87z" fill-rule="evenodd" fill="#35e7b7"></path><path clip-rule="evenodd" d="M127 14v273.8c18.4-9.9 43.5-23.4 42.6-23 37.4-20 37.4-46.9 37.4-46.9V14h-80z" fill-rule="evenodd" fill="#3599e7"></path></svg>
