<svg xmlns="http://www.w3.org/2000/svg" width="170" viewBox="0 0 194 68"><path fill="#3E466E" d="M137.904 28.916h6.162v14.78h3.848v-14.78h6.162V25.09h-16.172v3.826M167.084 34.164l-6.496-9.074h-2.936v18.606h3.848v-10.53l4.56 6.245h2.067l4.56-6.245v10.53h3.85V25.09H173.6l-6.516 9.074M183.947 39.869v-14.78h-3.85v18.607h13.486v-3.827h-9.636M130.883 32.436h-8.064V25.09h-3.848v18.606h3.848v-7.433h8.064v7.434h3.85V25.09h-3.85v7.346M18.01 25.09h3.85v18.607h-3.85V25.09zM42.128 25.09h-4.293l-4.12 5.965-4.104-5.965h-4.314l6.26 9.085-6.55 9.52h4.311l4.397-6.382 4.414 6.383h4.29l-6.55-9.521 6.26-9.085M66.16 39.869v-14.78h-3.85v18.607h12.927v-3.827H66.16M9.074 25.096v-.006H.624v18.606h3.848V37.88h2.095v-.006h2.507v-.008a6.388 6.388 0 000-12.771zm-.133 8.92h-4.47v-5.068h4.47a2.535 2.535 0 010 5.068zM49.415 36.263h8.745v-3.827h-8.745v-3.52h9.401V25.09h-13.25v18.606h13.446v-3.827h-9.598v-3.606"/><path fill="#FDC75A" d="M105.77 20.702l3.081 1.778 1.877-3.252-3.08-1.778-1.879 3.252M106.554 16.819l-3.082-1.78-1.877 3.255 3.082 1.777 1.877-3.252M88.534 48.034l-3.082-1.78-4.099 7.102 3.081 1.779 4.1-7.101M85.526 55.766l3.082 1.778 4.1-7.101-3.082-1.777-4.1 7.1"/><path fill="#EF6E30" d="M78.537 58.232a1.924 1.924 0 00.704 2.624l3.928 2.269a1.923 1.923 0 002.624-.704l1.852-3.207-7.256-4.188-1.852 3.206"/><path fill="#FFF" d="M112.068 11.748l-2.77-1.6-4.447 3.46 6.453 3.726.764-5.586"/><path fill="#FEE3AC" d="M109.3 10.149l-4.448 3.46 6.453 3.726.764-5.586-2.77-1.6"/><path fill="#3E466E" d="M75.93 12.19l.066-.002a.632.632 0 00.562-.694c-.486-4.595.287-7.728 2.178-8.82 2.438-1.407 6.522.255 10.66 4.339a.631.631 0 00.885-.9C85.654 1.547 81.102-.15 78.106 1.583c-2.383 1.376-3.353 4.849-2.803 10.045a.63.63 0 00.626.563M118.275 60.38a.63.63 0 00-.672.585c-.182 2.6-.949 4.309-2.28 5.078-2.83 1.634-8.032-.95-12.944-6.426a.63.63 0 10-.94.842c4.211 4.695 8.598 7.322 11.945 7.322.947 0 1.814-.211 2.566-.646 1.72-.993 2.697-3.04 2.91-6.083a.628.628 0 00-.585-.672"/><path fill="#69C5C7" d="M78.95 5.053l.107-.143-.108.143M78.41 6.2l.066-.204-.066.205M78.774 5.325l.123-.2-.123.2M79.302 4.653l.133-.113-.133.113M79.12 4.838l.114-.121-.115.12M78.321 6.534l.057-.225-.057.225M78.51 5.898l.085-.212-.085.212M113.537 64.647l-.186.023.186-.023M112.611 64.655l-.21-.031.21.03M113.795 64.59l-.162.039.162-.04M114.35 64.366l-.224.11.223-.11M114.051 64.506l-.164.059.164-.06M78.242 6.92c.018-.096.035-.191.056-.284-.02.093-.038.189-.056.284M78.892 14.24l-.127-.554.127.555"/><path fill="#A0DAE0" d="M101.355 54.104l.016-.01a.953.953 0 011.184.215 64.384 64.384 0 002.738 3.02c5.104 5.25 7.617 5.643 8.096 5.366.477-.276 1.393-2.65-.6-9.692-.66-2.334-1.55-4.87-2.64-7.533l-1.12.646c.055.127.107.256.158.38.066.159.13.315.191.473a57.654 57.654 0 011.004 2.65c.736 2.097 1.197 3.855 1.344 5.162.027.25.045.485.05.7.001.15 0 .292-.009.425a3.322 3.322 0 01-.043.37c-.08.458-.254.775-.527.936l-.004.002-.004.002-.102.049-.037.012-.076.023-.049.01-.072.013-.057.003-.066.004-.006-.001-.053-.002-.082-.006-.059-.008-.084-.015-.062-.014-.086-.021-.068-.021-.086-.028-.072-.027-.09-.037-.076-.032-.092-.044-.078-.038-.1-.052-.08-.044-.102-.06-.082-.05-.107-.065-.084-.055-.11-.076-.085-.057-.119-.086-.084-.061-.13-.1-.077-.06-.158-.127-.055-.044-.22-.183-.036-.03-.189-.166-.078-.07-.152-.137-.092-.084-.143-.135-.1-.094-.14-.135-.108-.105-.139-.137-.109-.111-.14-.142-.114-.116-.14-.148-.118-.12-.145-.155-.115-.125-.148-.161-.117-.13-.152-.168-.119-.133-.156-.178-.117-.132-.162-.188-.117-.133-.17-.202-.11-.13-.284-.34a20.821 20.821 0 01-.283-.344l-.006-.006-.295-.363-.076-.096a17.742 17.742 0 00-.22-.275l-.105-.132-.193-.247-.119-.151-.186-.237-.127-.166-.156-.205-4.258 2.457a85.67 85.67 0 002.678 3.31.953.953 0 01.268-1.452M83.787 13.094a7.781 7.781 0 01-.049-.691v-.227c.014-.774.202-1.294.581-1.513l.008-.004.097-.046.044-.014.07-.022.054-.01.068-.012.06-.004.061-.002h.007l.055.002.08.006.061.008.081.014.065.015.083.02.07.022.086.029.071.027.09.035.075.032.096.045.077.038.098.052.08.044.103.059.081.049.11.068.08.053.116.078.08.055.124.09.077.057.14.105.068.053.172.137.042.034.223.187.225.195.063.057.167.15.081.075.154.144.09.085.152.146.094.093.152.149.098.099.151.154.104.106.153.159.104.109.155.166.107.114.16.175.104.115.166.184.104.117.171.194.104.118.18.207.097.113.198.232.084.099.23.272.057.069c.194.233.391.474.59.72l.04.052.256.319.082.104.217.275.103.133.2.256.112.148.192.249.022.03 1.12-.646c-1.779-2.3-3.545-4.358-5.25-6.113-5.103-5.248-7.617-5.64-8.095-5.363-.478.275-1.396 2.648.6 9.69a62.74 62.74 0 001.142 3.588.953.953 0 01-.42 1.144l-.02.012a.954.954 0 01-1.377-.512 82.299 82.299 0 001.661 4.344l4.258-2.458c-1.542-3.696-2.5-6.745-2.723-8.737"/><path fill="#69C5C7" d="M80.082 18.434a130.42 130.42 0 01-.22-.69c.071.228.145.457.22.69M79.846 17.692c-.07-.23-.142-.456-.209-.681.068.225.138.452.21.68M78.308 11.187a39.432 39.432 0 000 0M112.293 64.604l-.213-.048.213.048M103.67 58.422c-.15-.156-.299-.314-.45-.475.151.16.3.319.45.475M106.613 61.235c-.129-.111-.26-.225-.39-.342.13.117.261.23.39.342M106.137 60.817l-.393-.356c.133.119.264.239.393.356M104.181 58.949c-.146-.15-.295-.301-.443-.456l.443.456M101.596 56.15c-.158-.183-.318-.368-.477-.556.158.188.318.373.477.556M84.721 5.424c-2.098-1.33-3.833-1.753-5.016-1.071l-.209.139.21-.138c1.182-.683 2.917-.26 5.015 1.07M111.974 64.53l-.244-.07.244.07M110.115 63.754c-.105-.06-.209-.117-.314-.18.105.063.21.122.314.18M108.002 62.362c-.13-.1-.266-.202-.398-.31.132.107.267.21.398.31M108.851 62.973c-.107-.073-.217-.148-.326-.227.11.079.22.154.326.227"/><path fill="#3E466E" d="M101.12 55.594c.157.188.317.373.476.556l.037.04c.521.599 1.037 1.17 1.543 1.71l.043.048.451.475.068.07c.148.155.297.307.443.456l.047.046c.49.497.975.965 1.447 1.402l.068.063.393.356.086.076c.131.117.262.23.391.342l.064.056c.305.263.607.51.902.744l.023.019c.133.106.268.209.398.309l.092.068.328.242.104.074c.11.078.22.153.326.227l.086.059c.271.183.54.354.801.508l.062.036c.105.062.21.12.314.179l.105.056c.09.049.18.095.268.139l.111.056c.09.043.178.085.266.125l.094.04c.117.052.23.1.344.144h.004c.115.045.23.085.342.12l.082.026.244.07.105.026.213.048.107.02.211.03.092.013c.096.01.188.016.28.019h.01c.095.002.187-.001.278-.007l.08-.008.186-.023.096-.018.162-.04.092-.024.164-.06.076-.03.223-.11.002-.001c1.965-1.135 2.051-5.12.602-10.741a54.341 54.341 0 00-.66-2.332 67.984 67.984 0 00-.819-2.49c-.074-.215-.152-.43-.229-.646a87.828 87.828 0 00-1.416-3.657l1.004-.58a.861.861 0 00.43-.744v-17.65a.86.86 0 00-.43-.744l-2.312-1.334 2.48-4.296 1.854-13.563a1.003 1.003 0 00-.496-1.017 1.004 1.004 0 00-1.13.078l-10.86 8.45-2.44 4.23-2.38-1.373a.863.863 0 00-.86 0l-.994.574C91.661 11.289 87.8 7.379 84.72 5.426c-2.098-1.33-3.833-1.753-5.016-1.07l-.209.138-.06.045-.133.114-.068.064-.115.12-.062.073-.108.143-.052.072-.123.2-.02.035a3.442 3.442 0 00-.129.258l-.03.068-.085.212-.033.098-.066.205-.032.108-.057.225-.023.103c-.02.093-.038.188-.056.284l-.01.06a8.17 8.17 0 00-.053.378l-.003.034a6.31 6.31 0 00-.034.353l-.006.105c-.007.1-.012.202-.016.306l-.004.122a11.1 11.1 0 00-.004.318v.115c0 .125.003.252.007.382l.002.065c.012.314.033.643.064.98l.007.07c.014.145.03.29.046.438l.014.109c.018.143.035.285.056.43l.014.105.075.49.01.05c.092.57.206 1.166.343 1.784l.016.07.127.555.02.079.146.598.008.032c.168.66.357 1.344.567 2.047l.004.015c.067.225.138.452.21.68l.015.054c.071.228.145.457.22.689l.007.02c.16.489.328.987.505 1.493a.955.955 0 001.377.51l.02-.012a.955.955 0 00.42-1.144 63.287 63.287 0 01-1.143-3.587c-1.994-7.043-1.076-9.416-.599-9.691.478-.276 2.992.115 8.095 5.363 1.705 1.755 3.471 3.814 5.25 6.113l-1.12.646-.022-.03-.192-.25-.112-.147-.2-.256-.103-.133c-.072-.093-.145-.184-.217-.275l-.082-.104-.256-.32-.04-.051a77.253 77.253 0 00-.59-.72l-.058-.07c-.077-.091-.152-.183-.229-.271l-.084-.1-.198-.231-.097-.113-.18-.207-.104-.118-.17-.194-.105-.117-.166-.184-.105-.115-.162-.175-.107-.114-.155-.166-.104-.11-.153-.158-.104-.106-.15-.154-.099-.1-.152-.148-.094-.093-.152-.146-.09-.085-.154-.144-.08-.075-.168-.15-.063-.057-.225-.195-.223-.187-.042-.034-.172-.137-.069-.053-.139-.105-.077-.057-.124-.09-.08-.055-.116-.078-.08-.053-.11-.068-.08-.05-.105-.058-.079-.044-.098-.052-.077-.038-.096-.045-.075-.032-.09-.035-.07-.027-.088-.03-.069-.02-.083-.021-.065-.015-.08-.014-.062-.008-.08-.006-.055-.002h-.007l-.062.002-.059.004-.068.012-.054.01-.07.022-.046.014-.097.047-.007.003-.002.002c-.378.218-.566.737-.58 1.512v.227c.004.214.021.444.05.69.221 1.993 1.18 5.042 2.725 8.738l-5.108 2.948a.86.86 0 00-.43.744v17.65a.86.86 0 00.43.745l2.38 1.372-6.916 11.977a3.851 3.851 0 001.41 5.259l3.927 2.267a3.85 3.85 0 005.257-1.408l6.915-11.977 2.312 1.334a.858.858 0 00.86 0l5.117-2.953.156.205.127.166.186.237.12.15.192.248.104.132.221.275.076.096.295.363.006.006c.094.117.19.23.283.344l.283.34.111.13.17.202.117.133.162.188.117.132.156.178.12.133.151.169.117.129.148.16.115.126.145.155.117.12.141.148.113.116.141.142.11.11.138.138.107.105.141.135.1.094.143.135.092.084.152.137.078.07.19.166.034.03.221.183.055.044.158.128.076.059.131.1.084.06.12.087.083.057.111.076.084.055.107.066.082.05.102.059.08.044.1.052.078.038.092.044.076.032.09.037.072.027.086.028.068.02.086.022.062.014.084.015.06.008.081.006.053.002h.006l.066-.003.057-.003.072-.013.05-.01.075-.023.037-.012.102-.05.004-.001.004-.002.002-.002c.271-.16.445-.477.525-.933.02-.114.035-.24.043-.371.008-.133.01-.274.008-.424a7.624 7.624 0 00-.049-.701c-.146-1.307-.607-3.065-1.344-5.161a51.179 51.179 0 00-.64-1.735 57.654 57.654 0 00-.364-.916 29.22 29.22 0 00-.19-.472 28.283 28.283 0 00-.159-.381l1.12-.646c1.09 2.664 1.98 5.199 2.64 7.533 1.992 7.043 1.076 9.416.6 9.692-.479.276-2.992-.116-8.096-5.365a63.18 63.18 0 01-2.754-3.04.92.92 0 00-1.137-.213.996.996 0 00-.316 1.479l.002.004.031.033zm7.731-33.113l-3.082-1.778 1.88-3.252 3.08 1.778-1.878 3.252zm.448-12.332l2.77 1.6-.764 5.586-6.453-3.725 4.447-3.461zm-5.827 4.89l3.082 1.779-1.877 3.252-3.082-1.777 1.877-3.254zm-16.51 4.534c-.99-2.555-1.496-4.32-1.743-5.525 1.37 1.319 3.03 3.279 4.858 5.725l-2.463 1.424a82.337 82.337 0 01-.652-1.624zm-1.51 26.682l3.082 1.779-4.1 7.1-3.08-1.778 4.098-7.101zm.341 16.165a1.923 1.923 0 01-2.624.704l-3.928-2.27a1.924 1.924 0 01-.704-2.623l1.852-3.207 7.256 4.188-1.852 3.208zm2.815-4.876l-3.082-1.778 4.1-7.1 3.081 1.777-4.099 7.1zm15.16-8.391l2.478-1.431c1.217 2.814 2.098 5.245 2.576 7.116-.926-.81-2.236-2.146-4.023-4.368a78.629 78.629 0 01-1.032-1.317zm-6.649-.68L84.89 41.41v-3.306l16.08-9.285-3.85-2.224-12.23 7.062v-6.372l12.23-7.062 12.23 7.062v3.307l-16.08 9.285 3.85 2.223 12.23-7.062v6.372l-12.23 7.062z"/><path fill="#FFF" d="M85.44 10.692l-.07-.027.07.027M85.778 10.842l-.077-.038.077.038M85.13 10.593l-.065-.015.065.015M85.605 10.759l-.075-.032.075.032M85.955 10.938l-.079-.044.08.044M85.282 10.635l-.069-.021.07.02M92.366 17.463l-.103-.133.103.133M90.234 14.868l-.104-.118.104.118M86.14 11.045l-.082-.05.081.05M89.96 14.555l-.105-.117.104.117M90.793 15.519l-.084-.1.084.1M89.688 14.254l-.105-.115.105.115M91.71 16.632l-.04-.052.04.052M91.08 15.86l-.059-.068.058.069M92.68 17.868l-.113-.148.112.148M92.893 18.147l-.022-.03.022.03M92.047 17.055l-.082-.104.082.104M89.424 13.964l-.107-.114.107.114M90.511 15.188l-.097-.113.097.113M89.161 13.684l-.104-.11.104.11M86.727 11.446l-.077-.057.077.057M86.33 11.166l-.08-.053.08.053M87.15 11.775l-.043-.034.042.034M86.526 11.299l-.08-.055.08.055M86.935 11.604l-.069-.053.07.053M88.398 12.907l-.094-.093.094.093M88.152 12.667l-.09-.085.09.085M87.908 12.439l-.08-.075.08.075M87.66 12.213l-.063-.057.063.057M88.903 13.415l-.104-.106.104.106M109.736 57.034l.078.038-.078-.038M109.556 56.939l.08.044-.08-.044M108.107 55.887l.035.03-.035-.03M109.906 57.117l.076.032-.076-.032M110.23 57.242l.068.02-.068-.02M110.072 57.186l.072.027-.072-.027M108.986 56.576l.084.057-.084-.057M108.363 56.1l.055.044-.055-.044M108.576 56.272l.076.059-.076-.06M84.983 10.565l-.06-.008.06.008M110.385 57.284l.062.014-.062-.014M109.181 56.709l.084.055-.084-.055M109.373 56.83l.082.05-.082-.05M110.724 57.327l-.053-.002.053.002M111.724 56.277c-.08.456-.254.772-.525.933l-.002.002c.274-.161.447-.478.527-.935M106.967 54.825l-.109-.111.11.11M111.051 57.276l.037-.012-.037.012M110.926 57.309l.05-.01-.05.01M110.797 57.325l.057-.003-.057.003M110.531 57.312l.06.008-.06-.008M108.783 56.43l.084.06-.084-.06M102.822 49.994l.127.166-.127-.166M88.551 13.056l.098.099-.098-.1M83.737 12.176c.015-.774.203-1.294.581-1.512v-.001c-.378.219-.566.739-.58 1.513M84.788 10.549l.055.002-.055-.002M103.447 50.796l.104.132-.104-.132M103.771 51.203l.076.096-.076-.096M103.135 50.398l.12.15-.12-.15M84.592 10.567l-.054.01.054-.01M84.72 10.55l-.06.005.06-.004M84.32 10.662l.007-.003-.007.003M84.468 10.599l-.044.014.044-.014M107.353 55.2l.1.095-.1-.094M106.346 54.187l.117.12-.117-.12M106.086 53.907l.115.125-.115-.125M105.82 53.617l.117.129-.117-.13M107.105 54.96l.107.106-.107-.105M107.84 55.65l.078.07-.078-.07M107.596 55.43l.092.084-.092-.084M105.275 53.005l.117.132-.117-.132M105.55 53.315l.118.133-.119-.133M104.431 52.012l.088.104-.088-.104M104.715 52.353l.111.129-.11-.13M104.142 51.662l.006.006-.006-.006M104.996 52.684l.117.133-.117-.133M106.603 54.455l.113.116-.113-.116"/><path fill="#3E466E" d="M77.83 14.556a1.128 1.128 0 10-2.253.073 1.128 1.128 0 002.252-.073M78.518 17.4a.656.656 0 10-1.31.044.656.656 0 001.31-.043M91.604 8.725a.657.657 0 10-.043-1.313.657.657 0 00.043 1.313M100.25 57.659a.654.654 0 10.045 1.31.655.655 0 10-.045-1.31M117.82 56.787a1.116 1.116 0 00.074 2.233 1.117 1.117 0 10-.074-2.233M117.01 55.617a.656.656 0 10-.041-1.312.656.656 0 00.041 1.312"/><path fill="#FFF" d="M109.35 35.039L97.12 42.1l-3.852-2.223 16.081-9.285v-3.307l-12.23-7.062-12.23 7.062v6.372l12.23-7.062 3.85 2.224-16.08 9.285v3.306l12.23 7.062 12.23-7.062v-6.372"/></svg>
