<?xml version="1.0" standalone="no"?>
<!DOCTYPE svg PUBLIC "-//W3C//DTD SVG 20010904//EN"
 "http://www.w3.org/TR/2001/REC-SVG-20010904/DTD/svg10.dtd">
<svg version="1.0" xmlns="http://www.w3.org/2000/svg"
 width="1500.000000pt" height="1500.000000pt" viewBox="0 0 1500.000000 1500.000000"
 preserveAspectRatio="xMidYMid meet">
<metadata>
Created by potrace 1.11, written by Peter Selinger 2001-2013
</metadata>
<g transform="translate(0.000000,1500.000000) scale(0.100000,-0.100000)"
fill="#000000" stroke="none">
<path d="M7219 14996 c-2 -2 -49 -6 -104 -10 -55 -3 -111 -8 -125 -10 -14 -3
-52 -7 -85 -11 -110 -12 -161 -20 -330 -51 -33 -6 -211 -43 -235 -49 -798
-200 -1487 -555 -2100 -1081 -113 -97 -372 -350 -460 -449 -138 -156 -306
-371 -411 -525 -214 -315 -347 -565 -524 -985 -103 -243 -246 -764 -280 -1015
-3 -19 -7 -48 -10 -65 -10 -59 -14 -91 -20 -150 -4 -33 -8 -71 -11 -85 -19
-117 -26 -715 -11 -895 13 -145 23 -238 32 -299 3 -21 15 -105 20 -141 10 -69
42 -224 76 -365 115 -476 310 -950 571 -1384 314 -523 692 -952 1209 -1369 71
-57 328 -236 434 -302 239 -150 408 -231 695 -337 221 -81 383 -169 530 -287
231 -186 422 -459 514 -734 37 -110 47 -152 65 -257 22 -125 31 -368 17 -435
-2 -11 -7 -45 -11 -75 -39 -302 -202 -641 -417 -865 -157 -165 -296 -426 -363
-680 -45 -171 -63 -435 -41 -625 10 -95 57 -283 95 -380 199 -516 621 -895
1149 -1030 43 -11 96 -22 118 -25 21 -4 50 -9 64 -12 44 -10 373 -11 430 -2
30 5 73 11 95 14 22 4 75 15 117 26 335 84 639 277 870 550 45 54 158 212 158
222 0 3 15 31 33 64 88 155 162 393 185 593 9 74 8 346 -1 385 -2 11 -7 41
-11 66 -23 156 -70 306 -148 467 -72 149 -149 262 -263 384 -82 89 -193 253
-255 378 -50 103 -112 283 -129 376 -6 33 -13 69 -16 82 -17 88 -23 339 -10
419 3 21 8 56 11 78 21 171 111 420 215 595 138 232 383 463 629 592 77 41
253 115 290 123 39 8 260 104 385 166 255 128 625 376 855 572 584 499 1030
1083 1335 1748 230 501 377 1042 431 1584 26 265 26 813 0 1020 -2 17 -7 55
-10 86 -4 31 -8 65 -10 75 -2 11 -7 42 -10 69 -33 237 -92 494 -178 770 -27
86 -127 358 -160 435 -6 14 -12 27 -13 30 -21 65 -205 426 -285 560 -128 213
-313 477 -452 645 -146 175 -391 429 -543 560 -44 39 -82 72 -85 75 -3 3 -39
32 -80 66 -509 411 -1109 727 -1735 913 -166 49 -378 98 -565 130 -109 19
-146 24 -250 36 -25 3 -64 8 -88 11 -23 3 -66 8 -95 10 -62 6 -693 14 -698 10z
m441 -2730 c52 -4 106 -8 120 -10 14 -3 59 -10 100 -16 349 -54 747 -232 1025
-456 89 -73 100 -82 184 -164 66 -64 107 -110 221 -246 54 -66 171 -257 230
-379 77 -158 129 -301 165 -449 51 -212 60 -295 60 -546 0 -210 -6 -296 -30
-410 -8 -37 -16 -78 -19 -92 -2 -14 -14 -61 -26 -104 -232 -828 -913 -1458
-1753 -1623 -56 -11 -127 -23 -157 -26 -30 -3 -71 -8 -90 -10 -43 -5 -334 -5
-375 0 -16 2 -61 7 -100 10 -38 4 -72 8 -75 10 -3 2 -26 6 -50 10 -112 16
-319 78 -460 137 -351 148 -656 376 -890 665 -82 102 -170 227 -170 242 0 6
-4 11 -9 11 -18 0 -171 328 -215 460 -47 139 -91 337 -102 450 -3 36 -7 76
-10 90 -6 32 -5 312 1 365 3 22 7 58 9 80 12 102 19 146 38 225 11 47 21 92
23 101 15 73 98 290 155 405 184 373 463 688 810 914 174 113 464 242 645 286
33 8 69 17 80 20 11 3 31 7 45 10 147 28 180 32 310 40 52 4 96 7 97 8 3 2
123 -2 213 -8z"/>
</g>
</svg>
