<svg xmlns="http://www.w3.org/2000/svg" width="325" height="193" viewBox="0 0 325 193"><g><g><path fill="none" stroke="#4831d4" stroke-miterlimit="50" stroke-width="2" d="M17.053 9.57a7.891 7.891 0 1 1-15.782 0 7.891 7.891 0 0 1 15.782 0z"/></g><g><path fill="none" stroke="#4831d4" stroke-miterlimit="50" stroke-width="2" d="M45.122 9.57a7.891 7.891 0 1 1-15.782 0 7.891 7.891 0 0 1 15.782 0z"/></g><g><path fill="none" stroke="#4831d4" stroke-miterlimit="50" stroke-width="2" d="M73.19 9.57a7.891 7.891 0 1 1-15.781 0 7.891 7.891 0 0 1 15.782 0z"/></g><g><path fill="none" stroke="#4831d4" stroke-miterlimit="50" stroke-width="2" d="M101.26 9.57a7.891 7.891 0 1 1-15.782 0 7.891 7.891 0 0 1 15.782 0z"/></g><g><path fill="none" stroke="#4831d4" stroke-miterlimit="50" stroke-width="2" d="M129.329 9.57a7.891 7.891 0 1 1-15.783 0 7.891 7.891 0 0 1 15.783 0z"/></g><g><path fill="none" stroke="#4831d4" stroke-miterlimit="50" stroke-width="2" d="M238.083 103.963v0l-.561 22.259v0l22.259-.561v0l-.561 22.258v0l22.259-.56v0l-.561 22.258v0l22.259-.56v0l-.559 22.26v0l22.26-.56v0"/></g></g></svg>