<svg xmlns="http://www.w3.org/2000/svg" width="523" height="214" viewBox="0 0 523 214"><g><g><path fill="#4831d4" d="M313.651 20.388a1.5 1.5 0 1 1-3 0 1.5 1.5 0 0 1 3 0z"/></g><g><path fill="#4831d4" d="M332.62 20.388a1.5 1.5 0 1 1-3.002 0 1.5 1.5 0 0 1 3.001 0z"/></g><g><path fill="#4831d4" d="M351.587 20.388a1.5 1.5 0 1 1-3.001 0 1.5 1.5 0 0 1 3 0z"/></g><g><path fill="#4831d4" d="M370.555 20.388a1.5 1.5 0 1 1-3.001 0 1.5 1.5 0 0 1 3 0z"/></g><g><path fill="#4831d4" d="M389.522 20.388a1.5 1.5 0 1 1-3 0 1.5 1.5 0 0 1 3 0z"/></g><g><path fill="#4831d4" d="M408.49 20.388a1.5 1.5 0 1 1-3 0 1.5 1.5 0 0 1 3 0z"/></g><g><path fill="#4831d4" d="M427.458 20.388a1.5 1.5 0 1 1-3 0 1.5 1.5 0 0 1 3 0z"/></g><g><path fill="#4831d4" d="M446.427 20.388a1.5 1.5 0 1 1-3.001 0 1.5 1.5 0 0 1 3 0z"/></g><g><path fill="#4831d4" d="M465.394 20.388a1.5 1.5 0 1 1-3 0 1.5 1.5 0 0 1 3 0z"/></g><g><path fill="#4831d4" d="M484.362 20.388a1.5 1.5 0 1 1-3 0 1.5 1.5 0 0 1 3 0z"/></g><g><path fill="#4831d4" d="M503.33 20.388a1.5 1.5 0 1 1-3.001 0 1.5 1.5 0 0 1 3.001 0z"/></g><g><path fill="#4831d4" d="M522.298 20.388a1.5 1.5 0 1 1-3.001 0 1.5 1.5 0 0 1 3 0z"/></g><g><path fill="#4831d4" d="M313.651 39.611a1.5 1.5 0 1 1-3-.001 1.5 1.5 0 0 1 3 .001z"/></g><g><path fill="#4831d4" d="M332.62 39.611a1.5 1.5 0 1 1-3.002-.001 1.5 1.5 0 0 1 3.001.001z"/></g><g><path fill="#4831d4" d="M351.587 39.611a1.5 1.5 0 1 1-3.001-.001 1.5 1.5 0 0 1 3 .001z"/></g><g><path fill="#4831d4" d="M370.555 39.611a1.5 1.5 0 1 1-3.001-.001 1.5 1.5 0 0 1 3 .001z"/></g><g><path fill="#4831d4" d="M389.522 39.611a1.5 1.5 0 1 1-3 0 1.5 1.5 0 0 1 3 0z"/></g><g><path fill="#4831d4" d="M408.49 39.611a1.5 1.5 0 1 1-3 0 1.5 1.5 0 0 1 3 0z"/></g><g><path fill="#4831d4" d="M427.458 39.611a1.5 1.5 0 1 1-3 0 1.5 1.5 0 0 1 3 0z"/></g><g><path fill="#4831d4" d="M446.427 39.611a1.5 1.5 0 1 1-3.001-.001 1.5 1.5 0 0 1 3 .001z"/></g><g><path fill="#4831d4" d="M465.394 39.611a1.5 1.5 0 1 1-3-.001 1.5 1.5 0 0 1 3 .001z"/></g><g><path fill="#4831d4" d="M484.362 39.611a1.5 1.5 0 1 1-3-.001 1.5 1.5 0 0 1 3 .001z"/></g><g><path fill="#4831d4" d="M503.33 39.611a1.5 1.5 0 1 1-3.001-.001 1.5 1.5 0 0 1 3.001.001z"/></g><g><path fill="#4831d4" d="M522.298 39.611a1.5 1.5 0 1 1-3.001-.001 1.5 1.5 0 0 1 3 .001z"/></g><g><path fill="#4831d4" d="M313.651 58.834a1.5 1.5 0 1 1-3 0 1.5 1.5 0 0 1 3 0z"/></g><g><path fill="#4831d4" d="M332.62 58.834a1.5 1.5 0 1 1-3 0 1.5 1.5 0 0 1 3 0z"/></g><g><path fill="#4831d4" d="M351.587 58.834a1.5 1.5 0 1 1-3 0 1.5 1.5 0 0 1 3 0z"/></g><g><path fill="#4831d4" d="M370.555 58.834a1.5 1.5 0 1 1-3 0 1.5 1.5 0 0 1 3 0z"/></g><g><path fill="#4831d4" d="M389.522 58.834a1.5 1.5 0 1 1-2.998.001 1.5 1.5 0 0 1 2.998-.001z"/></g><g><path fill="#4831d4" d="M408.49 58.834a1.5 1.5 0 1 1-2.998.001 1.5 1.5 0 0 1 2.998-.001z"/></g><g><path fill="#4831d4" d="M427.458 58.834a1.5 1.5 0 1 1-2.999.001 1.5 1.5 0 0 1 2.999-.001z"/></g><g><path fill="#4831d4" d="M446.427 58.834a1.5 1.5 0 1 1-3 0 1.5 1.5 0 0 1 3 0z"/></g><g><path fill="#4831d4" d="M465.394 58.834a1.5 1.5 0 1 1-3 0 1.5 1.5 0 0 1 3 0z"/></g><g><path fill="#4831d4" d="M484.362 58.834a1.5 1.5 0 1 1-3 0 1.5 1.5 0 0 1 3 0z"/></g><g><path fill="#4831d4" d="M503.33 58.834a1.5 1.5 0 1 1-3 0 1.5 1.5 0 0 1 3 0z"/></g><g><path fill="#4831d4" d="M522.298 58.834a1.5 1.5 0 1 1-3 0 1.5 1.5 0 0 1 3 0z"/></g><g><path fill="#4831d4" d="M313.651 78.057a1.5 1.5 0 1 1-3 0 1.5 1.5 0 0 1 3 0z"/></g><g><path fill="#4831d4" d="M332.62 78.057a1.5 1.5 0 1 1-3.002 0 1.5 1.5 0 0 1 3.001 0z"/></g><g><path fill="#4831d4" d="M351.587 78.057a1.5 1.5 0 1 1-3.001 0 1.5 1.5 0 0 1 3 0z"/></g><g><path fill="#4831d4" d="M370.555 78.057a1.5 1.5 0 1 1-3.001 0 1.5 1.5 0 0 1 3 0z"/></g><g><path fill="#4831d4" d="M389.522 78.057a1.5 1.5 0 1 1-3 0 1.5 1.5 0 0 1 3 0z"/></g><g><path fill="#4831d4" d="M408.49 78.057a1.5 1.5 0 1 1-3 0 1.5 1.5 0 0 1 3 0z"/></g><g><path fill="#4831d4" d="M427.458 78.057a1.5 1.5 0 1 1-3 0 1.5 1.5 0 0 1 3 0z"/></g><g><path fill="#4831d4" d="M446.427 78.057a1.5 1.5 0 1 1-3.001 0 1.5 1.5 0 0 1 3 0z"/></g><g><path fill="#4831d4" d="M465.394 78.057a1.5 1.5 0 1 1-3 0 1.5 1.5 0 0 1 3 0z"/></g><g><path fill="#4831d4" d="M484.362 78.057a1.5 1.5 0 1 1-3 0 1.5 1.5 0 0 1 3 0z"/></g><g><path fill="#4831d4" d="M503.33 78.057a1.5 1.5 0 1 1-3.001 0 1.5 1.5 0 0 1 3.001 0z"/></g><g><path fill="#4831d4" d="M522.298 78.057a1.5 1.5 0 1 1-3.001 0 1.5 1.5 0 0 1 3 0z"/></g><g><path fill="#4831d4" d="M313.651 97.28a1.5 1.5 0 1 1-3 0 1.5 1.5 0 0 1 3 0z"/></g><g><path fill="#4831d4" d="M332.62 97.28a1.5 1.5 0 1 1-3 0 1.5 1.5 0 0 1 3 0z"/></g><g><path fill="#4831d4" d="M351.587 97.28a1.5 1.5 0 1 1-3 0 1.5 1.5 0 0 1 3 0z"/></g><g><path fill="#4831d4" d="M370.555 97.28a1.5 1.5 0 1 1-3 0 1.5 1.5 0 0 1 3 0z"/></g><g><path fill="#4831d4" d="M389.522 97.28a1.5 1.5 0 1 1-2.998.001 1.5 1.5 0 0 1 2.998-.001z"/></g><g><path fill="#4831d4" d="M408.49 97.28a1.5 1.5 0 1 1-2.998.001 1.5 1.5 0 0 1 2.998-.001z"/></g><g><path fill="#4831d4" d="M427.458 97.28a1.5 1.5 0 1 1-2.999.001 1.5 1.5 0 0 1 2.999-.001z"/></g><g><path fill="#4831d4" d="M446.427 97.28a1.5 1.5 0 1 1-3 0 1.5 1.5 0 0 1 3 0z"/></g><g><path fill="#4831d4" d="M465.394 97.28a1.5 1.5 0 1 1-3 0 1.5 1.5 0 0 1 3 0z"/></g><g><path fill="#4831d4" d="M484.362 97.28a1.5 1.5 0 1 1-3 0 1.5 1.5 0 0 1 3 0z"/></g><g><path fill="#4831d4" d="M503.33 97.28a1.5 1.5 0 1 1-3 0 1.5 1.5 0 0 1 3 0z"/></g><g><path fill="#4831d4" d="M522.298 97.28a1.5 1.5 0 1 1-3 0 1.5 1.5 0 0 1 3 0z"/></g><g><path fill="#4831d4" d="M313.651 116.504a1.5 1.5 0 1 1-3-.001 1.5 1.5 0 0 1 3 0z"/></g><g><path fill="#4831d4" d="M332.62 116.504a1.5 1.5 0 1 1-3.002-.001 1.5 1.5 0 0 1 3.001 0z"/></g><g><path fill="#4831d4" d="M351.587 116.504a1.5 1.5 0 1 1-3.001-.001 1.5 1.5 0 0 1 3 0z"/></g><g><path fill="#4831d4" d="M370.555 116.504a1.5 1.5 0 1 1-3.001-.001 1.5 1.5 0 0 1 3 0z"/></g><g><path fill="#4831d4" d="M389.522 116.504a1.5 1.5 0 1 1-3 0 1.5 1.5 0 0 1 3 0z"/></g><g><path fill="#4831d4" d="M408.49 116.504a1.5 1.5 0 1 1-3 0 1.5 1.5 0 0 1 3 0z"/></g><g><path fill="#4831d4" d="M427.458 116.504a1.5 1.5 0 1 1-3 0 1.5 1.5 0 0 1 3 0z"/></g><g><path fill="#4831d4" d="M446.427 116.504a1.5 1.5 0 1 1-3.001-.001 1.5 1.5 0 0 1 3 0z"/></g><g><path fill="#4831d4" d="M465.394 116.504a1.5 1.5 0 1 1-3-.001 1.5 1.5 0 0 1 3 0z"/></g><g><path fill="#4831d4" d="M484.362 116.504a1.5 1.5 0 1 1-3-.001 1.5 1.5 0 0 1 3 0z"/></g><g><path fill="#4831d4" d="M503.33 116.504a1.5 1.5 0 1 1-3.001-.001 1.5 1.5 0 0 1 3.001 0z"/></g><g><path fill="#4831d4" d="M522.298 116.504a1.5 1.5 0 1 1-3.001-.001 1.5 1.5 0 0 1 3 0z"/></g><g><path fill="#4831d4" d="M313.651 135.726a1.5 1.5 0 1 1-3 0 1.5 1.5 0 0 1 3 0z"/></g><g><path fill="#4831d4" d="M332.62 135.726a1.5 1.5 0 1 1-3.002 0 1.5 1.5 0 0 1 3.001 0z"/></g><g><path fill="#4831d4" d="M351.587 135.726a1.5 1.5 0 1 1-3.001 0 1.5 1.5 0 0 1 3 0z"/></g><g><path fill="#4831d4" d="M370.555 135.726a1.5 1.5 0 1 1-3.001 0 1.5 1.5 0 0 1 3 0z"/></g><g><path fill="#4831d4" d="M389.522 135.726a1.5 1.5 0 1 1-3 0 1.5 1.5 0 0 1 3 0z"/></g><g><path fill="#4831d4" d="M408.49 135.726a1.5 1.5 0 1 1-3 0 1.5 1.5 0 0 1 3 0z"/></g><g><path fill="#4831d4" d="M427.458 135.726a1.5 1.5 0 1 1-3 0 1.5 1.5 0 0 1 3 0z"/></g><g><path fill="#4831d4" d="M446.427 135.726a1.5 1.5 0 1 1-3.001 0 1.5 1.5 0 0 1 3 0z"/></g><g><path fill="#4831d4" d="M465.394 135.726a1.5 1.5 0 1 1-3 0 1.5 1.5 0 0 1 3 0z"/></g><g><path fill="#4831d4" d="M484.362 135.726a1.5 1.5 0 1 1-3 0 1.5 1.5 0 0 1 3 0z"/></g><g><path fill="#4831d4" d="M503.33 135.726a1.5 1.5 0 1 1-3.001 0 1.5 1.5 0 0 1 3.001 0z"/></g><g><path fill="#4831d4" d="M522.298 135.726a1.5 1.5 0 1 1-3.001 0 1.5 1.5 0 0 1 3 0z"/></g><g><path fill="#4831d4" d="M313.651 154.95a1.5 1.5 0 1 1-3-.001 1.5 1.5 0 0 1 3 0z"/></g><g><path fill="#4831d4" d="M332.62 154.95a1.5 1.5 0 1 1-3.002-.001 1.5 1.5 0 0 1 3.001 0z"/></g><g><path fill="#4831d4" d="M351.587 154.95a1.5 1.5 0 1 1-3.001-.001 1.5 1.5 0 0 1 3 0z"/></g><g><path fill="#4831d4" d="M370.555 154.95a1.5 1.5 0 1 1-3.001-.001 1.5 1.5 0 0 1 3 0z"/></g><g><path fill="#4831d4" d="M389.522 154.95a1.5 1.5 0 1 1-3 0 1.5 1.5 0 0 1 3 0z"/></g><g><path fill="#4831d4" d="M408.49 154.95a1.5 1.5 0 1 1-3 0 1.5 1.5 0 0 1 3 0z"/></g><g><path fill="#4831d4" d="M427.458 154.95a1.5 1.5 0 1 1-3 0 1.5 1.5 0 0 1 3 0z"/></g><g><path fill="#4831d4" d="M446.427 154.95a1.5 1.5 0 1 1-3.001-.001 1.5 1.5 0 0 1 3 0z"/></g><g><path fill="#4831d4" d="M465.394 154.95a1.5 1.5 0 1 1-3-.001 1.5 1.5 0 0 1 3 0z"/></g><g><path fill="#4831d4" d="M484.362 154.95a1.5 1.5 0 1 1-3-.001 1.5 1.5 0 0 1 3 0z"/></g><g><path fill="#4831d4" d="M503.33 154.95a1.5 1.5 0 1 1-3.001-.001 1.5 1.5 0 0 1 3.001 0z"/></g><g><path fill="#4831d4" d="M522.298 154.95a1.5 1.5 0 1 1-3.001-.001 1.5 1.5 0 0 1 3 0z"/></g><g><path fill="#4831d4" d="M313.651 174.173a1.5 1.5 0 1 1-3-.002 1.5 1.5 0 0 1 3 .002z"/></g><g><path fill="#4831d4" d="M332.62 174.173a1.5 1.5 0 1 1-3.002-.002 1.5 1.5 0 0 1 3.001.002z"/></g><g><path fill="#4831d4" d="M351.587 174.173a1.5 1.5 0 1 1-3.001-.002 1.5 1.5 0 0 1 3 .002z"/></g><g><path fill="#4831d4" d="M370.555 174.173a1.5 1.5 0 1 1-3.001-.002 1.5 1.5 0 0 1 3 .002z"/></g><g><path fill="#4831d4" d="M389.522 174.173a1.5 1.5 0 1 1-3 0 1.5 1.5 0 0 1 3 0z"/></g><g><path fill="#4831d4" d="M408.49 174.173a1.5 1.5 0 1 1-3 0 1.5 1.5 0 0 1 3 0z"/></g><g><path fill="#4831d4" d="M427.458 174.173a1.5 1.5 0 1 1-3 0 1.5 1.5 0 0 1 3 0z"/></g><g><path fill="#4831d4" d="M446.427 174.173a1.5 1.5 0 1 1-3.001-.002 1.5 1.5 0 0 1 3 .002z"/></g><g><path fill="#4831d4" d="M465.394 174.173a1.5 1.5 0 1 1-3-.002 1.5 1.5 0 0 1 3 .002z"/></g><g><path fill="#4831d4" d="M484.362 174.173a1.5 1.5 0 1 1-3-.002 1.5 1.5 0 0 1 3 .002z"/></g><g><path fill="#4831d4" d="M503.33 174.173a1.5 1.5 0 1 1-3.001-.002 1.5 1.5 0 0 1 3.001.002z"/></g><g><path fill="#4831d4" d="M522.298 174.173a1.5 1.5 0 1 1-3.001-.002 1.5 1.5 0 0 1 3 .002z"/></g><g><path fill="#4831d4" d="M313.651 193.395a1.5 1.5 0 1 1-3 0 1.5 1.5 0 0 1 3 0z"/></g><g><path fill="#4831d4" d="M332.62 193.395a1.5 1.5 0 1 1-3 0 1.5 1.5 0 0 1 3 0z"/></g><g><path fill="#4831d4" d="M351.587 193.395a1.5 1.5 0 1 1-3 0 1.5 1.5 0 0 1 3 0z"/></g><g><path fill="#4831d4" d="M370.555 193.395a1.5 1.5 0 1 1-3 0 1.5 1.5 0 0 1 3 0z"/></g><g><path fill="#4831d4" d="M389.522 193.395a1.5 1.5 0 1 1-2.998.002 1.5 1.5 0 0 1 2.998-.002z"/></g><g><path fill="#4831d4" d="M408.49 193.395a1.5 1.5 0 1 1-2.998.002 1.5 1.5 0 0 1 2.998-.002z"/></g><g><path fill="#4831d4" d="M427.458 193.395a1.5 1.5 0 1 1-2.999.002 1.5 1.5 0 0 1 2.999-.002z"/></g><g><path fill="#4831d4" d="M446.427 193.395a1.5 1.5 0 1 1-3 0 1.5 1.5 0 0 1 3 0z"/></g><g><path fill="#4831d4" d="M465.394 193.395a1.5 1.5 0 1 1-3 0 1.5 1.5 0 0 1 3 0z"/></g><g><path fill="#4831d4" d="M484.362 193.395a1.5 1.5 0 1 1-3 0 1.5 1.5 0 0 1 3 0z"/></g><g><path fill="#4831d4" d="M503.33 193.395a1.5 1.5 0 1 1-3 0 1.5 1.5 0 0 1 3 0z"/></g><g><path fill="#4831d4" d="M522.298 193.395a1.5 1.5 0 1 1-3 0 1.5 1.5 0 0 1 3 0z"/></g><g><path fill="#4831d4" d="M313.651 212.619a1.5 1.5 0 1 1-3-.001 1.5 1.5 0 0 1 3 0z"/></g><g><path fill="#4831d4" d="M332.62 212.619a1.5 1.5 0 1 1-3.002-.001 1.5 1.5 0 0 1 3.001 0z"/></g><g><path fill="#4831d4" d="M351.587 212.619a1.5 1.5 0 1 1-3.001-.001 1.5 1.5 0 0 1 3 0z"/></g><g><path fill="#4831d4" d="M370.555 212.619a1.5 1.5 0 1 1-3.001-.001 1.5 1.5 0 0 1 3 0z"/></g><g><path fill="#4831d4" d="M389.522 212.619a1.5 1.5 0 1 1-3 0 1.5 1.5 0 0 1 3 0z"/></g><g><path fill="#4831d4" d="M408.49 212.619a1.5 1.5 0 1 1-3 0 1.5 1.5 0 0 1 3 0z"/></g><g><path fill="#4831d4" d="M427.458 212.619a1.5 1.5 0 1 1-3 0 1.5 1.5 0 0 1 3 0z"/></g><g><path fill="#4831d4" d="M446.427 212.619a1.5 1.5 0 1 1-3.001-.001 1.5 1.5 0 0 1 3 0z"/></g><g><path fill="#4831d4" d="M465.394 212.619a1.5 1.5 0 1 1-3-.001 1.5 1.5 0 0 1 3 0z"/></g><g><path fill="#4831d4" d="M484.362 212.619a1.5 1.5 0 1 1-3-.001 1.5 1.5 0 0 1 3 0z"/></g><g><path fill="#4831d4" d="M503.33 212.619a1.5 1.5 0 1 1-3.001-.001 1.5 1.5 0 0 1 3.001 0z"/></g><g><path fill="#4831d4" d="M522.298 212.619a1.5 1.5 0 1 1-3.001-.001 1.5 1.5 0 0 1 3 0z"/></g><g><path fill="none" stroke="#4831d4" stroke-miterlimit="50" stroke-width="2" d="M16.753 9.614a7.891 7.891 0 1 1-15.782 0 7.891 7.891 0 0 1 15.782 0z"/></g><g><path fill="none" stroke="#4831d4" stroke-miterlimit="50" stroke-width="2" d="M44.822 9.614a7.892 7.892 0 1 1-15.784-.002 7.892 7.892 0 0 1 15.784.002z"/></g><g><path fill="none" stroke="#4831d4" stroke-miterlimit="50" stroke-width="2" d="M72.89 9.614a7.891 7.891 0 1 1-15.782 0 7.891 7.891 0 0 1 15.783 0z"/></g><g><path fill="none" stroke="#4831d4" stroke-miterlimit="50" stroke-width="2" d="M100.96 9.614a7.892 7.892 0 1 1-15.783-.002 7.892 7.892 0 0 1 15.783.002z"/></g><g><path fill="none" stroke="#4831d4" stroke-miterlimit="50" stroke-width="2" d="M129.028 9.614a7.891 7.891 0 1 1-15.782 0 7.891 7.891 0 0 1 15.782 0z"/></g></g></svg>