<svg width="1003" height="722" xmlns="http://www.w3.org/2000/svg" xmlns:xlink="http://www.w3.org/1999/xlink" viewBox="0 0 1003 722"><path fill="none" stroke="#4831D4" stroke-width="2" stroke-miterlimit="50" d="M438.8 420.9h-36M420.8 438.9v-36M239.2 15.7c0 4.4-3.6 7.9-8 7.8-4.3 0-7.8-3.5-7.8-7.8 0-4.4 3.5-7.9 7.9-7.9s7.9 3.5 7.9 7.9h0zM267.3 15.7c0 4.4-3.5 7.9-7.9 7.9s-7.9-3.5-7.9-7.9h0c0-4.4 3.5-7.9 7.9-7.9 4.3 0 7.8 3.6 7.9 7.9zM295.3 15.7c0 4.4-3.6 7.9-8 7.8-4.3 0-7.8-3.5-7.8-7.8 0-4.4 3.5-7.9 7.9-7.9s7.9 3.5 7.9 7.9h0zM323.4 15.7c0 4.4-3.5 7.9-7.9 7.9s-7.9-3.5-7.9-7.9 3.5-7.9 7.9-7.9 7.9 3.6 7.9 7.9zM351.5 15.7c0 4.4-3.6 7.9-8 7.8-4.3 0-7.8-3.5-7.8-7.8 0-4.4 3.5-7.9 7.9-7.9s7.9 3.6 7.9 7.9zM684.4 712.7c0 4.4-3.5 7.9-7.9 7.9s-7.9-3.5-7.9-7.9h0c0-4.4 3.5-7.9 7.9-7.9 4.4.1 7.9 3.6 7.9 7.9zM712.5 712.7c0 4.4-3.5 7.9-7.9 7.9s-7.9-3.5-7.9-7.9h0c0-4.4 3.5-7.9 7.9-7.9s7.9 3.6 7.9 7.9h0zM740.5 712.7c0 4.4-3.5 7.9-7.9 7.9s-7.9-3.5-7.9-7.9h0c0-4.4 3.5-7.9 7.9-7.9 4.4.1 7.9 3.6 7.9 7.9zM768.6 712.7c0 4.4-3.5 7.9-7.9 7.9s-7.9-3.5-7.9-7.9h0c0-4.4 3.5-7.9 7.9-7.9s7.9 3.6 7.9 7.9h0zM796.7 712.7c0 4.4-3.5 7.9-7.9 7.9s-7.9-3.5-7.9-7.9h0c0-4.4 3.5-7.9 7.9-7.9 4.3.1 7.9 3.6 7.9 7.9zM717 298.8h0l22.3.6h0l-.6-22.3h0l22.3.6h0l-.6-22.3h0l22.3.6h0l-.6-22.3h0l22.3.6h0l-.6-22.3h0"/><path fill="#EFEFEF" d="M937.7 205.7c0 15.7-12.7 28.4-28.4 28.4s-28.4-12.7-28.4-28.4 12.7-28.4 28.4-28.4 28.4 12.7 28.4 28.4zM929 156.5h-39.5V-.1H929v156.6zM396.2 406c0 15.7-12.7 28.4-28.4 28.4s-28.4-12.7-28.4-28.4 12.7-28.4 28.4-28.4 28.4 12.7 28.4 28.4zM387.5 356.8H348V200.2h39.5v156.6zM80 531.8c-50.7 0-82.1-55.2-56.2-98.8 25.3-42.6 87-42.6 112.3 0 26 43.6-5.4 98.8-56.1 98.8zM571.8 179.7c-50.7 0-82.1-55.2-56.2-98.8 25.3-42.6 87-42.6 112.3 0 26 43.6-5.4 98.8-56.1 98.8zM937.1 579c-50.7 0-82.1-55.2-56.2-98.8 25.3-42.6 87-42.6 112.3 0 26 43.6-5.4 98.8-56.1 98.8zM162.4 215.5c0 15.7-12.7 28.4-28.4 28.4s-28.4-12.7-28.4-28.4 12.7-28.4 28.4-28.4 28.4 12.7 28.4 28.4zM153.6 166.3h-39.5V9.7h39.5v156.6z"/><path fill="#3361C2" d="M601.1 80.6l.1 5.2"/><path fill="#432FC6" d="M740.6 59.6v164H601.2V26H707l33.6 33.6z"/><path fill="#C9784B" d="M601.1 127.7l-26.3 1.1s11-54 26.2-59.9l.1 29.9c5.3-4.4 10.9-8.4 12.9-7.3 3.8 2.1-12.9 36.2-12.9 36.2z"/><path fill="none" stroke="#FFF" stroke-width="1.5" stroke-linecap="square" stroke-miterlimit="50" d="M601 68.9s-13.5 1.4-26.2 59.2"/><path fill="#3D155F" d="M708.7 606l-.6 34.4c-.1 7.6 7.1 13.3 14.5 11.4l78.2-20.2c6.3-1.6 6.3-10.6 0-12.3l-36.2-9.5-55.9-3.8zM795.5 276.3l23.6 1.7c7.6.6 13.7-6.3 12.2-13.8l-13.8-69.6c-1.3-6.3-10-7-12.2-.9l-16.6 47 6.8 35.6zM463.3 361.7l12.3 42.8 68.5-18.9 18.1 55.5-106.9 44.4c-20.3 8.4-43.2-3.7-47.7-25.1-11.4-55-19.3-149.5 55-165.6 19.6-4.3 70.1-85.1 70.1-85.1L546 131l58.2-5.9-6.9 96.6c-.7 10.3-4.3 20.2-10.4 28.6l-48.8 67.4 43.8 74.2-112.4 64-6.2-94.2z"/><path fill="#CCF381" d="M571.8 427.2c1.1-1.1 13.9-74 22-120.9 4.1-23.6 21.4-42.6 44.5-48.8l146.4-39.4 23.6 73.2L677 335.9l-8 94.3-97.2-3z"/><path fill="#CCF381" d="M472.1 436.9l5.3 12.1c11.2 25.5 37.3 41.1 65 38.8l92.9-7.6L693 628.4s86.7-21.5 84.2-24.8c-1.8-2.4-41.6-111.1-65.4-176.3-10.2-28-38.6-45.2-68.1-41.3l-131.8 17.4-39.8 33.5z"/><path fill="#3D155F" d="M481.1 474.8l81.1-33.7-16.4-50.5-88.8 21.5 24.1 62.7z"/><defs><path id="a" d="M546.1 131l-13.3 78.6s-50.5 80.8-70.1 85.1c-74.3 16.1-66.5 110.6-55 165.6 4.5 21.5 27.4 33.6 47.7 25.1l25.8-10.7 81-33.7-10.4-32 30.2-17.2-43.8-74.2 48.8-67.4c6.1-8.4 9.7-18.3 10.4-28.6l6.9-96.6-58.2 6z"/></defs><clipPath id="b"><use xlink:href="#a" overflow="visible"/></clipPath><g clip-path="url(#b)"><path fill="#432FC6" d="M460.1 398.6c-.7 9.2-8.8 16-18 15.3s-16-8.8-15.3-18 8.8-16 18-15.3c9.2.7 16 8.8 15.3 18z"/></g><defs><path id="c" d="M546.1 131l-13.3 78.6s-50.5 80.8-70.1 85.1c-74.3 16.1-66.5 110.6-55 165.6 4.5 21.5 27.4 33.6 47.7 25.1l25.8-10.7 81-33.7-10.4-32 30.2-17.2-43.8-74.2 48.8-67.4c6.1-8.4 9.7-18.3 10.4-28.6l6.9-96.6-58.2 6z"/></defs><clipPath id="d"><use xlink:href="#c" overflow="visible"/></clipPath><g clip-path="url(#d)"><path fill="#432FC6" d="M527.2 404c-.7 9.2-8.8 16-18 15.3s-16-8.8-15.3-18 8.8-16 18-15.3c9.2.8 16.1 8.8 15.3 18z"/></g><defs><path id="e" d="M546.1 131l-13.3 78.6s-50.5 80.8-70.1 85.1c-74.3 16.1-66.5 110.6-55 165.6 4.5 21.5 27.4 33.6 47.7 25.1l25.8-10.7 81-33.7-10.4-32 30.2-17.2-43.8-74.2 48.8-67.4c6.1-8.4 9.7-18.3 10.4-28.6l6.9-96.6-58.2 6z"/></defs><clipPath id="f"><use xlink:href="#e" overflow="visible"/></clipPath><g clip-path="url(#f)"><path fill="#432FC6" d="M594.4 409.5c-.7 9.2-8.8 16-18 15.3s-16-8.8-15.3-18 8.8-16 18-15.3c9.2.7 16 8.8 15.3 18z"/></g><defs><path id="g" d="M546.1 131l-13.3 78.6s-50.5 80.8-70.1 85.1c-74.3 16.1-66.5 110.6-55 165.6 4.5 21.5 27.4 33.6 47.7 25.1l25.8-10.7 81-33.7-10.4-32 30.2-17.2-43.8-74.2 48.8-67.4c6.1-8.4 9.7-18.3 10.4-28.6l6.9-96.6-58.2 6z"/></defs><clipPath id="h"><use xlink:href="#g" overflow="visible"/></clipPath><g clip-path="url(#h)"><path fill="#432FC6" d="M497.4 354.9c-.7 9.2-8.8 16-18 15.3s-16-8.8-15.3-18 8.8-16 18-15.3c9.2.7 16.1 8.8 15.3 18z"/></g><defs><path id="i" d="M546.1 131l-13.3 78.6s-50.5 80.8-70.1 85.1c-74.3 16.1-66.5 110.6-55 165.6 4.5 21.5 27.4 33.6 47.7 25.1l25.8-10.7 81-33.7-10.4-32 30.2-17.2-43.8-74.2 48.8-67.4c6.1-8.4 9.7-18.3 10.4-28.6l6.9-96.6-58.2 6z"/></defs><clipPath id="j"><use xlink:href="#i" overflow="visible"/></clipPath><g clip-path="url(#j)"><path fill="#432FC6" d="M564.6 360.3c-.7 9.2-8.8 16-18 15.3s-16-8.8-15.3-18 8.8-16 18-15.3c9.2.8 16 8.8 15.3 18z"/></g><defs><path id="k" d="M546.1 131l-13.3 78.6s-50.5 80.8-70.1 85.1c-74.3 16.1-66.5 110.6-55 165.6 4.5 21.5 27.4 33.6 47.7 25.1l25.8-10.7 81-33.7-10.4-32 30.2-17.2-43.8-74.2 48.8-67.4c6.1-8.4 9.7-18.3 10.4-28.6l6.9-96.6-58.2 6z"/></defs><clipPath id="l"><use xlink:href="#k" overflow="visible"/></clipPath><g clip-path="url(#l)"><path fill="#432FC6" d="M631.7 365.8c-.7 9.2-8.8 16-18 15.3s-16-8.8-15.3-18 8.8-16 18-15.3c9.2.8 16.1 8.8 15.3 18z"/></g><defs><path id="m" d="M546.1 131l-13.3 78.6s-50.5 80.8-70.1 85.1c-74.3 16.1-66.5 110.6-55 165.6 4.5 21.5 27.4 33.6 47.7 25.1l25.8-10.7 81-33.7-10.4-32 30.2-17.2-43.8-74.2 48.8-67.4c6.1-8.4 9.7-18.3 10.4-28.6l6.9-96.6-58.2 6z"/></defs><clipPath id="n"><use xlink:href="#m" overflow="visible"/></clipPath><g clip-path="url(#n)"><path fill="#432FC6" d="M430.3 349.4c-.7 9.2-8.8 16-18 15.3s-16-8.8-15.3-18 8.8-16 18-15.3c9.2.8 16 8.8 15.3 18z"/></g><defs><path id="o" d="M546.1 131l-13.3 78.6s-50.5 80.8-70.1 85.1c-74.3 16.1-66.5 110.6-55 165.6 4.5 21.5 27.4 33.6 47.7 25.1l25.8-10.7 81-33.7-10.4-32 30.2-17.2-43.8-74.2 48.8-67.4c6.1-8.4 9.7-18.3 10.4-28.6l6.9-96.6-58.2 6z"/></defs><clipPath id="p"><use xlink:href="#o" overflow="visible"/></clipPath><g clip-path="url(#p)"><path fill="#432FC6" d="M489.7 447.7c-.7 9.2-8.8 16-18 15.3s-16-8.8-15.3-18 8.8-16 18-15.3c9.2.8 16.1 8.8 15.3 18z"/></g><defs><path id="q" d="M546.1 131l-13.3 78.6s-50.5 80.8-70.1 85.1c-74.3 16.1-66.5 110.6-55 165.6 4.5 21.5 27.4 33.6 47.7 25.1l25.8-10.7 81-33.7-10.4-32 30.2-17.2-43.8-74.2 48.8-67.4c6.1-8.4 9.7-18.3 10.4-28.6l6.9-96.6-58.2 6z"/></defs><clipPath id="r"><use xlink:href="#q" overflow="visible"/></clipPath><g clip-path="url(#r)"><path fill="#432FC6" d="M556.9 453.2c-.7 9.2-8.8 16-18 15.3s-16-8.8-15.3-18 8.8-16 18-15.3c9.2.7 16 8.8 15.3 18z"/></g><defs><path id="s" d="M546.1 131l-13.3 78.6s-50.5 80.8-70.1 85.1c-74.3 16.1-66.5 110.6-55 165.6 4.5 21.5 27.4 33.6 47.7 25.1l25.8-10.7 81-33.7-10.4-32 30.2-17.2-43.8-74.2 48.8-67.4c6.1-8.4 9.7-18.3 10.4-28.6l6.9-96.6-58.2 6z"/></defs><clipPath id="t"><use xlink:href="#s" overflow="visible"/></clipPath><g clip-path="url(#t)"><path fill="#432FC6" d="M624 458.6c-.7 9.2-8.8 16-18 15.3s-16-8.8-15.3-18 8.8-16 18-15.3c9.2.8 16.1 8.8 15.3 18z"/></g><defs><path id="u" d="M546.1 131l-13.3 78.6s-50.5 80.8-70.1 85.1c-74.3 16.1-66.5 110.6-55 165.6 4.5 21.5 27.4 33.6 47.7 25.1l25.8-10.7 81-33.7-10.4-32 30.2-17.2-43.8-74.2 48.8-67.4c6.1-8.4 9.7-18.3 10.4-28.6l6.9-96.6-58.2 6z"/></defs><clipPath id="v"><use xlink:href="#u" overflow="visible"/></clipPath><g clip-path="url(#v)"><path fill="#432FC6" d="M422.5 442.2c-.7 9.2-8.8 16-18 15.3s-16-8.8-15.3-18 8.8-16 18-15.3c9.3.8 16.1 8.8 15.3 18z"/></g><defs><path id="w" d="M546.1 131l-13.3 78.6s-50.5 80.8-70.1 85.1c-74.3 16.1-66.5 110.6-55 165.6 4.5 21.5 27.4 33.6 47.7 25.1l25.8-10.7 81-33.7-10.4-32 30.2-17.2-43.8-74.2 48.8-67.4c6.1-8.4 9.7-18.3 10.4-28.6l6.9-96.6-58.2 6z"/></defs><clipPath id="x"><use xlink:href="#w" overflow="visible"/></clipPath><g clip-path="url(#x)"><path fill="#432FC6" d="M475.4 212.9c-.7 9.2-8.8 16-18 15.3s-16-8.8-15.3-18 8.8-16 18-15.3c9.2.8 16 8.8 15.3 18z"/></g><defs><path id="y" d="M546.1 131l-13.3 78.6s-50.5 80.8-70.1 85.1c-74.3 16.1-66.5 110.6-55 165.6 4.5 21.5 27.4 33.6 47.7 25.1l25.8-10.7 81-33.7-10.4-32 30.2-17.2-43.8-74.2 48.8-67.4c6.1-8.4 9.7-18.3 10.4-28.6l6.9-96.6-58.2 6z"/></defs><clipPath id="z"><use xlink:href="#y" overflow="visible"/></clipPath><g clip-path="url(#z)"><path fill="#432FC6" d="M542.6 218.4c-.7 9.2-8.8 16-18 15.3s-16-8.8-15.3-18 8.8-16 18-15.3c9.2.7 16 8.8 15.3 18z"/></g><defs><path id="A" d="M546.1 131l-13.3 78.6s-50.5 80.8-70.1 85.1c-74.3 16.1-66.5 110.6-55 165.6 4.5 21.5 27.4 33.6 47.7 25.1l25.8-10.7 81-33.7-10.4-32 30.2-17.2-43.8-74.2 48.8-67.4c6.1-8.4 9.7-18.3 10.4-28.6l6.9-96.6-58.2 6z"/></defs><clipPath id="B"><use xlink:href="#A" overflow="visible"/></clipPath><g clip-path="url(#B)"><path fill="#432FC6" d="M609.7 223.8c-.7 9.2-8.8 16-18 15.3s-16-8.8-15.3-18 8.8-16 18-15.3c9.2.8 16.1 8.8 15.3 18z"/></g><defs><path id="C" d="M546.1 131l-13.3 78.6s-50.5 80.8-70.1 85.1c-74.3 16.1-66.5 110.6-55 165.6 4.5 21.5 27.4 33.6 47.7 25.1l25.8-10.7 81-33.7-10.4-32 30.2-17.2-43.8-74.2 48.8-67.4c6.1-8.4 9.7-18.3 10.4-28.6l6.9-96.6-58.2 6z"/></defs><clipPath id="D"><use xlink:href="#C" overflow="visible"/></clipPath><g clip-path="url(#D)"><path fill="#432FC6" d="M408.2 207.4c-.7 9.2-8.8 16-18 15.3s-16-8.8-15.3-18 8.8-16 18-15.3 16.1 8.9 15.3 18z"/></g><defs><path id="E" d="M546.1 131l-13.3 78.6s-50.5 80.8-70.1 85.1c-74.3 16.1-66.5 110.6-55 165.6 4.5 21.5 27.4 33.6 47.7 25.1l25.8-10.7 81-33.7-10.4-32 30.2-17.2-43.8-74.2 48.8-67.4c6.1-8.4 9.7-18.3 10.4-28.6l6.9-96.6-58.2 6z"/></defs><clipPath id="F"><use xlink:href="#E" overflow="visible"/></clipPath><g clip-path="url(#F)"><path fill="#432FC6" d="M505 262c-.7 9.2-8.8 16-18 15.3s-16-8.8-15.3-18c.7-9.2 8.8-16 18-15.3s16.1 8.9 15.3 18z"/></g><defs><path id="G" d="M546.1 131l-13.3 78.6s-50.5 80.8-70.1 85.1c-74.3 16.1-66.5 110.6-55 165.6 4.5 21.5 27.4 33.6 47.7 25.1l25.8-10.7 81-33.7-10.4-32 30.2-17.2-43.8-74.2 48.8-67.4c6.1-8.4 9.7-18.3 10.4-28.6l6.9-96.6-58.2 6z"/></defs><clipPath id="H"><use xlink:href="#G" overflow="visible"/></clipPath><g clip-path="url(#H)"><path fill="#432FC6" d="M572.2 267.5c-.7 9.2-8.8 16-18 15.3s-16-8.8-15.3-18c.7-9.2 8.8-16 18-15.3 9.2.8 16 8.8 15.3 18z"/></g><defs><path id="I" d="M546.1 131l-13.3 78.6s-50.5 80.8-70.1 85.1c-74.3 16.1-66.5 110.6-55 165.6 4.5 21.5 27.4 33.6 47.7 25.1l25.8-10.7 81-33.7-10.4-32 30.2-17.2-43.8-74.2 48.8-67.4c6.1-8.4 9.7-18.3 10.4-28.6l6.9-96.6-58.2 6z"/></defs><clipPath id="J"><use xlink:href="#I" overflow="visible"/></clipPath><g clip-path="url(#J)"><path fill="#432FC6" d="M437.9 256.6c-.7 9.2-8.8 16-18 15.3s-16-8.8-15.3-18c.7-9.2 8.8-16 18-15.3 9.2.7 16 8.8 15.3 18z"/></g><defs><path id="K" d="M546.1 131l-13.3 78.6s-50.5 80.8-70.1 85.1c-74.3 16.1-66.5 110.6-55 165.6 4.5 21.5 27.4 33.6 47.7 25.1l25.8-10.7 81-33.7-10.4-32 30.2-17.2-43.8-74.2 48.8-67.4c6.1-8.4 9.7-18.3 10.4-28.6l6.9-96.6-58.2 6z"/></defs><clipPath id="L"><use xlink:href="#K" overflow="visible"/></clipPath><g clip-path="url(#L)"><path fill="#432FC6" d="M512.8 169.2c-.7 9.2-8.8 16-18 15.3s-16-8.8-15.3-18 8.8-16 18-15.3c9.2.8 16.1 8.8 15.3 18z"/></g><defs><path id="M" d="M546.1 131l-13.3 78.6s-50.5 80.8-70.1 85.1c-74.3 16.1-66.5 110.6-55 165.6 4.5 21.5 27.4 33.6 47.7 25.1l25.8-10.7 81-33.7-10.4-32 30.2-17.2-43.8-74.2 48.8-67.4c6.1-8.4 9.7-18.3 10.4-28.6l6.9-96.6-58.2 6z"/></defs><clipPath id="N"><use xlink:href="#M" overflow="visible"/></clipPath><g clip-path="url(#N)"><path fill="#432FC6" d="M580 174.7c-.7 9.2-8.8 16-18 15.3s-16-8.8-15.3-18 8.8-16 18-15.3 16 8.8 15.3 18z"/></g><defs><path id="O" d="M546.1 131l-13.3 78.6s-50.5 80.8-70.1 85.1c-74.3 16.1-66.5 110.6-55 165.6 4.5 21.5 27.4 33.6 47.7 25.1l25.8-10.7 81-33.7-10.4-32 30.2-17.2-43.8-74.2 48.8-67.4c6.1-8.4 9.7-18.3 10.4-28.6l6.9-96.6-58.2 6z"/></defs><clipPath id="P"><use xlink:href="#O" overflow="visible"/></clipPath><g clip-path="url(#P)"><path fill="#432FC6" d="M445.7 163.8c-.7 9.2-8.8 16-18 15.3s-16-8.8-15.3-18 8.8-16 18-15.3c9.2.7 16 8.8 15.3 18z"/></g><defs><path id="Q" d="M546.1 131l-13.3 78.6s-50.5 80.8-70.1 85.1c-74.3 16.1-66.5 110.6-55 165.6 4.5 21.5 27.4 33.6 47.7 25.1l25.8-10.7 81-33.7-10.4-32 30.2-17.2-43.8-74.2 48.8-67.4c6.1-8.4 9.7-18.3 10.4-28.6l6.9-96.6-58.2 6z"/></defs><clipPath id="R"><use xlink:href="#Q" overflow="visible"/></clipPath><g clip-path="url(#R)"><path fill="#432FC6" d="M534.9 311.2c-.7 9.2-8.8 16-18 15.3s-16-8.8-15.3-18 8.8-16 18-15.3c9.2.8 16.1 8.8 15.3 18z"/></g><defs><path id="S" d="M546.1 131l-13.3 78.6s-50.5 80.8-70.1 85.1c-74.3 16.1-66.5 110.6-55 165.6 4.5 21.5 27.4 33.6 47.7 25.1l25.8-10.7 81-33.7-10.4-32 30.2-17.2-43.8-74.2 48.8-67.4c6.1-8.4 9.7-18.3 10.4-28.6l6.9-96.6-58.2 6z"/></defs><clipPath id="T"><use xlink:href="#S" overflow="visible"/></clipPath><g clip-path="url(#T)"><path fill="#432FC6" d="M602.1 316.7c-.7 9.2-8.8 16-18 15.3s-16-8.8-15.3-18 8.8-16 18-15.3c9.2.7 16 8.8 15.3 18z"/></g><defs><path id="U" d="M546.1 131l-13.3 78.6s-50.5 80.8-70.1 85.1c-74.3 16.1-66.5 110.6-55 165.6 4.5 21.5 27.4 33.6 47.7 25.1l25.8-10.7 81-33.7-10.4-32 30.2-17.2-43.8-74.2 48.8-67.4c6.1-8.4 9.7-18.3 10.4-28.6l6.9-96.6-58.2 6z"/></defs><clipPath id="V"><use xlink:href="#U" overflow="visible"/></clipPath><g clip-path="url(#V)"><path fill="#432FC6" d="M400.6 300.3c-.7 9.2-8.8 16-18 15.3s-16-8.8-15.3-18 8.8-16 18-15.3c9.2.7 16.1 8.8 15.3 18z"/></g><path fill="#3D155F" d="M463 319.3c-.7 0-1.4 0-2.1-.1-9.6-1.1-16.4-9.8-15.3-19.4l7.6-64.6c1.1-9.6 9.8-16.4 19.4-15.3 9.6 1.1 16.4 9.8 15.3 19.4l-7.6 64.7c-1.1 8.8-8.6 15.3-17.3 15.3z"/><path fill="none" stroke="#FFF" stroke-width="1.5" stroke-linecap="square" stroke-miterlimit="50" d="M646.1 481h0l-12.7-1.3h0l4.2-16h0M458.7 409.6l11.4-2.9"/><path fill="#C9784B" d="M554.1 417c0-.1 23.8-21.8 23.8-21.8l28.2-5.9s-23.2-22.3-58.8 6.3l6.8 21.4z"/><path fill="none" stroke="#FFF" stroke-width="1.5" stroke-linecap="square" stroke-miterlimit="50" d="M677.9 322.8h0l1.8 14.7h0l-18.9-.3h0M459.8 361.7h0l10.3 45.2h0l74.1-21.4h0l10.4 32h0l24.1-23.6h0l65.8-8.7h0s19-3 28.4 3"/><path fill="#432FC6" d="M400.3 311.2v152H93.4V344.8l33.6-33.6h273.3zM998.4 319.3v119.2h-239L725.8 405v-85.6l272.6-.1zM331.5 629.5h306.4V488.2h-340v107.6l33.6 33.7zM900.8 203H841V102.4h59.8V203z"/><path fill="#CCF381" d="M333.3 102.2c-16.3 0-26.4-17.7-18-31.7 8.1-13.7 27.9-13.7 36.1 0 8.3 14-1.8 31.7-18.1 31.7z"/><path fill="#432FC6" d="M505.3 151.1c0 7.4-6 13.5-13.5 13.5s-13.5-6-13.5-13.5c0-7.4 6-13.5 13.5-13.5 7.5.1 13.5 6.1 13.5 13.5zM501.2 127.9h-18.7V53.8h18.7v74.1z"/><path fill="#CCF381" d="M251.5 432.7c0 2.6-2 4.7-4.6 4.7s-4.7-2-4.7-4.6v-.1c0-2.6 2.2-4.6 4.7-4.6 2.5.1 4.5 2.1 4.6 4.6zM888.8 144.1c0 2.3-1.9 4.2-4.2 4.2s-4.2-1.9-4.2-4.2 1.9-4.2 4.2-4.2c2.3 0 4.2 1.9 4.2 4.2zM887.5 136.8h-5.9v-23.3h5.9v23.3z"/><path fill="none" stroke="#FFEB5C" stroke-width="2" stroke-miterlimit="50" d="M965.4 344.4h14.8M972.8 337v14.8M312.6 510.9h16.1M320.6 502.8v16.1M107.5 444h15.2M115.1 436.4v15.2M372.9 330.6h17.7M381.7 321.8v17.7M715.4 206.2h12"/><g><path fill="none" stroke="#FFEB5C" stroke-width="2" stroke-miterlimit="50" d="M721.4 200.2v12"/></g><g><path fill="none" stroke="#FFEB5C" stroke-width="2" stroke-miterlimit="50" d="M848 189.6h10.5"/></g><g><path fill="none" stroke="#FFEB5C" stroke-width="2" stroke-miterlimit="50" d="M853.3 184.4v10.5"/></g><g><path fill="#432FC6" d="M930 639.3h-85.8v-70.5H930v70.5z"/><path fill="#432FC6" d="M930 639.3h-85.8v-70.5H930v70.5z"/><path fill="none" stroke="#FFEB5C" stroke-width="2" stroke-miterlimit="50" d="M879.1 604.1h16"/><g><path fill="none" stroke="#FFEB5C" stroke-width="2" stroke-miterlimit="50" d="M887.1 596.1v16"/></g></g><g><path fill="#432FC6" d="M335.3 214.3c0 2.9-2.4 5.3-5.3 5.3s-5.3-2.4-5.3-5.3 2.4-5.3 5.3-5.3 5.3 2.4 5.3 5.3z"/></g><g><path fill="#432FC6" d="M333.6 205.2h-7.3v-29h7.3v29z"/></g><g><path fill="none" stroke="#FFEB5C" stroke-width="2" stroke-miterlimit="50" d="M405.1 133l14.9 14.9"/></g><g><path fill="none" stroke="#FFEB5C" stroke-width="2" stroke-miterlimit="50" d="M420 133l-14.9 14.9"/></g><g><path fill="#24272D" d="M481.1 297l-11.5-1.4 10.7 8.4.8-7z"/></g><g><path fill="none" stroke="#FFF" stroke-width="1.5" stroke-linecap="square" stroke-miterlimit="50" d="M575.8 381.5s18.5-4.9 30.3 7.7"/></g><g><path fill="#CCF381" d="M481.1 546.6c7.2-.5 13.2 5.2 13.2 12.3 0 4.6-2.6 8.7-6.3 10.8-.4.2-.9.4-1.3.6-1.6.6-2.6 2.1-2.6 3.8 0 .9.3 1.8.9 2.5l.3.3c.6.7.9 1.6.9 2.6 0 2.3-1.8 4.1-4.1 4.1h-.4c-1.8-.2-3.3-1.7-3.6-3.5-.2-1.1.1-2.3.9-3.2l.3-.3c.6-.7.9-1.6.9-2.5 0-1.7-1-3.2-2.6-3.8-.4-.2-.9-.3-1.3-.5-4.2-2.3-6.6-6.8-6.3-11.6.1-6.2 5-11.2 11.1-11.6zm.9 17.9c3.1 0 5.6-2.5 5.6-5.6s-2.5-5.6-5.6-5.6-5.6 2.5-5.6 5.6 2.5 5.6 5.6 5.6z"/></g><g><path fill="#CCF381" d="M434 534.2h7.5v35.9H434v-35.9z"/></g><g><path fill="#CCF381" d="M467.8 547.2v22.9h-7.3V567c-1.3 2.4-4 3.7-7.1 3.7-5.9 0-10.1-5-10.1-12.1s4.2-12.1 10.1-12.1c3.1 0 5.8 1.3 7.1 3.7v-3.1l7.3.1zM450.1 559c0 3.5 2 5.8 5.2 5.8s5.2-2.3 5.2-5.8-2-5.8-5.2-5.8-5.2 2.2-5.2 5.8z"/></g><g><path fill="#CCF381" d="M496.2 534.2h7.5v35.9h-7.5v-35.9z"/></g><g><path fill="#CCF381" d="M506.3 547.2h7.5v12.9c0 2.6 1.1 3.9 3.3 3.9s3.3-1.3 3.3-3.9v-12.9h7.5v14c0 5.9-4 9.5-10.8 9.5s-10.8-3.6-10.8-9.5v-14z"/></g><g><path fill="#CCF381" d="M432 558.5c0 6.7-5.5 12.2-12.1 12.2-6.7 0-12.1-5.4-12.1-12.1 0-6.1 4.9-11.5 11-12 3.3-.3 6.6.8 9.1 3 2.6 2.3 4.1 5.6 4.1 8.9zm-12.1 6c3.1 0 5.6-2.5 5.6-5.6s-2.5-5.6-5.6-5.6-5.6 2.5-5.6 5.6c.1 3.1 2.6 5.6 5.6 5.6z"/></g><g><path fill="#CCF381" d="M667.5 185.7c-1-.5-1.8-1.3-2.3-2.3s-.8-2.1-.8-3.3c0-1.4.4-2.6 1.1-3.7.7-1.1 1.7-1.8 3-2.2v2.9c-.6.3-1 .7-1.3 1.2s-.4 1.1-.4 1.8.2 1.4.5 2 .8 1 1.4 1.3c.6.3 1.3.5 2.2.5s1.5-.2 2.2-.5c.6-.3 1.1-.8 1.4-1.3.3-.6.5-1.2.5-2 0-.7-.2-1.3-.5-1.8s-.8-1-1.3-1.2v-2.9c1.3.4 2.3 1.2 3 2.2.7 1.1 1.1 2.3 1.1 3.7 0 1.2-.3 2.3-.8 3.3s-1.3 1.8-2.3 2.3c-1 .6-2.1.8-3.3.8-1.3.1-2.4-.2-3.4-.8z"/></g><g><path fill="#CCF381" d="M674.2 168.2c-1 .6-2.1.9-3.3.9s-2.3-.3-3.3-.9c-1-.6-1.8-1.4-2.3-2.4-.6-1-.8-2.1-.8-3.3s.3-2.3.8-3.3 1.3-1.8 2.3-2.3c1-.6 2.1-.9 3.3-.9s2.4.3 3.3.9c1 .6 1.8 1.4 2.3 2.3.6 1 .8 2.1.8 3.3 0 1.1-.3 2.3-.8 3.3s-1.3 1.9-2.3 2.4zm-1.2-9c-.6-.3-1.3-.5-2.2-.5s-1.6.2-2.2.5c-.6.3-1.1.8-1.4 1.4-.3.6-.5 1.2-.5 2s.2 1.4.5 2 .8 1.1 1.4 1.4c.6.3 1.3.5 2.2.5s1.6-.2 2.2-.5c.6-.3 1.1-.8 1.4-1.4.3-.6.5-1.3.5-2 0-.8-.2-1.4-.5-2-.3-.6-.8-1.1-1.4-1.4z"/></g><g><path fill="#CCF381" d="M677.2 139.9v2.5l-8.7 5.7h8.7v2.5h-12.6v-2.5l8.7-5.7h-8.7v-2.5h12.6z"/></g><g><path fill="#CCF381" d="M666.6 131.2h3.3V127h2v4.3h3.4v-4.8h2v7.3h-12.6v-7.3h2v4.7h-.1z"/></g><g><path fill="#CCF381" d="M667.5 120.3c-1-.5-1.8-1.3-2.3-2.3s-.8-2.1-.8-3.3c0-1.4.4-2.6 1.1-3.7s1.7-1.8 3-2.2v2.9c-.6.3-1 .7-1.3 1.2s-.4 1.1-.4 1.8.2 1.4.5 2 .8 1 1.4 1.3 1.3.5 2.2.5 1.5-.2 2.2-.5c.6-.3 1.1-.8 1.4-1.3.3-.6.5-1.2.5-2 0-.7-.2-1.3-.5-1.8s-.8-1-1.3-1.2v-2.9c1.3.4 2.3 1.2 3 2.2s1.1 2.3 1.1 3.7c0 1.2-.3 2.3-.8 3.3s-1.3 1.8-2.3 2.3c-1 .6-2.1.8-3.3.8-1.3 0-2.4-.3-3.4-.8z"/></g><g><path fill="#CCF381" d="M664.6 94.4h2v3.4h10.6v2.5h-10.6v3.4h-2v-9.3z"/></g><g><path fill="#CCF381" d="M674.8 81.2v5l2.4.8v2.7l-12.6-4.5v-2.9l12.6-4.5v2.7l-2.4.7zm-2 .7l-5.3 1.8 5.3 1.8v-3.6z"/></g><g><path fill="#CCF381" d="M677.2 65.9l-4.9 2.8v1.2h4.9v2.5h-12.6v-4.7c0-1 .2-1.8.5-2.5s.8-1.2 1.4-1.5c.6-.3 1.3-.5 2-.5.8 0 1.6.2 2.3.7.7.5 1.1 1.2 1.4 2.2l5.1-3-.1 2.8zm-6.8 3.9v-2.1c0-.7-.2-1.2-.5-1.5s-.8-.5-1.4-.5-1.1.2-1.4.5c-.3.3-.5.8-.5 1.5v2.1h3.8z"/></g><g><path fill="#CCF381" d="M151.6 389.2c-1.1.6-2.4.9-4.1.9h-3.3v7.6h-4v-19.8h7.3c1.5 0 2.8.3 3.9.8s1.9 1.3 2.4 2.2c.5.9.8 2 .8 3.2 0 1-.3 2.1-.8 3-.4.7-1.2 1.5-2.2 2.1zm-1-5.3c0-.9-.3-1.7-.8-2.2s-1.3-.8-2.4-.8h-3.2v5.9h3.2c1.1 0 1.9-.3 2.4-.8.5-.4.8-1.2.8-2.1z"/></g><g><path fill="#CCF381" d="M167.2 397.6h-4v-19.8h4v19.8z"/></g><g><path fill="#CCF381" d="M188.7 397.6l-4.3-6.7-3.9 6.7H176l6.3-10-6.3-9.8h4.6l4.3 6.6 3.9-6.6h4.5l-6.2 10 6.3 9.9-4.7-.1z"/></g><g><path fill="#CCF381" d="M205.9 380.9v5.1h6.7v3.1h-6.7v5.4h7.5v3.2H202v-19.9h11.5v3.1h-7.6z"/></g><g><path fill="#CCF381" d="M226.7 394.6h6.5v3h-10.5v-19.8h4v16.8z"/></g><g><path fill="#CCF381" d="M242.3 393.1c1.8-1.5 3.3-2.8 4.3-3.8 1.1-1 1.9-2 2.6-3.1.7-1.1 1.1-2.1 1.1-3.1 0-.9-.2-1.7-.7-2.2-.4-.5-1.1-.8-2.1-.8-.9 0-1.7.3-2.2.9s-.8 1.5-.8 2.6h-3.9c.1-2.3.8-4 2-5.2 1.3-1.2 2.9-1.8 4.9-1.8 1.4 0 2.7.3 3.7.8s1.8 1.3 2.3 2.2c.5.9.8 2 .8 3.1 0 1.4-.4 2.8-1.2 4.1-.7 1.3-1.7 2.4-2.7 3.4s-2.4 2.2-4 3.6h8.4v3.3h-14v-3l1.5-1z"/></g><g><path fill="#CCF381" d="M280 377.8v19.8h-4v-8.5h-8.5v8.5h-4v-19.8h4v8.2h8.5v-8.2h4z"/></g><g><path fill="#CCF381" d="M303.1 377.8v3.1h-5.3v16.7h-4v-16.7h-5.3v-3.1h14.6z"/></g><g><path fill="#CCF381" d="M333.3 377.8v19.8h-4v-12.9l-5.3 12.9h-3l-5.3-12.9v12.9h-4v-19.8h4.5l6.3 14.8 6.3-14.8h4.5z"/></g><g><path fill="#CCF381" d="M346.9 394.6h6.5v3h-10.5v-19.8h4v16.8z"/></g><g><path fill="#C9784B" d="M473.6 297.3h3.9c19.1-.2 33.3-18.9 29.5-38.8l-4.4-23.2c-2.9-15.5-15.9-26.5-30.7-26.2-16.9.4-30.2 15.3-29.8 33.2l.5 23.3c.5 17.7 14.3 31.9 31 31.7z"/></g><g><path fill="none" stroke="#252B2D" stroke-width="1.5" stroke-linecap="round" stroke-linejoin="round" stroke-miterlimit="50" d="M485.8 247.2h0l3.1 12.6c.8 3.2-1.1 6.5-4.4 7.3l-.7.2h0"/></g><g><path fill="#24272D" d="M455.2 266.4l4.8-35.1 1.1-8.3c2.3 1.9 4.9 3.4 7.7 4.5 10.1 3.9 38.4-1.7 39.9-22.2 1.2-16.7-15-5.2-24-5.1-14.1.1-24.9-6.9-42.7 5.8-21.3 15.2-6.7 44.2-6.7 44.2s9.6-5.2 19.9 16.2z"/></g><g><path fill="#24272D" d="M469.2 252.7c.9 1.6 2.9 2.2 4.6 1.3 1.6-.9 2.2-2.9 1.3-4.6-.9-1.6-3-2.1-4.6-1.2-1.6 1-2.2 2.9-1.3 4.5z"/></g><g><path fill="#24272D" d="M489.8 250.5c.9 1.6 2.9 2.2 4.6 1.3 1.6-.9 2.2-2.9 1.3-4.6-.9-1.6-3-2.1-4.6-1.2-1.6 1-2.2 3-1.3 4.5z"/></g><g><path fill="none" stroke="#252B2D" stroke-width="1.5" stroke-linecap="round" stroke-linejoin="round" stroke-miterlimit="50" d="M469.1 273.9s1 6.9 8.8 7.3"/></g><g><path fill="#C9784B" d="M457.2 278c5.1-4.1 6-11.7 1.9-16.8l-7.2-9c-4.1-5.1-11.7-6-16.8-1.9-5.1 4.1-6 11.7-1.9 16.8l7.2 9c4.1 5.2 11.7 6 16.8 1.9z"/></g><g><path fill="none" stroke="#252B2D" stroke-width="1.5" stroke-linecap="round" stroke-linejoin="round" stroke-miterlimit="50" d="M439.2 260.2l7.2 5.9"/></g><g><path fill="#3D155F" d="M127 311.2v33.6H93.4l33.6-33.6z"/></g><g><path fill="#3D155F" d="M331.5 629.5l-33.6-33.6h33.6v33.6z"/></g><g><path fill="#3D155F" d="M759.5 405v33.6L725.8 405h33.7z"/></g><g><path fill="#3D155F" d="M707 25.9l33.6 33.6H707V25.9z"/></g><path fill="#CCF381" d="M824.3 381.1c.2-2.6 2.1-4.4 4.4-4.4 2.2 0 3.7 1.8 3.9 4.4h-8.3zm39.2-8.2c-5.8 0-9.9 4.1-9.9 10 0 5.8 4.1 10 9.9 10 5.8 0 9.8-4.2 9.8-10 0-5.9-4-10-9.8-10zm35.5 14.4c-1.2 1.2-2.6 1.9-3.9 1.9-1.7 0-2.9-1.1-2.9-2.6 0-1.8 1.9-3.1 4.6-3.1.8 0 1.5 0 2.2.1v3.7zm-87.9-14.4c-1.9 0-3.9.7-5.6 2.1v-10h-4.9v27.5h4.9v-13.3c1.3-1.3 2.7-2 4.1-2 2 0 3.4 1.5 3.4 3.5v11.8h4.9v-12.7c0-4.1-2.8-6.9-6.8-6.9zm17.8 0c-5.5 0-9.5 4.1-9.5 9.9 0 6 4.1 10.2 9.8 10.2 2.2 0 4.3-.5 6.5-1.5v-4.1c-2 1.1-3.9 1.8-5.7 1.8-3.2 0-5.5-2-5.8-4.9h13c.1-.6.1-1.3.1-1.8.1-5.7-3.3-9.6-8.4-9.6zm10.1 19.6h4.9V365H839v27.5zm7.9 0h4.9V365h-4.9v27.5zm16.6-3.6c-2.9 0-4.9-2.4-4.9-5.9s2-5.9 4.9-5.9c2.8 0 4.8 2.4 4.8 5.9s-2 5.9-4.8 5.9zm17.8-20.9h-4.9v5.4h-3.3v3.9h3.3v9.5c0 3.6 2.6 6.2 6.4 6.2 1.3 0 2.6-.3 4-.8v-4.1c-1 .5-1.9.8-2.7.8-1.7 0-2.8-1.1-2.8-2.7v-8.9h5.5v-3.9h-5.5V368zm14.7 4.9c-2.3 0-4.6.5-6.9 1.6v4.1c2.2-1.2 4.4-1.8 6.4-1.8 2.2 0 3.6 1.2 3.6 3v.9c-.9 0-1.6-.1-2.4-.1-5.5 0-9.2 2.8-9.2 6.7 0 3.4 2.5 5.7 6.1 5.7 1.9 0 3.8-.7 5.5-2v1.5h4.7V380c-.1-4.2-3.2-7.1-7.8-7.1zm20.9 9.9l6.4-9.4h-5.5l-3.8 5.9-3.8-5.9h-5.5l6.4 9.4-6.7 9.7h5.7l4-6.2 4 6.2h5.7l-6.9-9.7z"/><g><path fill="#432FC6" d="M288.5 278.5h-74.1V172.3l16.9-14.6h57.2z"/><path fill="#3D155F" d="M231.3 172.3h-16.9l16.9-14.6z"/><g fill="none" stroke="#FFEB5C" stroke-width="1.5" stroke-miterlimit="10"><path d="M273.4 171.5h8M277.4 167.5v8"/></g><g fill="#CCF381"><path d="M256.1 238.6h-16.8v4h7c-.5.3-1.3 1.3-1.3 3.5 0 3.7 2.9 6.4 6.9 6.4s6.9-2.8 6.9-6.5c0-1.6-.7-2.9-1.6-3.5.5 0 1.1-.1 1.3-.1v-3.9c-.4 0-1.2.1-2.4.1zm-1 6.8c0 1.6-1.1 3-3.3 3s-3.3-1.4-3.3-3 1.1-3 3.3-3c2.2.1 3.3 1.5 3.3 3zM249.2 229.2c-.1.4-.1.9-.1 1.3 0 1.6 1 3.1 3.6 3.1h5.7v4h-13.2v-3.9h1.8c-1.5-.7-1.9-2.4-1.9-3.4 0-.4.1-.8.1-1.1h4z"/><path d="M244.9 223.5c0 3.9 2.9 7 7 7s7-3.1 7-7-2.9-7-7-7c-4.1.1-7 3.1-7 7zm10.2 0c0 1.5-1.1 3-3.3 3s-3.3-1.5-3.3-3 1-3 3.3-3 3.3 1.5 3.3 3z"/><path d="M245 208.9c0 1.9.8 3.3 1.7 3.9h-1.3v3.9h18.2v-4h-6.1c.7-.6 1.3-1.9 1.3-3.6 0-3.7-2.9-6.3-6.9-6.3-4-.1-6.9 2.2-6.9 6.1zm10.1.8c0 1.6-1.1 3-3.3 3s-3.3-1.4-3.3-3 1.1-3 3.3-3 3.3 1.4 3.3 3z"/><path d="M256.1 189.9h-16.8v4h7c-.5.3-1.3 1.3-1.3 3.5 0 3.7 2.9 6.4 6.9 6.4s6.9-2.8 6.9-6.5c0-1.6-.7-2.9-1.6-3.5.5 0 1.1-.1 1.3-.1v-3.9c-.4 0-1.2.1-2.4.1zm-1 6.8c0 1.6-1.1 3-3.3 3s-3.3-1.4-3.3-3 1.1-3 3.3-3c2.2.1 3.3 1.5 3.3 3zM261.3 225.7l2.2-2.2-2.2-2.2z"/></g></g></svg>
