<svg
  width="176"
  height="72"
  focusable="false"
  viewBox="0 0 176 72"
  xmlns="http://www.w3.org/2000/svg"
>
  <g class="ola">
    <path
      class="o"
      fill="#ccf381"
      d="M35.671 35.516l.001.206c.004 9.6-8.028 17.638-17.633 17.638C8.3 53.36.4 45.463.4 35.722c0-8.933 7.228-16.845 16.153-17.563 4.786-.385 9.686 1.239 13.264 4.45 3.617 3.248 5.793 8.046 5.854 12.907zm-17.632 8.71c4.504 0 8.172-3.667 8.172-8.172 0-4.51-3.668-8.172-8.172-8.172a8.176 8.176 0 0 0-8.172 8.172c0 4.505 3.662 8.172 8.172 8.172z"
    />
    <path
      fill="#ccf381"
      d="M38.626-.001h10.975v52.445H38.626z"
      class="l1"
    />
    <path
      class="a"
      fill="#ccf381"
      d="M88.015 18.996v33.448H77.301v-4.508c-1.894 3.463-5.814 5.423-10.322 5.423-8.558 0-14.764-7.252-14.764-17.639s6.206-17.639 14.764-17.639c4.508 0 8.428 1.96 10.322 5.422v-4.507zM62.196 36.201c0 5.149 2.892 8.464 7.618 8.464 4.726 0 7.618-3.315 7.618-8.464 0-5.149-2.892-8.464-7.618-8.464-4.726 0-7.618 3.315-7.618 8.464z"
    />
  </g>
  <path
    fill="#ccf381"
    class="sauce__drip"
    d="M107.492 18.127c10.512-.738 19.271 7.572 19.271 17.927 0 6.772-3.744 12.667-9.276 15.73-.612.339-1.27.58-1.928.82a5.572 5.572 0 0 0-.991.474 5.835 5.835 0 0 0-2.847 5.017c0 1.385.482 2.655 1.287 3.657.138.175.289.343.45.503a5.954 5.954 0 0 1 1.323 3.753 5.994 5.994 0 0 1-6.653 5.955c-2.685-.288-4.893-2.416-5.268-5.091a5.978 5.978 0 0 1 1.262-4.617c.161-.16.312-.328.45-.503a5.816 5.816 0 0 0 1.287-3.657 5.836 5.836 0 0 0-3.839-5.491c-.647-.235-1.295-.472-1.898-.804-5.861-3.232-9.724-9.64-9.268-16.906.559-8.903 7.739-16.142 16.638-16.767zm1.298 26.1c4.505 0 8.173-3.668 8.173-8.173 0-4.51-3.668-8.174-8.173-8.174-4.508 0-8.173 3.665-8.173 8.174 0 4.505 3.665 8.173 8.173 8.173z"
  />
  <g class="lu">
    <path
      fill="#ccf381"
      d="M129.566-.001h10.975v52.445h-10.975z"
      class="l2"
    />
    <path
      class="u"
      fill="#ccf381"
      d="M144.33 18.996h10.976v18.88c0 3.789 1.633 5.683 4.835 5.683 3.2 0 4.834-1.894 4.834-5.683v-18.88h10.975v20.448c0 8.689-5.814 13.915-15.81 13.915-9.995 0-15.81-5.226-15.81-13.915z"
    />
  </g>
</svg>
