<svg
  height="24"
  viewBox="8 8.003 48 47.997"
  width="24"
  xmlns="http://www.w3.org/2000/svg"
>
  <path
    d="M29.283 12.19a19.624 19.624 0 015.434 0 2 2 0 00.567-3.959 23.75 23.75 0 00-6.566 0 2 2 0 00.565 3.959z"
  />
  <path
    d="M42.91 10.619a2 2 0 00-1.82 3.561C47.819 17.621 52 24.449 52 32c0 11.028-8.972 20-20
    20s-20-8.972-20-20c0-7.551 4.181-14.379 10.911-17.819a2 2 0 00-1.821-3.561C13.016 14.747 8 22.939 8
    32c0 13.233 10.766 24 24 24 13.233 0 24-10.767 24-24 0-9.061-5.016-17.253-13.09-21.381z"
  />
  <path
    d="M22.586 36.586a2 2 0 000 2.828l8 8c.39.391.902.586 1.414.586s1.023-.195 1.414-.586l8-8a2 2 0
    10-2.828-2.828L34 41.172V18a2 2 0 00-4 0v23.172l-4.586-4.586a2 2 0 00-2.828 0z"
  />
</svg>
