<svg xmlns="http://www.w3.org/2000/svg" width="935" height="701" viewBox="0 0 935 701"><g><g><path fill="none" stroke="#ccf381" stroke-miterlimit="50" stroke-width="2" d="M165.648 352.811v0l15.343 16.136v0l15.343-16.136v0l15.341 16.136v0l15.343-16.136v0l15.343 16.136v0l15.343-16.136v0l15.344 16.136v0l15.345-16.136v0"/></g><g><path fill="#ccf381" d="M112.476 1.58a1.5 1.5 0 1 1-3 0 1.5 1.5 0 0 1 3 0z"/></g><g><path fill="#ccf381" d="M131.444 1.58a1.5 1.5 0 1 1-3 0 1.5 1.5 0 0 1 3 0z"/></g><g><path fill="#ccf381" d="M150.412 1.58a1.5 1.5 0 1 1-3.001 0 1.5 1.5 0 0 1 3.001 0z"/></g><g><path fill="#ccf381" d="M169.38 1.58a1.5 1.5 0 1 1-3.001 0 1.5 1.5 0 0 1 3 0z"/></g><g><path fill="#ccf381" d="M188.348 1.58a1.5 1.5 0 1 1-3.001 0 1.5 1.5 0 0 1 3 0z"/></g><g><path fill="#ccf381" d="M207.315 1.58a1.5 1.5 0 1 1-3 0 1.5 1.5 0 0 1 3 0z"/></g><g><path fill="#ccf381" d="M226.283 1.58a1.5 1.5 0 1 1-3 0 1.5 1.5 0 0 1 3 0z"/></g><g><path fill="#ccf381" d="M245.252 1.58a1.5 1.5 0 1 1-3.001 0 1.5 1.5 0 0 1 3.001 0z"/></g><g><path fill="#ccf381" d="M264.22 1.58a1.5 1.5 0 1 1-3.001 0 1.5 1.5 0 0 1 3 0z"/></g><g><path fill="#ccf381" d="M283.188 1.58a1.5 1.5 0 1 1-3.002 0 1.5 1.5 0 0 1 3.002 0z"/></g><g><path fill="#ccf381" d="M302.155 1.58a1.5 1.5 0 1 1-3 0 1.5 1.5 0 0 1 3 0z"/></g><g><path fill="#ccf381" d="M321.123 1.58a1.5 1.5 0 1 1-3.001 0 1.5 1.5 0 0 1 3.001 0z"/></g><g><path fill="#ccf381" d="M112.476 20.804a1.5 1.5 0 1 1-3 0 1.5 1.5 0 0 1 3 0z"/></g><g><path fill="#ccf381" d="M131.444 20.804a1.5 1.5 0 1 1-3-.001 1.5 1.5 0 0 1 3 0z"/></g><g><path fill="#ccf381" d="M150.412 20.804a1.5 1.5 0 1 1-3.001-.001 1.5 1.5 0 0 1 3.001 0z"/></g><g><path fill="#ccf381" d="M169.38 20.804a1.5 1.5 0 1 1-3.001-.001 1.5 1.5 0 0 1 3 0z"/></g><g><path fill="#ccf381" d="M188.348 20.804a1.5 1.5 0 1 1-3.001-.001 1.5 1.5 0 0 1 3 0z"/></g><g><path fill="#ccf381" d="M207.315 20.804a1.5 1.5 0 1 1-3 0 1.5 1.5 0 0 1 3 0z"/></g><g><path fill="#ccf381" d="M226.283 20.804a1.5 1.5 0 1 1-3 0 1.5 1.5 0 0 1 3 0z"/></g><g><path fill="#ccf381" d="M245.252 20.804a1.5 1.5 0 1 1-3.001-.001 1.5 1.5 0 0 1 3.001 0z"/></g><g><path fill="#ccf381" d="M264.22 20.804a1.5 1.5 0 1 1-3.001-.001 1.5 1.5 0 0 1 3 0z"/></g><g><path fill="#ccf381" d="M283.188 20.804a1.5 1.5 0 1 1-3.002-.001 1.5 1.5 0 0 1 3.002 0z"/></g><g><path fill="#ccf381" d="M302.155 20.804a1.5 1.5 0 1 1-3-.001 1.5 1.5 0 0 1 3 0z"/></g><g><path fill="#ccf381" d="M321.123 20.804a1.5 1.5 0 1 1-3.001-.001 1.5 1.5 0 0 1 3.001 0z"/></g><g><path fill="#ccf381" d="M112.476 40.026a1.5 1.5 0 1 1-2.998.002 1.5 1.5 0 0 1 2.998-.002z"/></g><g><path fill="#ccf381" d="M131.444 40.026a1.5 1.5 0 1 1-3 0 1.5 1.5 0 0 1 3 0z"/></g><g><path fill="#ccf381" d="M150.412 40.026a1.5 1.5 0 1 1-3 0 1.5 1.5 0 0 1 3 0z"/></g><g><path fill="#ccf381" d="M169.38 40.026a1.5 1.5 0 1 1-3 0 1.5 1.5 0 0 1 3 0z"/></g><g><path fill="#ccf381" d="M188.348 40.026a1.5 1.5 0 1 1-3 0 1.5 1.5 0 0 1 3 0z"/></g><g><path fill="#ccf381" d="M207.315 40.026a1.5 1.5 0 1 1-2.998.002 1.5 1.5 0 0 1 2.998-.002z"/></g><g><path fill="#ccf381" d="M226.283 40.026a1.5 1.5 0 1 1-2.998.002 1.5 1.5 0 0 1 2.998-.002z"/></g><g><path fill="#ccf381" d="M245.252 40.026a1.5 1.5 0 1 1-3 0 1.5 1.5 0 0 1 3 0z"/></g><g><path fill="#ccf381" d="M264.22 40.026a1.5 1.5 0 1 1-3 0 1.5 1.5 0 0 1 3 0z"/></g><g><path fill="#ccf381" d="M283.188 40.026a1.5 1.5 0 1 1-3 0 1.5 1.5 0 0 1 3 0z"/></g><g><path fill="#ccf381" d="M302.155 40.026a1.5 1.5 0 1 1-3 0 1.5 1.5 0 0 1 3 0z"/></g><g><path fill="#ccf381" d="M321.123 40.026a1.5 1.5 0 1 1-3 0 1.5 1.5 0 0 1 3 0z"/></g><g><path fill="#ccf381" d="M112.476 59.25a1.5 1.5 0 1 1-2.998.001 1.5 1.5 0 0 1 2.998-.001z"/></g><g><path fill="#ccf381" d="M131.444 59.25a1.5 1.5 0 1 1-3 0 1.5 1.5 0 0 1 3 0z"/></g><g><path fill="#ccf381" d="M150.412 59.25a1.5 1.5 0 1 1-3 0 1.5 1.5 0 0 1 3 0z"/></g><g><path fill="#ccf381" d="M169.38 59.25a1.5 1.5 0 1 1-3 0 1.5 1.5 0 0 1 3 0z"/></g><g><path fill="#ccf381" d="M188.348 59.25a1.5 1.5 0 1 1-3 0 1.5 1.5 0 0 1 3 0z"/></g><g><path fill="#ccf381" d="M207.315 59.25a1.5 1.5 0 1 1-2.998.001 1.5 1.5 0 0 1 2.998-.001z"/></g><g><path fill="#ccf381" d="M226.283 59.25a1.5 1.5 0 1 1-2.998.001 1.5 1.5 0 0 1 2.998-.001z"/></g><g><path fill="#ccf381" d="M245.252 59.25a1.5 1.5 0 1 1-3 0 1.5 1.5 0 0 1 3 0z"/></g><g><path fill="#ccf381" d="M264.22 59.25a1.5 1.5 0 1 1-3 0 1.5 1.5 0 0 1 3 0z"/></g><g><path fill="#ccf381" d="M283.188 59.25a1.5 1.5 0 1 1-3 0 1.5 1.5 0 0 1 3 0z"/></g><g><path fill="#ccf381" d="M302.155 59.25a1.5 1.5 0 1 1-3 0 1.5 1.5 0 0 1 3 0z"/></g><g><path fill="#ccf381" d="M321.123 59.25a1.5 1.5 0 1 1-3 0 1.5 1.5 0 0 1 3 0z"/></g><g><path fill="#ccf381" d="M112.476 78.473a1.5 1.5 0 1 1-2.998.001 1.5 1.5 0 0 1 2.998-.001z"/></g><g><path fill="#ccf381" d="M131.444 78.473a1.5 1.5 0 1 1-3 0 1.5 1.5 0 0 1 3 0z"/></g><g><path fill="#ccf381" d="M150.412 78.473a1.5 1.5 0 1 1-3 0 1.5 1.5 0 0 1 3 0z"/></g><g><path fill="#ccf381" d="M169.38 78.473a1.5 1.5 0 1 1-3 0 1.5 1.5 0 0 1 3 0z"/></g><g><path fill="#ccf381" d="M188.348 78.473a1.5 1.5 0 1 1-3 0 1.5 1.5 0 0 1 3 0z"/></g><g><path fill="#ccf381" d="M207.315 78.473a1.5 1.5 0 1 1-2.998.001 1.5 1.5 0 0 1 2.998-.001z"/></g><g><path fill="#ccf381" d="M226.283 78.473a1.5 1.5 0 1 1-2.998.001 1.5 1.5 0 0 1 2.998-.001z"/></g><g><path fill="#ccf381" d="M245.252 78.473a1.5 1.5 0 1 1-3 0 1.5 1.5 0 0 1 3 0z"/></g><g><path fill="#ccf381" d="M264.22 78.473a1.5 1.5 0 1 1-3 0 1.5 1.5 0 0 1 3 0z"/></g><g><path fill="#ccf381" d="M283.188 78.473a1.5 1.5 0 1 1-3 0 1.5 1.5 0 0 1 3 0z"/></g><g><path fill="#ccf381" d="M302.155 78.473a1.5 1.5 0 1 1-3 0 1.5 1.5 0 0 1 3 0z"/></g><g><path fill="#ccf381" d="M321.123 78.473a1.5 1.5 0 1 1-3 0 1.5 1.5 0 0 1 3 0z"/></g><g><path fill="#ccf381" d="M112.476 97.696a1.5 1.5 0 1 1-2.998.001 1.5 1.5 0 0 1 2.998-.001z"/></g><g><path fill="#ccf381" d="M131.444 97.696a1.5 1.5 0 1 1-3 0 1.5 1.5 0 0 1 3 0z"/></g><g><path fill="#ccf381" d="M150.412 97.696a1.5 1.5 0 1 1-3 0 1.5 1.5 0 0 1 3 0z"/></g><g><path fill="#ccf381" d="M169.38 97.696a1.5 1.5 0 1 1-3 0 1.5 1.5 0 0 1 3 0z"/></g><g><path fill="#ccf381" d="M188.348 97.696a1.5 1.5 0 1 1-3 0 1.5 1.5 0 0 1 3 0z"/></g><g><path fill="#ccf381" d="M207.315 97.696a1.5 1.5 0 1 1-2.998.001 1.5 1.5 0 0 1 2.998-.001z"/></g><g><path fill="#ccf381" d="M226.283 97.696a1.5 1.5 0 1 1-2.998.001 1.5 1.5 0 0 1 2.998-.001z"/></g><g><path fill="#ccf381" d="M245.252 97.696a1.5 1.5 0 1 1-3 0 1.5 1.5 0 0 1 3 0z"/></g><g><path fill="#ccf381" d="M264.22 97.696a1.5 1.5 0 1 1-3 0 1.5 1.5 0 0 1 3 0z"/></g><g><path fill="#ccf381" d="M283.188 97.696a1.5 1.5 0 1 1-3 0 1.5 1.5 0 0 1 3 0z"/></g><g><path fill="#ccf381" d="M302.155 97.696a1.5 1.5 0 1 1-3 0 1.5 1.5 0 0 1 3 0z"/></g><g><path fill="#ccf381" d="M321.123 97.696a1.5 1.5 0 1 1-3 0 1.5 1.5 0 0 1 3 0z"/></g><g><path fill="#ccf381" d="M112.476 116.92a1.5 1.5 0 1 1-3 0 1.5 1.5 0 0 1 3 0z"/></g><g><path fill="#ccf381" d="M131.444 116.92a1.5 1.5 0 1 1-3-.002 1.5 1.5 0 0 1 3 .001z"/></g><g><path fill="#ccf381" d="M150.412 116.92a1.5 1.5 0 1 1-3.001-.002 1.5 1.5 0 0 1 3.001.001z"/></g><g><path fill="#ccf381" d="M169.38 116.92a1.5 1.5 0 1 1-3.001-.002 1.5 1.5 0 0 1 3 .001z"/></g><g><path fill="#ccf381" d="M188.348 116.92a1.5 1.5 0 1 1-3.001-.002 1.5 1.5 0 0 1 3 .001z"/></g><g><path fill="#ccf381" d="M207.315 116.92a1.5 1.5 0 1 1-3 0 1.5 1.5 0 0 1 3 0z"/></g><g><path fill="#ccf381" d="M226.283 116.92a1.5 1.5 0 1 1-3 0 1.5 1.5 0 0 1 3 0z"/></g><g><path fill="#ccf381" d="M245.252 116.92a1.5 1.5 0 1 1-3.001-.002 1.5 1.5 0 0 1 3.001.001z"/></g><g><path fill="#ccf381" d="M264.22 116.92a1.5 1.5 0 1 1-3.001-.002 1.5 1.5 0 0 1 3 .001z"/></g><g><path fill="#ccf381" d="M283.188 116.92a1.5 1.5 0 1 1-3.002-.002 1.5 1.5 0 0 1 3.002.001z"/></g><g><path fill="#ccf381" d="M302.155 116.92a1.5 1.5 0 1 1-3-.002 1.5 1.5 0 0 1 3 .001z"/></g><g><path fill="#ccf381" d="M321.123 116.92a1.5 1.5 0 1 1-3.001-.002 1.5 1.5 0 0 1 3.001.001z"/></g><g><path fill="#ccf381" d="M112.476 136.142a1.5 1.5 0 1 1-3 0 1.5 1.5 0 0 1 3 0z"/></g><g><path fill="#ccf381" d="M131.444 136.142a1.5 1.5 0 1 1-3 0 1.5 1.5 0 0 1 3 0z"/></g><g><path fill="#ccf381" d="M150.412 136.142a1.5 1.5 0 1 1-3.001 0 1.5 1.5 0 0 1 3.001 0z"/></g><g><path fill="#ccf381" d="M169.38 136.142a1.5 1.5 0 1 1-3.001 0 1.5 1.5 0 0 1 3 0z"/></g><g><path fill="#ccf381" d="M188.348 136.142a1.5 1.5 0 1 1-3.001 0 1.5 1.5 0 0 1 3 0z"/></g><g><path fill="#ccf381" d="M207.315 136.142a1.5 1.5 0 1 1-3 0 1.5 1.5 0 0 1 3 0z"/></g><g><path fill="#ccf381" d="M226.283 136.142a1.5 1.5 0 1 1-3 0 1.5 1.5 0 0 1 3 0z"/></g><g><path fill="#ccf381" d="M245.252 136.142a1.5 1.5 0 1 1-3.001 0 1.5 1.5 0 0 1 3.001 0z"/></g><g><path fill="#ccf381" d="M264.22 136.142a1.5 1.5 0 1 1-3.001 0 1.5 1.5 0 0 1 3 0z"/></g><g><path fill="#ccf381" d="M283.188 136.142a1.5 1.5 0 1 1-3.002 0 1.5 1.5 0 0 1 3.002 0z"/></g><g><path fill="#ccf381" d="M302.155 136.142a1.5 1.5 0 1 1-3 0 1.5 1.5 0 0 1 3 0z"/></g><g><path fill="#ccf381" d="M321.123 136.142a1.5 1.5 0 1 1-3.001 0 1.5 1.5 0 0 1 3.001 0z"/></g><g><path fill="#ccf381" d="M112.476 155.365a1.5 1.5 0 1 1-2.998.001 1.5 1.5 0 0 1 2.998-.001z"/></g><g><path fill="#ccf381" d="M131.444 155.365a1.5 1.5 0 1 1-3 0 1.5 1.5 0 0 1 3 0z"/></g><g><path fill="#ccf381" d="M150.412 155.365a1.5 1.5 0 1 1-3 0 1.5 1.5 0 0 1 3 0z"/></g><g><path fill="#ccf381" d="M169.38 155.365a1.5 1.5 0 1 1-3 0 1.5 1.5 0 0 1 3 0z"/></g><g><path fill="#ccf381" d="M188.348 155.365a1.5 1.5 0 1 1-3 0 1.5 1.5 0 0 1 3 0z"/></g><g><path fill="#ccf381" d="M207.315 155.365a1.5 1.5 0 1 1-2.998.001 1.5 1.5 0 0 1 2.998-.001z"/></g><g><path fill="#ccf381" d="M226.283 155.365a1.5 1.5 0 1 1-2.998.001 1.5 1.5 0 0 1 2.998-.001z"/></g><g><path fill="#ccf381" d="M245.252 155.365a1.5 1.5 0 1 1-3 0 1.5 1.5 0 0 1 3 0z"/></g><g><path fill="#ccf381" d="M264.22 155.365a1.5 1.5 0 1 1-3 0 1.5 1.5 0 0 1 3 0z"/></g><g><path fill="#ccf381" d="M283.188 155.365a1.5 1.5 0 1 1-3 0 1.5 1.5 0 0 1 3 0z"/></g><g><path fill="#ccf381" d="M302.155 155.365a1.5 1.5 0 1 1-3 0 1.5 1.5 0 0 1 3 0z"/></g><g><path fill="#ccf381" d="M321.123 155.365a1.5 1.5 0 1 1-3 0 1.5 1.5 0 0 1 3 0z"/></g><g><path fill="#ccf381" d="M112.476 174.588a1.5 1.5 0 1 1-2.998.002 1.5 1.5 0 0 1 2.998-.002z"/></g><g><path fill="#ccf381" d="M131.444 174.588a1.5 1.5 0 1 1-3 0 1.5 1.5 0 0 1 3 0z"/></g><g><path fill="#ccf381" d="M150.412 174.588a1.5 1.5 0 1 1-3 0 1.5 1.5 0 0 1 3 0z"/></g><g><path fill="#ccf381" d="M169.38 174.588a1.5 1.5 0 1 1-3 0 1.5 1.5 0 0 1 3 0z"/></g><g><path fill="#ccf381" d="M188.348 174.588a1.5 1.5 0 1 1-3 0 1.5 1.5 0 0 1 3 0z"/></g><g><path fill="#ccf381" d="M207.315 174.588a1.5 1.5 0 1 1-2.998.002 1.5 1.5 0 0 1 2.998-.002z"/></g><g><path fill="#ccf381" d="M226.283 174.588a1.5 1.5 0 1 1-2.998.002 1.5 1.5 0 0 1 2.998-.002z"/></g><g><path fill="#ccf381" d="M245.252 174.588a1.5 1.5 0 1 1-3 0 1.5 1.5 0 0 1 3 0z"/></g><g><path fill="#ccf381" d="M264.22 174.588a1.5 1.5 0 1 1-3 0 1.5 1.5 0 0 1 3 0z"/></g><g><path fill="#ccf381" d="M283.188 174.588a1.5 1.5 0 1 1-3 0 1.5 1.5 0 0 1 3 0z"/></g><g><path fill="#ccf381" d="M302.155 174.588a1.5 1.5 0 1 1-3 0 1.5 1.5 0 0 1 3 0z"/></g><g><path fill="#ccf381" d="M321.123 174.588a1.5 1.5 0 1 1-3 0 1.5 1.5 0 0 1 3 0z"/></g><g><path fill="#ccf381" d="M112.476 193.811a1.5 1.5 0 1 1-2.998.002 1.5 1.5 0 0 1 2.998-.002z"/></g><g><path fill="#ccf381" d="M131.444 193.811a1.5 1.5 0 1 1-3 0 1.5 1.5 0 0 1 3 0z"/></g><g><path fill="#ccf381" d="M150.412 193.811a1.5 1.5 0 1 1-3 0 1.5 1.5 0 0 1 3 0z"/></g><g><path fill="#ccf381" d="M169.38 193.811a1.5 1.5 0 1 1-3 0 1.5 1.5 0 0 1 3 0z"/></g><g><path fill="#ccf381" d="M188.348 193.811a1.5 1.5 0 1 1-3 0 1.5 1.5 0 0 1 3 0z"/></g><g><path fill="#ccf381" d="M207.315 193.811a1.5 1.5 0 1 1-2.998.002 1.5 1.5 0 0 1 2.998-.002z"/></g><g><path fill="#ccf381" d="M226.283 193.811a1.5 1.5 0 1 1-2.998.002 1.5 1.5 0 0 1 2.998-.002z"/></g><g><path fill="#ccf381" d="M245.252 193.811a1.5 1.5 0 1 1-3 0 1.5 1.5 0 0 1 3 0z"/></g><g><path fill="#ccf381" d="M264.22 193.811a1.5 1.5 0 1 1-3 0 1.5 1.5 0 0 1 3 0z"/></g><g><path fill="#ccf381" d="M283.188 193.811a1.5 1.5 0 1 1-3 0 1.5 1.5 0 0 1 3 0z"/></g><g><path fill="#ccf381" d="M302.155 193.811a1.5 1.5 0 1 1-3 0 1.5 1.5 0 0 1 3 0z"/></g><g><path fill="#ccf381" d="M321.123 193.811a1.5 1.5 0 1 1-3 0 1.5 1.5 0 0 1 3 0z"/></g><g><path fill="#4831d4" d="M692.477 418.551a1.5 1.5 0 1 1-3.001 0 1.5 1.5 0 0 1 3 0z"/></g><g><path fill="#4831d4" d="M711.444 418.551a1.5 1.5 0 1 1-3 0 1.5 1.5 0 0 1 3 0z"/></g><g><path fill="#4831d4" d="M730.412 418.551a1.5 1.5 0 1 1-3.001 0 1.5 1.5 0 0 1 3.001 0z"/></g><g><path fill="#4831d4" d="M749.38 418.551a1.5 1.5 0 1 1-3.001 0 1.5 1.5 0 0 1 3 0z"/></g><g><path fill="#4831d4" d="M768.348 418.551a1.5 1.5 0 1 1-3.001 0 1.5 1.5 0 0 1 3 0z"/></g><g><path fill="#4831d4" d="M787.315 418.551a1.5 1.5 0 1 1-3 0 1.5 1.5 0 0 1 3 0z"/></g><g><path fill="#4831d4" d="M806.283 418.551a1.5 1.5 0 1 1-3 0 1.5 1.5 0 0 1 3 0z"/></g><g><path fill="#4831d4" d="M825.252 418.551a1.5 1.5 0 1 1-3.001 0 1.5 1.5 0 0 1 3.001 0z"/></g><g><path fill="#4831d4" d="M844.22 418.551a1.5 1.5 0 1 1-3.001 0 1.5 1.5 0 0 1 3 0z"/></g><g><path fill="#4831d4" d="M863.188 418.551a1.5 1.5 0 1 1-3.002 0 1.5 1.5 0 0 1 3.001 0z"/></g><g><path fill="#4831d4" d="M882.155 418.551a1.5 1.5 0 1 1-3 0 1.5 1.5 0 0 1 3 0z"/></g><g><path fill="#4831d4" d="M901.123 418.551a1.5 1.5 0 1 1-3.001 0 1.5 1.5 0 0 1 3.001 0z"/></g><g><path fill="#4831d4" d="M692.477 437.774a1.5 1.5 0 1 1-3.001-.001 1.5 1.5 0 0 1 3 .001z"/></g><g><path fill="#4831d4" d="M711.444 437.774a1.5 1.5 0 1 1-3-.001 1.5 1.5 0 0 1 3 .001z"/></g><g><path fill="#4831d4" d="M730.412 437.774a1.5 1.5 0 1 1-3.001-.001 1.5 1.5 0 0 1 3.001.001z"/></g><g><path fill="#4831d4" d="M749.38 437.774a1.5 1.5 0 1 1-3.001-.001 1.5 1.5 0 0 1 3 .001z"/></g><g><path fill="#4831d4" d="M768.348 437.774a1.5 1.5 0 1 1-3.001-.001 1.5 1.5 0 0 1 3 .001z"/></g><g><path fill="#4831d4" d="M787.315 437.774a1.5 1.5 0 1 1-3 0 1.5 1.5 0 0 1 3 0z"/></g><g><path fill="#4831d4" d="M806.283 437.774a1.5 1.5 0 1 1-3 0 1.5 1.5 0 0 1 3 0z"/></g><g><path fill="#4831d4" d="M825.252 437.774a1.5 1.5 0 1 1-3.001-.001 1.5 1.5 0 0 1 3.001.001z"/></g><g><path fill="#4831d4" d="M844.22 437.774a1.5 1.5 0 1 1-3.001-.001 1.5 1.5 0 0 1 3 .001z"/></g><g><path fill="#4831d4" d="M863.188 437.774a1.5 1.5 0 1 1-3.002-.001 1.5 1.5 0 0 1 3.001.001z"/></g><g><path fill="#4831d4" d="M882.155 437.774a1.5 1.5 0 1 1-3-.001 1.5 1.5 0 0 1 3 .001z"/></g><g><path fill="#4831d4" d="M901.123 437.774a1.5 1.5 0 1 1-3.001-.001 1.5 1.5 0 0 1 3.001.001z"/></g><g><path fill="#4831d4" d="M692.477 456.998a1.5 1.5 0 1 1-3.001-.001 1.5 1.5 0 0 1 3 0z"/></g><g><path fill="#4831d4" d="M711.444 456.998a1.5 1.5 0 1 1-3-.001 1.5 1.5 0 0 1 3 0z"/></g><g><path fill="#4831d4" d="M730.412 456.998a1.5 1.5 0 1 1-3.001-.001 1.5 1.5 0 0 1 3.001 0z"/></g><g><path fill="#4831d4" d="M749.38 456.998a1.5 1.5 0 1 1-3.001-.001 1.5 1.5 0 0 1 3 0z"/></g><g><path fill="#4831d4" d="M768.348 456.998a1.5 1.5 0 1 1-3.001-.001 1.5 1.5 0 0 1 3 0z"/></g><g><path fill="#4831d4" d="M787.315 456.998a1.5 1.5 0 1 1-3 0 1.5 1.5 0 0 1 3 0z"/></g><g><path fill="#4831d4" d="M806.283 456.998a1.5 1.5 0 1 1-3 0 1.5 1.5 0 0 1 3 0z"/></g><g><path fill="#4831d4" d="M825.252 456.998a1.5 1.5 0 1 1-3.001-.001 1.5 1.5 0 0 1 3.001 0z"/></g><g><path fill="#4831d4" d="M844.22 456.998a1.5 1.5 0 1 1-3.001-.001 1.5 1.5 0 0 1 3 0z"/></g><g><path fill="#4831d4" d="M863.188 456.998a1.5 1.5 0 1 1-3.002-.001 1.5 1.5 0 0 1 3.001 0z"/></g><g><path fill="#4831d4" d="M882.155 456.998a1.5 1.5 0 1 1-3-.001 1.5 1.5 0 0 1 3 0z"/></g><g><path fill="#4831d4" d="M901.123 456.998a1.5 1.5 0 1 1-3.001-.001 1.5 1.5 0 0 1 3.001 0z"/></g><g><path fill="#4831d4" d="M692.477 476.22a1.5 1.5 0 1 1-3.001 0 1.5 1.5 0 0 1 3 0z"/></g><g><path fill="#4831d4" d="M711.444 476.22a1.5 1.5 0 1 1-3 0 1.5 1.5 0 0 1 3 0z"/></g><g><path fill="#4831d4" d="M730.412 476.22a1.5 1.5 0 1 1-3.001 0 1.5 1.5 0 0 1 3.001 0z"/></g><g><path fill="#4831d4" d="M749.38 476.22a1.5 1.5 0 1 1-3.001 0 1.5 1.5 0 0 1 3 0z"/></g><g><path fill="#4831d4" d="M768.348 476.22a1.5 1.5 0 1 1-3.001 0 1.5 1.5 0 0 1 3 0z"/></g><g><path fill="#4831d4" d="M787.315 476.22a1.5 1.5 0 1 1-3 0 1.5 1.5 0 0 1 3 0z"/></g><g><path fill="#4831d4" d="M806.283 476.22a1.5 1.5 0 1 1-3 0 1.5 1.5 0 0 1 3 0z"/></g><g><path fill="#4831d4" d="M825.252 476.22a1.5 1.5 0 1 1-3.001 0 1.5 1.5 0 0 1 3.001 0z"/></g><g><path fill="#4831d4" d="M844.22 476.22a1.5 1.5 0 1 1-3.001 0 1.5 1.5 0 0 1 3 0z"/></g><g><path fill="#4831d4" d="M863.188 476.22a1.5 1.5 0 1 1-3.002 0 1.5 1.5 0 0 1 3.001 0z"/></g><g><path fill="#4831d4" d="M882.155 476.22a1.5 1.5 0 1 1-3 0 1.5 1.5 0 0 1 3 0z"/></g><g><path fill="#4831d4" d="M901.123 476.22a1.5 1.5 0 1 1-3.001 0 1.5 1.5 0 0 1 3.001 0z"/></g><g><path fill="#4831d4" d="M692.477 495.443a1.5 1.5 0 1 1-3 0 1.5 1.5 0 0 1 3 0z"/></g><g><path fill="#4831d4" d="M711.444 495.443a1.5 1.5 0 1 1-3 0 1.5 1.5 0 0 1 3 0z"/></g><g><path fill="#4831d4" d="M730.412 495.443a1.5 1.5 0 1 1-3 0 1.5 1.5 0 0 1 3 0z"/></g><g><path fill="#4831d4" d="M749.38 495.443a1.5 1.5 0 1 1-3 0 1.5 1.5 0 0 1 3 0z"/></g><g><path fill="#4831d4" d="M768.348 495.443a1.5 1.5 0 1 1-3 0 1.5 1.5 0 0 1 3 0z"/></g><g><path fill="#4831d4" d="M787.315 495.443a1.5 1.5 0 1 1-2.998.001 1.5 1.5 0 0 1 2.998-.001z"/></g><g><path fill="#4831d4" d="M806.283 495.443a1.5 1.5 0 1 1-2.998.001 1.5 1.5 0 0 1 2.998-.001z"/></g><g><path fill="#4831d4" d="M825.252 495.443a1.5 1.5 0 1 1-3 0 1.5 1.5 0 0 1 3 0z"/></g><g><path fill="#4831d4" d="M844.22 495.443a1.5 1.5 0 1 1-3 0 1.5 1.5 0 0 1 3 0z"/></g><g><path fill="#4831d4" d="M863.188 495.443a1.5 1.5 0 1 1-3 0 1.5 1.5 0 0 1 3 0z"/></g><g><path fill="#4831d4" d="M882.155 495.443a1.5 1.5 0 1 1-3 0 1.5 1.5 0 0 1 3 0z"/></g><g><path fill="#4831d4" d="M901.123 495.443a1.5 1.5 0 1 1-3 0 1.5 1.5 0 0 1 3 0z"/></g><g><path fill="#4831d4" d="M692.477 514.667a1.5 1.5 0 1 1-3.001-.001 1.5 1.5 0 0 1 3 0z"/></g><g><path fill="#4831d4" d="M711.444 514.667a1.5 1.5 0 1 1-3-.001 1.5 1.5 0 0 1 3 0z"/></g><g><path fill="#4831d4" d="M730.412 514.667a1.5 1.5 0 1 1-3.001-.001 1.5 1.5 0 0 1 3.001 0z"/></g><g><path fill="#4831d4" d="M749.38 514.667a1.5 1.5 0 1 1-3.001-.001 1.5 1.5 0 0 1 3 0z"/></g><g><path fill="#4831d4" d="M768.348 514.667a1.5 1.5 0 1 1-3.001-.001 1.5 1.5 0 0 1 3 0z"/></g><g><path fill="#4831d4" d="M787.315 514.667a1.5 1.5 0 1 1-3 0 1.5 1.5 0 0 1 3 0z"/></g><g><path fill="#4831d4" d="M806.283 514.667a1.5 1.5 0 1 1-3 0 1.5 1.5 0 0 1 3 0z"/></g><g><path fill="#4831d4" d="M825.252 514.667a1.5 1.5 0 1 1-3.001-.001 1.5 1.5 0 0 1 3.001 0z"/></g><g><path fill="#4831d4" d="M844.22 514.667a1.5 1.5 0 1 1-3.001-.001 1.5 1.5 0 0 1 3 0z"/></g><g><path fill="#4831d4" d="M863.188 514.667a1.5 1.5 0 1 1-3.002-.001 1.5 1.5 0 0 1 3.001 0z"/></g><g><path fill="#4831d4" d="M882.155 514.667a1.5 1.5 0 1 1-3-.001 1.5 1.5 0 0 1 3 0z"/></g><g><path fill="#4831d4" d="M901.123 514.667a1.5 1.5 0 1 1-3.001-.001 1.5 1.5 0 0 1 3.001 0z"/></g><g><path fill="#4831d4" d="M692.477 533.89a1.5 1.5 0 1 1-3 0 1.5 1.5 0 0 1 3 0z"/></g><g><path fill="#4831d4" d="M711.444 533.89a1.5 1.5 0 1 1-3 0 1.5 1.5 0 0 1 3 0z"/></g><g><path fill="#4831d4" d="M730.412 533.89a1.5 1.5 0 1 1-3 0 1.5 1.5 0 0 1 3 0z"/></g><g><path fill="#4831d4" d="M749.38 533.89a1.5 1.5 0 1 1-3 0 1.5 1.5 0 0 1 3 0z"/></g><g><path fill="#4831d4" d="M768.348 533.89a1.5 1.5 0 1 1-3 0 1.5 1.5 0 0 1 3 0z"/></g><g><path fill="#4831d4" d="M787.315 533.89a1.5 1.5 0 1 1-2.998 0 1.5 1.5 0 0 1 2.998 0z"/></g><g><path fill="#4831d4" d="M806.283 533.89a1.5 1.5 0 1 1-2.998 0 1.5 1.5 0 0 1 2.998 0z"/></g><g><path fill="#4831d4" d="M825.252 533.89a1.5 1.5 0 1 1-3 0 1.5 1.5 0 0 1 3 0z"/></g><g><path fill="#4831d4" d="M844.22 533.89a1.5 1.5 0 1 1-3 0 1.5 1.5 0 0 1 3 0z"/></g><g><path fill="#4831d4" d="M863.188 533.89a1.5 1.5 0 1 1-3 0 1.5 1.5 0 0 1 3 0z"/></g><g><path fill="#4831d4" d="M882.155 533.89a1.5 1.5 0 1 1-3 0 1.5 1.5 0 0 1 3 0z"/></g><g><path fill="#4831d4" d="M901.123 533.89a1.5 1.5 0 1 1-3 0 1.5 1.5 0 0 1 3 0z"/></g><g><path fill="#4831d4" d="M692.477 553.113a1.5 1.5 0 1 1-3.001-.001 1.5 1.5 0 0 1 3 .001z"/></g><g><path fill="#4831d4" d="M711.444 553.113a1.5 1.5 0 1 1-3-.001 1.5 1.5 0 0 1 3 .001z"/></g><g><path fill="#4831d4" d="M730.412 553.113a1.5 1.5 0 1 1-3.001-.001 1.5 1.5 0 0 1 3.001.001z"/></g><g><path fill="#4831d4" d="M749.38 553.113a1.5 1.5 0 1 1-3.001-.001 1.5 1.5 0 0 1 3 .001z"/></g><g><path fill="#4831d4" d="M768.348 553.113a1.5 1.5 0 1 1-3.001-.001 1.5 1.5 0 0 1 3 .001z"/></g><g><path fill="#4831d4" d="M787.315 553.113a1.5 1.5 0 1 1-3 0 1.5 1.5 0 0 1 3 0z"/></g><g><path fill="#4831d4" d="M806.283 553.113a1.5 1.5 0 1 1-3 0 1.5 1.5 0 0 1 3 0z"/></g><g><path fill="#4831d4" d="M825.252 553.113a1.5 1.5 0 1 1-3.001-.001 1.5 1.5 0 0 1 3.001.001z"/></g><g><path fill="#4831d4" d="M844.22 553.113a1.5 1.5 0 1 1-3.001-.001 1.5 1.5 0 0 1 3 .001z"/></g><g><path fill="#4831d4" d="M863.188 553.113a1.5 1.5 0 1 1-3.002-.001 1.5 1.5 0 0 1 3.001.001z"/></g><g><path fill="#4831d4" d="M882.155 553.113a1.5 1.5 0 1 1-3-.001 1.5 1.5 0 0 1 3 .001z"/></g><g><path fill="#4831d4" d="M901.123 553.113a1.5 1.5 0 1 1-3.001-.001 1.5 1.5 0 0 1 3.001.001z"/></g><g><path fill="#4831d4" d="M692.477 572.336a1.5 1.5 0 1 1-3.001-.001 1.5 1.5 0 0 1 3 0z"/></g><g><path fill="#4831d4" d="M711.444 572.336a1.5 1.5 0 1 1-3-.001 1.5 1.5 0 0 1 3 0z"/></g><g><path fill="#4831d4" d="M730.412 572.336a1.5 1.5 0 1 1-3.001-.001 1.5 1.5 0 0 1 3.001 0z"/></g><g><path fill="#4831d4" d="M749.38 572.336a1.5 1.5 0 1 1-3.001-.001 1.5 1.5 0 0 1 3 0z"/></g><g><path fill="#4831d4" d="M768.348 572.336a1.5 1.5 0 1 1-3.001-.001 1.5 1.5 0 0 1 3 0z"/></g><g><path fill="#4831d4" d="M787.315 572.336a1.5 1.5 0 1 1-3 0 1.5 1.5 0 0 1 3 0z"/></g><g><path fill="#4831d4" d="M806.283 572.336a1.5 1.5 0 1 1-3 0 1.5 1.5 0 0 1 3 0z"/></g><g><path fill="#4831d4" d="M825.252 572.336a1.5 1.5 0 1 1-3.001-.001 1.5 1.5 0 0 1 3.001 0z"/></g><g><path fill="#4831d4" d="M844.22 572.336a1.5 1.5 0 1 1-3.001-.001 1.5 1.5 0 0 1 3 0z"/></g><g><path fill="#4831d4" d="M863.188 572.336a1.5 1.5 0 1 1-3.002-.001 1.5 1.5 0 0 1 3.001 0z"/></g><g><path fill="#4831d4" d="M882.155 572.336a1.5 1.5 0 1 1-3-.001 1.5 1.5 0 0 1 3 0z"/></g><g><path fill="#4831d4" d="M901.123 572.336a1.5 1.5 0 1 1-3.001-.001 1.5 1.5 0 0 1 3.001 0z"/></g><g><path fill="#4831d4" d="M692.477 591.558a1.5 1.5 0 1 1-3 0 1.5 1.5 0 0 1 3 0z"/></g><g><path fill="#4831d4" d="M711.444 591.558a1.5 1.5 0 1 1-3 0 1.5 1.5 0 0 1 3 0z"/></g><g><path fill="#4831d4" d="M730.412 591.558a1.5 1.5 0 1 1-3 0 1.5 1.5 0 0 1 3 0z"/></g><g><path fill="#4831d4" d="M749.38 591.558a1.5 1.5 0 1 1-3 0 1.5 1.5 0 0 1 3 0z"/></g><g><path fill="#4831d4" d="M768.348 591.558a1.5 1.5 0 1 1-3 0 1.5 1.5 0 0 1 3 0z"/></g><g><path fill="#4831d4" d="M787.315 591.558a1.5 1.5 0 1 1-2.998.002 1.5 1.5 0 0 1 2.998-.002z"/></g><g><path fill="#4831d4" d="M806.283 591.558a1.5 1.5 0 1 1-2.998.002 1.5 1.5 0 0 1 2.998-.002z"/></g><g><path fill="#4831d4" d="M825.252 591.558a1.5 1.5 0 1 1-3 0 1.5 1.5 0 0 1 3 0z"/></g><g><path fill="#4831d4" d="M844.22 591.558a1.5 1.5 0 1 1-3 0 1.5 1.5 0 0 1 3 0z"/></g><g><path fill="#4831d4" d="M863.188 591.558a1.5 1.5 0 1 1-3 0 1.5 1.5 0 0 1 3 0z"/></g><g><path fill="#4831d4" d="M882.155 591.558a1.5 1.5 0 1 1-3 0 1.5 1.5 0 0 1 3 0z"/></g><g><path fill="#4831d4" d="M901.123 591.558a1.5 1.5 0 1 1-3 0 1.5 1.5 0 0 1 3 0z"/></g><g><path fill="#4831d4" d="M692.477 610.782a1.5 1.5 0 1 1-3.001-.001 1.5 1.5 0 0 1 3 0z"/></g><g><path fill="#4831d4" d="M711.444 610.782a1.5 1.5 0 1 1-3-.001 1.5 1.5 0 0 1 3 0z"/></g><g><path fill="#4831d4" d="M730.412 610.782a1.5 1.5 0 1 1-3.001-.001 1.5 1.5 0 0 1 3.001 0z"/></g><g><path fill="#4831d4" d="M749.38 610.782a1.5 1.5 0 1 1-3.001-.001 1.5 1.5 0 0 1 3 0z"/></g><g><path fill="#4831d4" d="M768.348 610.782a1.5 1.5 0 1 1-3.001-.001 1.5 1.5 0 0 1 3 0z"/></g><g><path fill="#4831d4" d="M787.315 610.782a1.5 1.5 0 1 1-3 0 1.5 1.5 0 0 1 3 0z"/></g><g><path fill="#4831d4" d="M806.283 610.782a1.5 1.5 0 1 1-3 0 1.5 1.5 0 0 1 3 0z"/></g><g><path fill="#4831d4" d="M825.252 610.782a1.5 1.5 0 1 1-3.001-.001 1.5 1.5 0 0 1 3.001 0z"/></g><g><path fill="#4831d4" d="M844.22 610.782a1.5 1.5 0 1 1-3.001-.001 1.5 1.5 0 0 1 3 0z"/></g><g><path fill="#4831d4" d="M863.188 610.782a1.5 1.5 0 1 1-3.002-.001 1.5 1.5 0 0 1 3.001 0z"/></g><g><path fill="#4831d4" d="M882.155 610.782a1.5 1.5 0 1 1-3-.001 1.5 1.5 0 0 1 3 0z"/></g><g><path fill="#4831d4" d="M901.123 610.782a1.5 1.5 0 1 1-3.001-.001 1.5 1.5 0 0 1 3.001 0z"/></g><g><path fill="none" stroke="#4831d4" stroke-miterlimit="50" stroke-width="2" d="M846.646 332.048v0l22.258.562v0l-.56-22.26v0l22.258.56v0l-.56-22.258v0l22.259.56v0l-.56-22.257v0l22.26.559v0l-.56-22.26v0"/></g><g><path fill="none" stroke="#ccf381" stroke-miterlimit="50" stroke-width="2" d="M2.114 541.705v0l-.56 22.258v0l22.258-.561v0l-.56 22.259v0l22.258-.56v0l-.56 22.258v0l22.258-.56v0l-.559 22.26v0l22.26-.56v0"/></g></g></svg>
