
<svg xmlns="http://www.w3.org/2000/svg" width="1003" height="722" viewBox="0 0 1003 722"><defs><clipPath id="t695a"><path d="M546.094 131.031l-13.335 78.649s-50.529 80.803-70.114 85.057c-74.333 16.139-66.457 110.646-55.036 165.626 4.459 21.486 27.429 33.556 47.69 25.145l25.816-10.715 81.049-33.659-10.435-32.039 30.213-17.199-43.767-74.183 48.793-67.426a55.609 55.609 0 0 0 10.407-28.626l6.873-96.565z"/></clipPath><clipPath id="t695b"><path d="M546.094 131.031l-13.335 78.649s-50.529 80.803-70.114 85.057c-74.333 16.139-66.457 110.646-55.036 165.626 4.459 21.486 27.429 33.556 47.69 25.145l25.816-10.715 81.049-33.659-10.435-32.039 30.213-17.199-43.767-74.183 48.793-67.426a55.609 55.609 0 0 0 10.407-28.626l6.873-96.565z"/></clipPath><clipPath id="t695c"><path d="M546.094 131.031l-13.335 78.649s-50.529 80.803-70.114 85.057c-74.333 16.139-66.457 110.646-55.036 165.626 4.459 21.486 27.429 33.556 47.69 25.145l25.816-10.715 81.049-33.659-10.435-32.039 30.213-17.199-43.767-74.183 48.793-67.426a55.609 55.609 0 0 0 10.407-28.626l6.873-96.565z"/></clipPath><clipPath id="t695d"><path d="M546.094 131.031l-13.335 78.649s-50.529 80.803-70.114 85.057c-74.333 16.139-66.457 110.646-55.036 165.626 4.459 21.486 27.429 33.556 47.69 25.145l25.816-10.715 81.049-33.659-10.435-32.039 30.213-17.199-43.767-74.183 48.793-67.426a55.609 55.609 0 0 0 10.407-28.626l6.873-96.565z"/></clipPath><clipPath id="t695e"><path d="M546.094 131.031l-13.335 78.649s-50.529 80.803-70.114 85.057c-74.333 16.139-66.457 110.646-55.036 165.626 4.459 21.486 27.429 33.556 47.69 25.145l25.816-10.715 81.049-33.659-10.435-32.039 30.213-17.199-43.767-74.183 48.793-67.426a55.609 55.609 0 0 0 10.407-28.626l6.873-96.565z"/></clipPath><clipPath id="t695f"><path d="M546.094 131.031l-13.335 78.649s-50.529 80.803-70.114 85.057c-74.333 16.139-66.457 110.646-55.036 165.626 4.459 21.486 27.429 33.556 47.69 25.145l25.816-10.715 81.049-33.659-10.435-32.039 30.213-17.199-43.767-74.183 48.793-67.426a55.609 55.609 0 0 0 10.407-28.626l6.873-96.565z"/></clipPath><clipPath id="t695g"><path d="M546.094 131.031l-13.335 78.649s-50.529 80.803-70.114 85.057c-74.333 16.139-66.457 110.646-55.036 165.626 4.459 21.486 27.429 33.556 47.69 25.145l25.816-10.715 81.049-33.659-10.435-32.039 30.213-17.199-43.767-74.183 48.793-67.426a55.609 55.609 0 0 0 10.407-28.626l6.873-96.565z"/></clipPath><clipPath id="t695h"><path d="M546.094 131.031l-13.335 78.649s-50.529 80.803-70.114 85.057c-74.333 16.139-66.457 110.646-55.036 165.626 4.459 21.486 27.429 33.556 47.69 25.145l25.816-10.715 81.049-33.659-10.435-32.039 30.213-17.199-43.767-74.183 48.793-67.426a55.609 55.609 0 0 0 10.407-28.626l6.873-96.565z"/></clipPath><clipPath id="t695i"><path d="M546.094 131.031l-13.335 78.649s-50.529 80.803-70.114 85.057c-74.333 16.139-66.457 110.646-55.036 165.626 4.459 21.486 27.429 33.556 47.69 25.145l25.816-10.715 81.049-33.659-10.435-32.039 30.213-17.199-43.767-74.183 48.793-67.426a55.609 55.609 0 0 0 10.407-28.626l6.873-96.565z"/></clipPath><clipPath id="t695j"><path d="M546.094 131.031l-13.335 78.649s-50.529 80.803-70.114 85.057c-74.333 16.139-66.457 110.646-55.036 165.626 4.459 21.486 27.429 33.556 47.69 25.145l25.816-10.715 81.049-33.659-10.435-32.039 30.213-17.199-43.767-74.183 48.793-67.426a55.609 55.609 0 0 0 10.407-28.626l6.873-96.565z"/></clipPath><clipPath id="t695k"><path d="M546.094 131.031l-13.335 78.649s-50.529 80.803-70.114 85.057c-74.333 16.139-66.457 110.646-55.036 165.626 4.459 21.486 27.429 33.556 47.69 25.145l25.816-10.715 81.049-33.659-10.435-32.039 30.213-17.199-43.767-74.183 48.793-67.426a55.609 55.609 0 0 0 10.407-28.626l6.873-96.565z"/></clipPath><clipPath id="t695l"><path d="M546.094 131.031l-13.335 78.649s-50.529 80.803-70.114 85.057c-74.333 16.139-66.457 110.646-55.036 165.626 4.459 21.486 27.429 33.556 47.69 25.145l25.816-10.715 81.049-33.659-10.435-32.039 30.213-17.199-43.767-74.183 48.793-67.426a55.609 55.609 0 0 0 10.407-28.626l6.873-96.565z"/></clipPath><clipPath id="t695m"><path d="M546.094 131.031l-13.335 78.649s-50.529 80.803-70.114 85.057c-74.333 16.139-66.457 110.646-55.036 165.626 4.459 21.486 27.429 33.556 47.69 25.145l25.816-10.715 81.049-33.659-10.435-32.039 30.213-17.199-43.767-74.183 48.793-67.426a55.609 55.609 0 0 0 10.407-28.626l6.873-96.565z"/></clipPath><clipPath id="t695n"><path d="M546.094 131.031l-13.335 78.649s-50.529 80.803-70.114 85.057c-74.333 16.139-66.457 110.646-55.036 165.626 4.459 21.486 27.429 33.556 47.69 25.145l25.816-10.715 81.049-33.659-10.435-32.039 30.213-17.199-43.767-74.183 48.793-67.426a55.609 55.609 0 0 0 10.407-28.626l6.873-96.565z"/></clipPath><clipPath id="t695o"><path d="M546.094 131.031l-13.335 78.649s-50.529 80.803-70.114 85.057c-74.333 16.139-66.457 110.646-55.036 165.626 4.459 21.486 27.429 33.556 47.69 25.145l25.816-10.715 81.049-33.659-10.435-32.039 30.213-17.199-43.767-74.183 48.793-67.426a55.609 55.609 0 0 0 10.407-28.626l6.873-96.565z"/></clipPath><clipPath id="t695p"><path d="M546.094 131.031l-13.335 78.649s-50.529 80.803-70.114 85.057c-74.333 16.139-66.457 110.646-55.036 165.626 4.459 21.486 27.429 33.556 47.69 25.145l25.816-10.715 81.049-33.659-10.435-32.039 30.213-17.199-43.767-74.183 48.793-67.426a55.609 55.609 0 0 0 10.407-28.626l6.873-96.565z"/></clipPath><clipPath id="t695q"><path d="M546.094 131.031l-13.335 78.649s-50.529 80.803-70.114 85.057c-74.333 16.139-66.457 110.646-55.036 165.626 4.459 21.486 27.429 33.556 47.69 25.145l25.816-10.715 81.049-33.659-10.435-32.039 30.213-17.199-43.767-74.183 48.793-67.426a55.609 55.609 0 0 0 10.407-28.626l6.873-96.565z"/></clipPath><clipPath id="t695r"><path d="M546.094 131.031l-13.335 78.649s-50.529 80.803-70.114 85.057c-74.333 16.139-66.457 110.646-55.036 165.626 4.459 21.486 27.429 33.556 47.69 25.145l25.816-10.715 81.049-33.659-10.435-32.039 30.213-17.199-43.767-74.183 48.793-67.426a55.609 55.609 0 0 0 10.407-28.626l6.873-96.565z"/></clipPath><clipPath id="t695s"><path d="M546.094 131.031l-13.335 78.649s-50.529 80.803-70.114 85.057c-74.333 16.139-66.457 110.646-55.036 165.626 4.459 21.486 27.429 33.556 47.69 25.145l25.816-10.715 81.049-33.659-10.435-32.039 30.213-17.199-43.767-74.183 48.793-67.426a55.609 55.609 0 0 0 10.407-28.626l6.873-96.565z"/></clipPath><clipPath id="t695t"><path d="M546.094 131.031l-13.335 78.649s-50.529 80.803-70.114 85.057c-74.333 16.139-66.457 110.646-55.036 165.626 4.459 21.486 27.429 33.556 47.69 25.145l25.816-10.715 81.049-33.659-10.435-32.039 30.213-17.199-43.767-74.183 48.793-67.426a55.609 55.609 0 0 0 10.407-28.626l6.873-96.565z"/></clipPath><clipPath id="t695u"><path d="M546.094 131.031l-13.335 78.649s-50.529 80.803-70.114 85.057c-74.333 16.139-66.457 110.646-55.036 165.626 4.459 21.486 27.429 33.556 47.69 25.145l25.816-10.715 81.049-33.659-10.435-32.039 30.213-17.199-43.767-74.183 48.793-67.426a55.609 55.609 0 0 0 10.407-28.626l6.873-96.565z"/></clipPath><clipPath id="t695v"><path d="M546.094 131.031l-13.335 78.649s-50.529 80.803-70.114 85.057c-74.333 16.139-66.457 110.646-55.036 165.626 4.459 21.486 27.429 33.556 47.69 25.145l25.816-10.715 81.049-33.659-10.435-32.039 30.213-17.199-43.767-74.183 48.793-67.426a55.609 55.609 0 0 0 10.407-28.626l6.873-96.565z"/></clipPath><clipPath id="t695w"><path d="M546.094 131.031l-13.335 78.649s-50.529 80.803-70.114 85.057c-74.333 16.139-66.457 110.646-55.036 165.626 4.459 21.486 27.429 33.556 47.69 25.145l25.816-10.715 81.049-33.659-10.435-32.039 30.213-17.199-43.767-74.183 48.793-67.426a55.609 55.609 0 0 0 10.407-28.626l6.873-96.565z"/></clipPath><clipPath id="t695x"><path d="M546.094 131.031l-13.335 78.649s-50.529 80.803-70.114 85.057c-74.333 16.139-66.457 110.646-55.036 165.626 4.459 21.486 27.429 33.556 47.69 25.145l25.816-10.715 81.049-33.659-10.435-32.039 30.213-17.199-43.767-74.183 48.793-67.426a55.609 55.609 0 0 0 10.407-28.626l6.873-96.565z"/></clipPath></defs><g><g><path fill="none" stroke="#4831d4" stroke-miterlimit="50" stroke-width="2" d="M438.8 420.877h-36"/></g><g><path fill="none" stroke="#4831d4" stroke-miterlimit="50" stroke-width="2" d="M420.8 438.877v-36"/></g><g><path fill="none" stroke="#4831d4" stroke-miterlimit="50" stroke-width="2" d="M239.182 15.712a7.891 7.891 0 0 1-15.781 0 7.89 7.89 0 1 1 15.78 0z"/></g><g><path fill="none" stroke="#4831d4" stroke-miterlimit="50" stroke-width="2" d="M267.251 15.712a7.892 7.892 0 1 1-15.784 0 7.892 7.892 0 0 1 15.784 0z"/></g><g><path fill="none" stroke="#4831d4" stroke-miterlimit="50" stroke-width="2" d="M295.32 15.712a7.891 7.891 0 0 1-15.781 0 7.89 7.89 0 1 1 15.78 0z"/></g><g><path fill="none" stroke="#4831d4" stroke-miterlimit="50" stroke-width="2" d="M323.389 15.712a7.892 7.892 0 1 1-15.785 0 7.892 7.892 0 0 1 15.785 0z"/></g><g><path fill="none" stroke="#4831d4" stroke-miterlimit="50" stroke-width="2" d="M351.457 15.712a7.891 7.891 0 0 1-15.781 0 7.89 7.89 0 1 1 15.781 0z"/></g><g><path fill="none" stroke="#4831d4" stroke-miterlimit="50" stroke-width="2" d="M684.403 712.746a7.891 7.891 0 1 1-15.782 0 7.891 7.891 0 0 1 15.782 0z"/></g><g><path fill="none" stroke="#4831d4" stroke-miterlimit="50" stroke-width="2" d="M712.472 712.746a7.89 7.89 0 1 1-15.781 0 7.89 7.89 0 1 1 15.78 0z"/></g><g><path fill="none" stroke="#4831d4" stroke-miterlimit="50" stroke-width="2" d="M740.541 712.746a7.891 7.891 0 1 1-15.782 0 7.891 7.891 0 0 1 15.782 0z"/></g><g><path fill="none" stroke="#4831d4" stroke-miterlimit="50" stroke-width="2" d="M768.61 712.746a7.89 7.89 0 1 1-15.782 0 7.89 7.89 0 1 1 15.781 0z"/></g><g><path fill="none" stroke="#4831d4" stroke-miterlimit="50" stroke-width="2" d="M796.679 712.746a7.891 7.891 0 1 1-15.783 0 7.891 7.891 0 0 1 15.783 0z"/></g><g><path fill="none" stroke="#4831d4" stroke-miterlimit="50" stroke-width="2" d="M717.042 298.77v0l22.259.563v0l-.561-22.26v0l22.258.56v0l-.56-22.258v0l22.258.56v0l-.56-22.258v0l22.26.56v0l-.559-22.26v0"/></g><g><path fill="#efefef" d="M937.71 205.732c0 15.71-12.734 28.446-28.445 28.446-15.71 0-28.446-12.736-28.446-28.446s12.736-28.445 28.446-28.445 28.446 12.735 28.446 28.445z"/></g><g><path fill="#efefef" d="M929.01 156.538h-39.489V-.082h39.489z"/></g><g><path fill="#efefef" d="M396.217 405.967c0 15.711-12.735 28.446-28.446 28.446-15.71 0-28.446-12.735-28.446-28.446 0-15.71 12.736-28.445 28.446-28.445s28.446 12.735 28.446 28.445z"/></g><g><path fill="#efefef" d="M387.516 356.773h-39.489V200.154h39.489z"/></g><g><path fill="#efefef" d="M80.02 531.79c-50.688 0-82.078-55.204-56.159-98.764 25.334-42.578 86.984-42.578 112.318 0 25.919 43.56-5.471 98.763-56.159 98.763z"/></g><g><path fill="#efefef" d="M571.843 179.745c-50.688 0-82.078-55.204-56.158-98.764 25.334-42.577 86.982-42.577 112.316 0 25.92 43.56-5.47 98.764-56.158 98.764z"/></g><g><path fill="#efefef" d="M937.074 578.992c-50.688 0-82.078-55.204-56.158-98.765 25.334-42.576 86.982-42.576 112.316 0h.001c25.92 43.56-5.47 98.765-56.159 98.765z"/></g><g><path fill="#efefef" d="M162.35 215.482c0 15.71-12.734 28.446-28.445 28.446-15.71 0-28.446-12.736-28.446-28.446s12.736-28.445 28.446-28.445 28.446 12.735 28.446 28.445z"/></g><g><path fill="#efefef" d="M153.649 166.288H114.16V9.668h39.489z"/></g><g><path fill="#3361c2" d="M601.089 80.591l.062 5.163"/></g><g><path fill="#4831d4" d="M740.593 59.556V223.57H601.15V25.952h105.838z"/></g><g><path fill="#c9784b" d="M601.059 127.694h-.012l-26.241 1.113s10.952-54.035 26.24-59.888l.13 29.927c5.27-4.398 10.89-8.368 12.896-7.276 3.749 2.049-13.013 36.124-13.013 36.124z"/></g><g><path fill="none" stroke="#fff" stroke-linecap="square" stroke-miterlimit="50" stroke-width="1.5" d="M601.047 68.918s-13.46 1.447-26.241 59.183"/></g><g><path fill="#3d155f" d="M708.741 605.999l-.588 34.443c-.13 7.643 7.056 13.309 14.457 11.398l78.225-20.195c6.323-1.631 6.344-10.604.028-12.266l-36.227-9.531z"/></g><g><path fill="#3d155f" d="M795.498 276.285l23.645 1.742c7.621.562 13.682-6.29 12.196-13.786L817.53 194.6c-1.254-6.321-10.044-6.956-12.193-.88l-16.614 46.972z"/></g><g><path fill="#3d155f" d="M463.27 361.727l12.266 42.798 68.533-18.938 18.096 55.549L455.3 485.507c-20.265 8.413-43.234-3.659-47.695-25.143-11.414-54.98-19.293-149.489 55.041-165.631 19.583-4.252 70.112-85.051 70.112-85.051l13.336-78.652 58.152-5.934-6.872 96.568a55.544 55.544 0 0 1-10.406 28.62l-48.791 67.431 43.766 74.185-112.37 63.966z"/></g><g><path fill="#ccf381" d="M571.843 427.18c1.142-1.095 13.888-74.008 21.979-120.858a61.38 61.38 0 0 1 44.539-48.829L784.78 218.1l23.567 73.224-131.298 44.607-7.995 94.265z"/></g><g><path fill="#ccf381" d="M472.107 436.935l5.323 12.136c11.178 25.475 37.286 41.053 65.014 38.792l92.943-7.582 57.654 148.131s86.69-21.463 84.165-24.83c-1.767-2.354-41.619-111.143-65.415-176.328-10.234-28.032-38.558-45.196-68.145-41.298l-131.834 17.366z"/></g><g><path fill="#3d155f" d="M481.113 474.788l81.051-33.652-16.447-50.488-88.76 21.451z"/></g><g/><g clip-path="url(#t695a)"><path fill="#4831d4" d="M460.058 398.557c-.746 9.185-8.797 16.024-17.981 15.278-9.185-.747-16.025-8.798-15.278-17.982.746-9.185 8.797-16.025 17.982-15.277 9.184.747 16.024 8.796 15.277 17.981z"/></g><g/><g clip-path="url(#t695b)"><path fill="#4831d4" d="M527.219 404.018c-.747 9.185-8.798 16.024-17.981 15.277-9.185-.747-16.025-8.797-15.28-17.981.748-9.185 8.799-16.025 17.984-15.278 9.184.747 16.024 8.797 15.277 17.982z"/></g><g/><g clip-path="url(#t695c)"><path fill="#4831d4" d="M594.38 409.478c-.747 9.185-8.798 16.024-17.982 15.278-9.184-.747-16.025-8.798-15.278-17.982.747-9.184 8.798-16.025 17.982-15.277 9.184.747 16.024 8.797 15.278 17.981z"/></g><g/><g/><g clip-path="url(#t695d)"><path fill="#4831d4" d="M497.412 354.87c-.746 9.185-8.797 16.024-17.98 15.277-9.186-.747-16.026-8.798-15.279-17.981.746-9.185 8.797-16.025 17.982-15.278 9.184.747 16.024 8.797 15.277 17.982z"/></g><g/><g clip-path="url(#t695e)"><path fill="#4831d4" d="M564.573 360.33c-.747 9.185-8.798 16.024-17.98 15.278-9.186-.747-16.026-8.798-15.28-17.982.747-9.185 8.798-16.025 17.983-15.277 9.184.747 16.024 8.797 15.277 17.98z"/></g><g/><g clip-path="url(#t695f)"><path fill="#4831d4" d="M631.734 365.79c-.747 9.185-8.798 16.024-17.982 15.277-9.184-.746-16.025-8.797-15.278-17.98.747-9.185 8.798-16.025 17.982-15.277 9.184.746 16.024 8.796 15.278 17.98z"/></g><g/><g clip-path="url(#t695g)"><path fill="#4831d4" d="M430.252 349.409c-.747 9.185-8.798 16.024-17.982 15.277-9.185-.746-16.025-8.797-15.278-17.981.747-9.185 8.798-16.025 17.982-15.277 9.184.746 16.024 8.796 15.278 17.98z"/></g><g/><g clip-path="url(#t695h)"><path fill="#4831d4" d="M489.704 447.693c-.747 9.185-8.798 16.024-17.982 15.277-9.184-.746-16.025-8.797-15.278-17.981.747-9.185 8.798-16.025 17.982-15.277 9.184.746 16.024 8.796 15.278 17.98z"/></g><g/><g clip-path="url(#t695i)"><path fill="#4831d4" d="M556.864 453.154c-.746 9.184-8.797 16.024-17.98 15.277-9.186-.747-16.026-8.798-15.279-17.982.746-9.184 8.797-16.024 17.982-15.277 9.184.747 16.024 8.797 15.277 17.982z"/></g><g/><g clip-path="url(#t695j)"><path fill="#4831d4" d="M624.025 458.614c-.746 9.185-8.797 16.024-17.98 15.277-9.186-.746-16.026-8.797-15.279-17.981.746-9.185 8.797-16.025 17.982-15.277 9.184.746 16.024 8.796 15.277 17.98z"/></g><g/><g clip-path="url(#t695k)"><path fill="#4831d4" d="M422.543 442.232c-.747 9.185-8.798 16.024-17.981 15.278-9.185-.747-16.025-8.798-15.279-17.982.747-9.184 8.798-16.025 17.983-15.277 9.184.747 16.024 8.797 15.277 17.98z"/></g><g/><g clip-path="url(#t695l)"><path fill="#4831d4" d="M475.394 212.904c-.746 9.185-8.797 16.024-17.98 15.277-9.185-.746-16.025-8.797-15.278-17.981.745-9.185 8.796-16.025 17.981-15.277 9.184.746 16.024 8.796 15.277 17.98z"/></g><g/><g clip-path="url(#t695m)"><path fill="#4831d4" d="M542.556 218.365c-.747 9.185-8.797 16.024-17.981 15.277-9.185-.747-16.025-8.798-15.28-17.981.748-9.185 8.799-16.025 17.984-15.278 9.184.747 16.024 8.797 15.277 17.982z"/></g><g/><g clip-path="url(#t695n)"><path fill="#4831d4" d="M609.717 223.825c-.747 9.185-8.798 16.024-17.982 15.278-9.184-.747-16.025-8.798-15.278-17.982.747-9.185 8.798-16.025 17.983-15.277 9.183.747 16.023 8.797 15.277 17.98z"/></g><g/><g clip-path="url(#t695o)"><path fill="#4831d4" d="M408.234 207.444c-.747 9.184-8.798 16.024-17.982 15.277-9.184-.747-16.025-8.798-15.278-17.982.747-9.184 8.798-16.024 17.982-15.277 9.184.747 16.024 8.797 15.278 17.982z"/></g><g/><g clip-path="url(#t695p)"><path fill="#4831d4" d="M505.041 262.04c-.747 9.184-8.798 16.023-17.982 15.276-9.184-.746-16.025-8.797-15.278-17.98.747-9.186 8.798-16.026 17.982-15.279 9.184.747 16.024 8.797 15.278 17.982z"/></g><g/><g clip-path="url(#t695q)"><path fill="#4831d4" d="M572.202 267.5c-.747 9.184-8.798 16.023-17.982 15.277-9.185-.747-16.025-8.798-15.278-17.982.746-9.184 8.797-16.025 17.982-15.277 9.184.747 16.024 8.797 15.278 17.981z"/></g><g/><g/><g clip-path="url(#t695r)"><path fill="#4831d4" d="M437.88 256.579c-.747 9.185-8.798 16.024-17.981 15.278-9.185-.747-16.025-8.798-15.28-17.982.748-9.185 8.799-16.025 17.984-15.277 9.184.747 16.024 8.797 15.277 17.98z"/></g><g/><g clip-path="url(#t695s)"><path fill="#4831d4" d="M512.83 169.222c-.747 9.185-8.798 16.024-17.982 15.278-9.185-.747-16.025-8.798-15.278-17.982.747-9.185 8.797-16.025 17.982-15.277 9.184.747 16.024 8.797 15.278 17.981z"/></g><g/><g clip-path="url(#t695t)"><path fill="#4831d4" d="M579.99 174.683c-.746 9.185-8.797 16.024-17.98 15.277-9.186-.746-16.026-8.797-15.279-17.981.746-9.185 8.797-16.025 17.982-15.277 9.184.746 16.024 8.796 15.277 17.981z"/></g><g/><g/><g clip-path="url(#t695u)"><path fill="#4831d4" d="M445.669 163.762c-.747 9.185-8.798 16.024-17.982 15.277-9.184-.747-16.025-8.798-15.278-17.98.747-9.186 8.798-16.026 17.983-15.279 9.183.747 16.024 8.797 15.277 17.982z"/></g><g/><g clip-path="url(#t695v)"><path fill="#4831d4" d="M534.928 311.195c-.747 9.184-8.798 16.024-17.982 15.277-9.184-.747-16.025-8.798-15.278-17.981.747-9.185 8.798-16.025 17.982-15.278 9.184.747 16.024 8.797 15.278 17.982z"/></g><g/><g clip-path="url(#t695w)"><path fill="#4831d4" d="M602.088 316.655c-.746 9.185-8.797 16.024-17.981 15.278-9.185-.747-16.025-8.798-15.278-17.982.746-9.185 8.797-16.025 17.982-15.277 9.184.746 16.024 8.796 15.277 17.98z"/></g><g/><g clip-path="url(#t695x)"><path fill="#4831d4" d="M400.606 300.273c-.746 9.185-8.797 16.024-17.981 15.278-9.185-.747-16.025-8.798-15.278-17.982.746-9.184 8.797-16.025 17.982-15.277 9.183.747 16.023 8.797 15.276 17.98z"/></g><g><path fill="#3d155f" d="M462.958 319.3a17.45 17.45 0 0 1-2.056-.12c-9.564-1.124-16.408-9.789-15.285-19.354l7.593-64.649c1.123-9.565 9.786-16.41 19.352-15.285 9.566 1.124 16.409 9.788 15.286 19.353l-7.592 64.65c-1.043 8.873-8.577 15.405-17.298 15.405z"/></g><g><path fill="none" stroke="#fff" stroke-linecap="square" stroke-miterlimit="50" stroke-width="1.5" d="M646.102 481v0l-12.72-1.349v0l4.179-16.002v0"/></g><g><path fill="none" stroke="#fff" stroke-linecap="square" stroke-miterlimit="50" stroke-width="1.5" d="M458.662 409.6l11.438-2.856"/></g><g><path fill="#c9784b" d="M554.071 416.978c-.029-.089 23.821-21.816 23.821-21.816l28.211-5.92s-23.163-22.317-58.793 6.299z"/></g><g><path fill="none" stroke="#fff" stroke-linecap="square" stroke-miterlimit="50" stroke-width="1.5" d="M677.894 322.77v0l1.818 14.731v0l-18.88-.279v0"/></g><g><path fill="none" stroke="#fff" stroke-linecap="square" stroke-miterlimit="50" stroke-width="1.5" d="M459.763 361.712v0l10.256 45.232v0l74.05-21.357v0l10.407 31.95v0l24.065-23.599v0l65.75-8.658v0s19.049-3 28.376 2.99"/></g><g><path fill="#4831d4" d="M400.278 311.21v152.018H93.356V344.814l33.604-33.604z"/></g><g><path fill="#4831d4" d="M998.436 319.348v119.248H759.454l-33.605-33.603v-85.645z"/></g><g><path fill="#4831d4" d="M331.49 629.45h306.423V488.203H297.886v107.643z"/></g><g><path fill="#4831d4" d="M900.823 203.017h-59.757V102.41h59.757z"/></g><g><path fill="#4831d4" d="M890.408 550.13h-85.849v-70.479h85.849z"/></g><g><path fill="#ccf381" d="M333.306 102.204c-16.285 0-26.371-17.737-18.043-31.732 8.14-13.68 27.947-13.68 36.087 0 8.328 13.995-1.758 31.732-18.044 31.732z"/></g><g><path fill="#4831d4" d="M505.302 151.136c0 7.431-6.023 13.454-13.454 13.454-7.431 0-13.454-6.023-13.454-13.454 0-7.43 6.023-13.454 13.454-13.454 7.43 0 13.454 6.023 13.454 13.454z"/></g><g><path fill="#4831d4" d="M501.187 127.868h-18.678V53.791h18.678z"/></g><g><path fill="#ccf381" d="M251.482 432.72a4.663 4.663 0 1 1-9.325-.001 4.663 4.663 0 0 1 9.325 0z"/></g><g><path fill="#ccf381" d="M888.758 144.127a4.236 4.236 0 1 1-8.474 0 4.237 4.237 0 0 1 8.474 0z"/></g><g><path fill="#ccf381" d="M887.462 136.8h-5.882v-23.328h5.882z"/></g><g><path fill="none" stroke="#ffeb5c" stroke-miterlimit="50" stroke-width="2" d="M965.436 344.374h14.783"/></g><g><path fill="none" stroke="#ffeb5c" stroke-miterlimit="50" stroke-width="2" d="M972.827 336.983v14.783"/></g><g><path fill="none" stroke="#ffeb5c" stroke-miterlimit="50" stroke-width="2" d="M312.606 510.881h16.082"/></g><g><path fill="none" stroke="#ffeb5c" stroke-miterlimit="50" stroke-width="2" d="M320.647 502.84v16.082"/></g><g><path fill="none" stroke="#ffeb5c" stroke-miterlimit="50" stroke-width="2" d="M107.47 443.974h15.208"/></g><g><path fill="none" stroke="#ffeb5c" stroke-miterlimit="50" stroke-width="2" d="M115.074 436.37v15.207"/></g><g><path fill="none" stroke="#ffeb5c" stroke-miterlimit="50" stroke-width="2" d="M372.86 330.63h17.74"/></g><g><path fill="none" stroke="#ffeb5c" stroke-miterlimit="50" stroke-width="2" d="M381.73 321.76v17.738"/></g><g><path fill="none" stroke="#ffeb5c" stroke-miterlimit="50" stroke-width="2" d="M715.367 206.177h11.992"/></g><g><path fill="none" stroke="#ffeb5c" stroke-miterlimit="50" stroke-width="2" d="M721.363 200.181v11.992"/></g><g><path fill="none" stroke="#ffeb5c" stroke-miterlimit="50" stroke-width="2" d="M848.047 189.63h10.503"/></g><g><path fill="none" stroke="#ffeb5c" stroke-miterlimit="50" stroke-width="2" d="M853.299 184.377v10.503"/></g><g><path fill="none" stroke="#ffeb5c" stroke-miterlimit="50" stroke-width="2" d="M839.501 514.891h15.966"/></g><g><path fill="none" stroke="#ffeb5c" stroke-miterlimit="50" stroke-width="2" d="M847.483 506.909v15.965"/></g><g><path fill="#4831d4" d="M335.26 214.292a5.27 5.27 0 1 1-10.54.001 5.27 5.27 0 0 1 10.54 0z"/></g><g><path fill="#4831d4" d="M333.648 205.179h-7.315v-29.016h7.315z"/></g><g><path fill="none" stroke="#ffeb5c" stroke-miterlimit="50" stroke-width="2" d="M405.1 132.996l14.854 14.853"/></g><g><path fill="none" stroke="#ffeb5c" stroke-miterlimit="50" stroke-width="2" d="M419.953 132.996L405.1 147.85"/></g><g><path fill="#24272d" d="M481.052 296.978l-11.48-1.421 10.735 8.397z"/></g><g><path fill="none" stroke="#fff" stroke-linecap="square" stroke-miterlimit="50" stroke-width="1.5" d="M575.833 381.544s18.521-4.92 30.271 7.697"/></g><g><path fill="#ccf381" d="M481.108 546.606c7.19-.506 13.18 5.178 13.18 12.259 0 4.63-2.562 8.662-6.344 10.757-.419.23-.869.397-1.319.56a3.99 3.99 0 0 0-2.624 3.755c0 .948.33 1.816.88 2.5.094.12.198.235.307.345.568.701.905 1.596.905 2.567a4.099 4.099 0 0 1-4.549 4.072c-1.837-.197-3.347-1.653-3.603-3.482a4.083 4.083 0 0 1 .863-3.156c.11-.11.213-.225.308-.345.551-.684.88-1.552.88-2.5a3.99 3.99 0 0 0-2.625-3.755c-.442-.161-.886-.323-1.299-.55a12.286 12.286 0 0 1-6.338-11.561c.383-6.09 5.293-11.04 11.378-11.466zm.888 17.847a5.597 5.597 0 0 0 5.59-5.589 5.596 5.596 0 0 0-5.59-5.589 5.594 5.594 0 0 0-5.589 5.59 5.595 5.595 0 0 0 5.59 5.588z"/></g><g><path fill="#ccf381" d="M434.016 534.208h7.505v35.864h-7.505z"/></g><g><path fill="#ccf381" d="M467.789 547.2v22.873h-7.326v-3.083c-1.296 2.368-3.976 3.708-7.058 3.708-5.853 0-10.097-4.958-10.097-12.062 0-7.103 4.244-12.062 10.097-12.062 3.082 0 5.762 1.34 7.058 3.708V547.2zm-17.655 11.765c0 3.522 1.978 5.788 5.209 5.788 3.23 0 5.209-2.266 5.209-5.788 0-3.52-1.978-5.788-5.21-5.788-3.23 0-5.208 2.268-5.208 5.788z"/></g><g><path fill="#ccf381" d="M496.204 534.208h7.505v35.864h-7.505z"/></g><g><path fill="#ccf381" d="M506.3 547.2h7.506v12.91c0 2.592 1.117 3.888 3.306 3.888s3.306-1.296 3.306-3.887V547.2h7.505v13.983c0 5.942-3.976 9.516-10.811 9.516s-10.812-3.574-10.812-9.516z"/></g><g><path fill="#ccf381" d="M431.995 558.497v.14c.003 6.566-5.49 12.063-12.059 12.063-6.66 0-12.062-5.4-12.062-12.062 0-6.11 4.943-11.52 11.046-12.01 3.273-.263 6.624.847 9.071 3.044 2.473 2.22 3.962 5.502 4.003 8.825zm-12.058 5.956a5.596 5.596 0 0 0 5.589-5.588 5.594 5.594 0 0 0-5.59-5.59 5.592 5.592 0 0 0-5.587 5.59 5.593 5.593 0 0 0 5.588 5.588z"/></g><g><path fill="#ccf381" d="M667.544 185.749a6.013 6.013 0 0 1-2.297-2.297c-.55-.971-.823-2.058-.823-3.265 0-1.411.362-2.646 1.085-3.708.723-1.061 1.724-1.802 3.003-2.224v2.912c-.58.302-1.016.71-1.312 1.229-.295.519-.443 1.123-.443 1.809 0 .736.169 1.39.507 1.963.338.572.82 1.018 1.447 1.339.627.319 1.35.478 2.17.478.82 0 1.54-.16 2.162-.478a3.54 3.54 0 0 0 1.446-1.34c.344-.571.516-1.226.516-1.962 0-.686-.15-1.293-.452-1.817a3.041 3.041 0 0 0-1.321-1.221v-2.912c1.29.422 2.294 1.16 3.012 2.216.718 1.054 1.076 2.294 1.076 3.716 0 1.207-.274 2.294-.823 3.265a6.024 6.024 0 0 1-2.288 2.297c-.977.56-2.086.84-3.328.84-1.241 0-2.354-.28-3.337-.84z"/></g><g><path fill="#ccf381" d="M674.2 168.213c-.982.58-2.095.868-3.337.868-1.23 0-2.336-.289-3.319-.868a6.21 6.21 0 0 1-2.306-2.35 6.538 6.538 0 0 1-.832-3.256c0-1.195.277-2.282.832-3.266a6.17 6.17 0 0 1 2.306-2.333c.983-.572 2.09-.859 3.32-.859 1.241 0 2.354.287 3.336.86a6.14 6.14 0 0 1 2.306 2.342c.554.988.832 2.073.832 3.256a6.548 6.548 0 0 1-.832 3.255 6.204 6.204 0 0 1-2.306 2.351zm-1.157-8.97c-.62-.327-1.348-.49-2.18-.49-.832 0-1.559.163-2.18.49-.62.325-1.1.777-1.437 1.356-.338.578-.507 1.247-.507 2.008 0 .76.17 1.431.507 2.016a3.49 3.49 0 0 0 1.437 1.366c.621.325 1.348.488 2.18.488.832 0 1.56-.163 2.18-.488a3.555 3.555 0 0 0 1.446-1.366c.344-.585.516-1.257.516-2.016 0-.76-.172-1.43-.516-2.008a3.574 3.574 0 0 0-1.446-1.357z"/></g><g><path fill="#ccf381" d="M677.212 139.853v2.532l-8.664 5.734h8.664v2.532h-12.644v-2.532l8.682-5.734h-8.682v-2.532z"/></g><g><path fill="#ccf381" d="M666.559 131.208h3.273v-4.25h1.954v4.25h3.419v-4.793h2.007v7.324h-12.643v-7.325h1.99z"/></g><g><path fill="#ccf381" d="M667.544 120.274a6.013 6.013 0 0 1-2.297-2.297c-.55-.971-.823-2.06-.823-3.265 0-1.411.362-2.647 1.085-3.708.723-1.061 1.724-1.802 3.003-2.224v2.912c-.58.3-1.016.71-1.312 1.229-.295.519-.443 1.122-.443 1.809 0 .736.169 1.39.507 1.963.338.572.82 1.018 1.447 1.338.627.32 1.35.479 2.17.479.82 0 1.54-.16 2.162-.48a3.53 3.53 0 0 0 1.446-1.337c.344-.573.516-1.227.516-1.963 0-.687-.15-1.293-.452-1.817a3.041 3.041 0 0 0-1.321-1.221v-2.912c1.29.422 2.294 1.16 3.012 2.215s1.076 2.295 1.076 3.717c0 1.206-.274 2.294-.823 3.265a6.024 6.024 0 0 1-2.288 2.297c-.977.56-2.086.84-3.328.84-1.241 0-2.354-.28-3.337-.84z"/></g><g><path fill="#ccf381" d="M664.587 94.4h1.989v3.365h10.636v2.53h-10.636v3.366h-1.99z"/></g><g><path fill="#ccf381" d="M674.806 81.197v5.028l2.406.832v2.66l-12.644-4.54v-2.95l12.644-4.54v2.678zm-1.971.669l-5.336 1.846 5.336 1.844z"/></g><g><path fill="#ccf381" d="M677.212 65.86l-4.92 2.785v1.193h4.92v2.532h-12.625v-4.739c0-.977.172-1.809.515-2.496.344-.687.808-1.202 1.393-1.546a3.798 3.798 0 0 1 1.962-.516c.832 0 1.583.242 2.252.724.67.482 1.131 1.2 1.384 2.152l5.12-3.02zm-6.8 3.978v-2.116c0-.688-.17-1.2-.508-1.537-.338-.338-.802-.507-1.392-.507-.59 0-1.052.17-1.384.507-.33.337-.497.85-.497 1.537v2.116z"/></g><g><path fill="#ccf381" d="M785.03 380.304c-.954.507-2.158.76-3.61.76h-2.963v6.788h-3.545v-17.68h6.508c1.368 0 2.534.238 3.496.71.962.473 1.685 1.124 2.165 1.95.482.828.723 1.765.723 2.81 0 .948-.224 1.834-.672 2.66-.447.829-1.148 1.496-2.102 2.002zm-.873-4.661c0-.844-.238-1.498-.71-1.963-.473-.464-1.2-.696-2.178-.696h-2.812v5.294h2.812c.962 0 1.685-.236 2.165-.71.48-.472.723-1.114.723-1.925z"/></g><g><path fill="#ccf381" d="M806.216 384.483h-7.04l-1.167 3.37h-3.722l6.357-17.706h4.128l6.36 17.705h-3.75zm-.937-2.76l-2.583-7.473-2.584 7.472z"/></g><g><path fill="#ccf381" d="M822.122 385.142h5.826v2.71h-9.372v-17.68h3.546z"/></g><g><path fill="#ccf381" d="M838.813 372.933v4.585h5.953v2.735h-5.953v4.787h6.713v2.812h-10.258v-17.705h10.258v2.786z"/></g><g><path fill="#ccf381" d="M868.929 387.852h-3.545l-8.03-12.133v12.133h-3.545v-17.705h3.546l8.029 12.158v-12.158h3.545z"/></g><g><path fill="#ccf381" d="M881.036 387.852h-3.546v-17.68h3.546z"/></g><g><path fill="#ccf381" d="M889.914 374.314a8.357 8.357 0 0 1 3.241-3.217c1.377-.767 2.91-1.152 4.598-1.152 1.992 0 3.723.485 5.192 1.456 1.47.972 2.483 2.335 3.04 4.09h-4.079a4.151 4.151 0 0 0-1.672-1.697c-.709-.387-1.536-.582-2.48-.582-1.048 0-1.977.237-2.787.709-.81.473-1.445 1.149-1.9 2.027-.456.878-.684 1.89-.684 3.039 0 1.182.232 2.213.696 3.09.465.879 1.11 1.553 1.94 2.026.826.473 1.788.709 2.885.709 1.351 0 2.461-.362 3.331-1.09.87-.724 1.431-1.73 1.685-3.012h-6.079v-2.685h9.574v3.09a8.3 8.3 0 0 1-1.52 3.419c-.776 1.047-1.777 1.886-3.002 2.52-1.224.633-2.595.95-4.115.95-1.706 0-3.246-.384-4.623-1.153a8.365 8.365 0 0 1-3.24-3.204c-.786-1.367-1.179-2.921-1.179-4.66 0-1.74.393-3.297 1.178-4.673z"/></g><g><path fill="#ccf381" d="M928.78 370.172v17.68h-3.547v-7.574h-7.573v7.574h-3.546v-17.68h3.546v7.32h7.573v-7.32z"/></g><g><path fill="#ccf381" d="M949.372 370.172v2.786h-4.712v14.894h-3.546v-14.894h-4.71v-2.786z"/></g><g><path fill="#ccf381" d="M151.564 389.153c-1.071.57-2.422.853-4.052.853h-3.326v7.62h-3.98V377.78h7.306c1.535 0 2.843.265 3.924.796 1.08.53 1.89 1.261 2.43 2.19.54.928.81 1.98.81 3.155a6.182 6.182 0 0 1-.753 2.985c-.502.93-1.29 1.677-2.36 2.246zm-.98-5.23c0-.948-.268-1.683-.798-2.205-.53-.52-1.346-.78-2.445-.78h-3.156v5.941h3.156c1.08 0 1.89-.266 2.43-.796.542-.53.813-1.252.813-2.16z"/></g><g><path fill="#ccf381" d="M167.157 397.625h-3.98v-19.844h3.98z"/></g><g><path fill="#ccf381" d="M188.651 397.625l-4.293-6.68-3.895 6.68h-4.52l6.282-10.008-6.34-9.836h4.578l4.264 6.624 3.866-6.624h4.522l-6.227 9.98 6.34 9.864z"/></g><g><path fill="#ccf381" d="M205.936 380.88v5.146h6.682v3.07h-6.682v5.374h7.534v3.155h-11.514v-19.873h11.514v3.128z"/></g><g><path fill="#ccf381" d="M226.748 394.583h6.539v3.042h-10.519v-19.844h3.98z"/></g><g><path fill="#ccf381" d="M242.328 393.105c1.838-1.535 3.283-2.795 4.336-3.781 1.052-.986 1.934-2.01 2.643-3.071.711-1.061 1.067-2.085 1.067-3.07 0-.948-.223-1.682-.668-2.203-.445-.521-1.143-.782-2.09-.782-.948 0-1.668.312-2.16.938-.493.625-.759 1.497-.797 2.615h-3.866c.075-2.274.753-4 2.032-5.173 1.28-1.176 2.904-1.763 4.877-1.763 1.44 0 2.662.266 3.667.796 1.004.53 1.758 1.256 2.26 2.175.502.919.754 1.965.754 3.14 0 1.422-.394 2.787-1.18 4.095a16.933 16.933 0 0 1-2.7 3.44c-1.016.986-2.357 2.18-4.025 3.582h8.388v3.298h-14.045v-2.957z"/></g><g><path fill="#ccf381" d="M279.97 377.782v19.844h-3.98v-8.501h-8.5v8.5h-3.981v-19.843h3.98v8.216h8.502v-8.216z"/></g><g><path fill="#ccf381" d="M303.085 377.782v3.127h-5.289v16.717h-3.98v-16.717h-5.289v-3.127z"/></g><g><path fill="#ccf381" d="M333.306 377.782v19.844h-3.98v-12.907l-5.317 12.907h-3.013l-5.345-12.907v12.907h-3.981v-19.844h4.52l6.313 14.755 6.312-14.755z"/></g><g><path fill="#ccf381" d="M346.896 394.583h6.539v3.042h-10.52v-19.844h3.98z"/></g><g><path fill="#c9784b" d="M473.589 297.284l3.86-.043c19.117-.212 33.298-18.874 29.522-38.848l-4.391-23.216c-2.927-15.48-15.857-26.516-30.67-26.178-16.854.384-30.187 15.25-29.777 33.205l.53 23.26c.406 17.815 14.197 32.006 30.926 31.82z"/></g><g><path fill="none" stroke="#252b2d" stroke-linecap="round" stroke-linejoin="round" stroke-miterlimit="50" stroke-width="1.5" d="M485.767 247.16v0l3.14 12.588a6.042 6.042 0 0 1-4.37 7.317l-.718.184v0"/></g><g><path fill="#24272d" d="M455.182 266.387l4.814-35.116 1.144-8.336a26.962 26.962 0 0 0 7.655 4.496c10.106 3.915 38.41-1.674 39.869-22.19 1.19-16.734-14.975-5.184-23.984-5.1-14.15.133-24.868-6.869-42.67 5.833-21.311 15.207-6.711 44.161-6.711 44.161s9.572-5.152 19.883 16.252z"/></g><g><path fill="#24272d" d="M469.196 252.733a3.345 3.345 0 1 0 5.83-3.287 3.347 3.347 0 0 0-5.83 3.287z"/></g><g><path fill="#24272d" d="M489.77 250.535a3.345 3.345 0 1 0 5.83-3.287 3.347 3.347 0 0 0-5.83 3.287z"/></g><g><path fill="none" stroke="#252b2d" stroke-linecap="round" stroke-linejoin="round" stroke-miterlimit="50" stroke-width="1.5" d="M469.08 273.878s.966 6.904 8.768 7.312"/></g><g><path fill="#c9784b" d="M457.237 278.014c5.132-4.112 5.966-11.677 1.854-16.809l-7.244-9.039c-4.112-5.13-11.676-5.965-16.808-1.853-5.133 4.113-5.967 11.677-1.855 16.81l7.243 9.037c4.113 5.132 11.677 5.967 16.81 1.854z"/></g><g><path fill="none" stroke="#252b2d" stroke-linecap="round" stroke-linejoin="round" stroke-miterlimit="50" stroke-width="1.5" d="M439.244 260.159l7.201 5.932"/></g><g><path fill="#3d155f" d="M126.96 311.21v33.604H93.356z"/></g><g><path fill="#3d155f" d="M331.488 629.45l-33.604-33.603h33.604z"/></g><g><path fill="#3d155f" d="M759.453 404.993v33.604l-33.604-33.604z"/></g><g><path fill="#3d155f" d="M706.99 25.949l33.604 33.604H706.99z"/></g></g></svg>
