<svg xmlns="http://www.w3.org/2000/svg" width="74" height="108" viewBox="0 0 37 54"><path fill="#ccf381" d="M17.492.127c10.512-.738 19.271 7.572 19.271 17.927 0 6.772-3.744 12.667-9.276 15.73-.612.339-1.27.58-1.928.82a5.572 5.572 0 0 0-.991.474 5.835 5.835 0 0 0-2.847 5.017c0 1.385.482 2.655 1.287 3.657.138.175.289.343.45.503a5.954 5.954 0 0 1 1.323 3.753 5.994 5.994 0 0 1-6.653 5.955c-2.685-.288-4.893-2.416-5.268-5.091a5.978 5.978 0 0 1 1.262-4.617c.161-.16.312-.328.45-.503a5.816 5.816 0 0 0 1.287-3.657 5.836 5.836 0 0 0-3.839-5.491c-.647-.235-1.295-.472-1.898-.804C4.261 30.568.398 24.16.854 16.894 1.413 7.99 8.593.752 17.492.127zm1.298 26.1c4.505 0 8.173-3.668 8.173-8.173 0-4.51-3.668-8.174-8.173-8.174-4.508 0-8.173 3.665-8.173 8.174 0 4.505 3.665 8.173 8.173 8.173z"/></svg>
